# Made in Blockbench 4.11.2
mtllib concretebridge_l.mtl

o cuboid
v 0.99875 0.109375 -0.3125
v 0.99875 0.109375 0.3125
v 0.99875 -0.0625 0.3125
v 0.99875 -0.0625 -0.3125
v 0.49875 -0.0625 0.3125
v 0.49875 0.109375 0.3125
v 0.49875 0.109375 -0.3125
v 0.49875 -0.0625 -0.3125
vt 0.15625 1
vt 0 1
vt 0 0.71875
vt 0.15625 0.71875
vt 0.328125 0.71875
vt 0.328125 1
vt 0.171875 1
vt 0.171875 0.71875
vt 0.28125 0.546875
vt 0.40625 0.546875
vt 0.40625 0.703125
vt 0.28125 0.703125
vt 0.125 0.421875
vt 0.125 0.703125
vt 0 0.703125
vt 0 0.421875
vt 0.265625 0.703125
vt 0.140625 0.703125
vt 0.140625 0.421875
vt 0.265625 0.421875
vn 1 0 0
vn -1 0 0
vn 0 1 0
vn 0 0 1
vn 0 0 -1
usemtl m_b9399aca-209c-47d6-e216-ed87d09d4b08
f 1/1/1 2/2/1 3/3/1 4/4/1
f 5/5/2 6/6/2 7/7/2 8/8/2
f 6/9/3 2/10/3 1/11/3 7/12/3
f 3/13/4 2/14/4 6/15/4 5/16/4
f 7/17/5 1/18/5 4/19/5 8/20/5
o cuboid
v 0 0.08481917382415921 -3.469446951953614e-18
v 0.5 0.08481917382415921 -3.469446951953614e-18
v 0.5 0.040624999999999994 -0.044194173824159216
v 0 0.040624999999999994 -0.044194173824159216
v 0.5 -0.003569173824159222 3.469446951953614e-18
v 0.5 0.040624999999999994 0.044194173824159216
v 0 0.040624999999999994 0.044194173824159216
v 0 -0.003569173824159222 3.469446951953614e-18
vt 0.34375 0.984375
vt 0.46875 0.984375
vt 0.46875 1
vt 0.34375 1
vt 0.46875 0.953125
vt 0.46875 0.96875
vt 0.34375 0.96875
vt 0.34375 0.953125
vt 0.46875 0.921875
vt 0.46875 0.9375
vt 0.34375 0.9375
vt 0.34375 0.921875
vt 0.46875 0.90625
vt 0.34375 0.90625
vt 0.34375 0.890625
vt 0.46875 0.890625
vn 0 0.7071067811865476 -0.7071067811865476
vn 0 -0.7071067811865476 0.7071067811865476
vn 0 0.7071067811865476 0.7071067811865476
vn 0 -0.7071067811865476 -0.7071067811865476
usemtl m_b9399aca-209c-47d6-e216-ed87d09d4b08
f 9/21/6 10/22/6 11/23/6 12/24/6
f 13/25/7 14/26/7 15/27/7 16/28/7
f 14/29/8 10/30/8 9/31/8 15/32/8
f 12/33/9 11/34/9 13/35/9 16/36/9
o cuboid
v -0.99875 -0.0625 0.3125
v -0.99875 0.109375 0.3125
v -0.99875 0.109375 -0.3125
v -0.99875 -0.0625 -0.3125
v -0.49875 0.109375 -0.3125
v -0.49875 0.109375 0.3125
v -0.49875 -0.0625 0.3125
v -0.49875 -0.0625 -0.3125
vt 0 0.71875
vt 0 1
vt 0.15625 1
vt 0.15625 0.71875
vt 0.171875 1
vt 0.328125 1
vt 0.328125 0.71875
vt 0.171875 0.71875
vt 0.40625 0.703125
vt 0.40625 0.546875
vt 0.28125 0.546875
vt 0.28125 0.703125
vt 0 0.703125
vt 0.125 0.703125
vt 0.125 0.421875
vt 0 0.421875
vt 0.140625 0.421875
vt 0.140625 0.703125
vt 0.265625 0.703125
vt 0.265625 0.421875
vn -1 0 0
vn 1 0 0
vn 0 1 0
vn 0 0 1
vn 0 0 -1
usemtl m_b9399aca-209c-47d6-e216-ed87d09d4b08
f 17/37/10 18/38/10 19/39/10 20/40/10
f 21/41/11 22/42/11 23/43/11 24/44/11
f 19/45/12 18/46/12 22/47/12 21/48/12
f 22/49/13 18/50/13 17/51/13 23/52/13
f 20/53/14 19/54/14 21/55/14 24/56/14
o cuboid
v -0.5 0.040624999999999994 -0.044194173824159216
v -0.5 0.08481917382415921 -3.469446951953614e-18
v 0 0.08481917382415921 -3.469446951953614e-18
v 0 0.040624999999999994 -0.044194173824159216
v 0 0.040624999999999994 0.044194173824159216
v -0.5 0.040624999999999994 0.044194173824159216
v -0.5 -0.003569173824159222 3.469446951953614e-18
v 0 -0.003569173824159222 3.469446951953614e-18
vt 0.46875 1
vt 0.46875 0.984375
vt 0.34375 0.984375
vt 0.34375 1
vt 0.34375 0.96875
vt 0.46875 0.96875
vt 0.46875 0.953125
vt 0.34375 0.953125
vt 0.34375 0.9375
vt 0.46875 0.9375
vt 0.46875 0.921875
vt 0.34375 0.921875
vt 0.34375 0.890625
vt 0.34375 0.90625
vt 0.46875 0.90625
vt 0.46875 0.890625
vn 0 0.7071067811865476 -0.7071067811865476
vn 0 -0.7071067811865476 0.7071067811865476
vn 0 0.7071067811865476 0.7071067811865476
vn 0 -0.7071067811865476 -0.7071067811865476
usemtl m_b9399aca-209c-47d6-e216-ed87d09d4b08
f 25/57/15 26/58/15 27/59/15 28/60/15
f 29/61/16 30/62/16 31/63/16 32/64/16
f 27/65/17 26/66/17 30/67/17 29/68/17
f 31/69/18 25/70/18 28/71/18 32/72/18
o cuboid
v 0.855 0.12366071428571429 -0.03125
v 0.855 0.12366071428571429 0.03125
v 0.855 0.0875 0.03125
v 0.855 0.0875 -0.03125
v 0.7925 0.0875 0.03125
v 0.7925 0.12366071428571429 0.03125
v 0.7925 0.12366071428571429 -0.03125
v 0.7925 0.0875 -0.03125
v 0.839375 0.12366071428571429 0.015624999999999972
v 0.808125 0.12366071428571429 0.015624999999999972
v 0.839375 0.12366071428571429 -0.015625
v 0.808125 0.12366071428571429 -0.015625
v 0.82375 0.14375 0.02209708691207954
v 0.8458470869120794 0.14375 -3.469446951953614e-17
v 0.82375 0.14375 -0.02209708691207951
v 0.8016529130879204 0.14375 2.7755575615628914e-17
v 0.8458470869120794 0.12366071428571429 -3.469446951953614e-17
v 0.82375 0.12366071428571429 0.02209708691207954
v 0.82375 0.12366071428571429 -0.02209708691207951
v 0.8016529130879204 0.12366071428571429 2.7755575615628914e-17
vt 0.34375 0.28125
vt 0.3125 0.28125
vt 0.3125 0.25
vt 0.34375 0.25
vt 0.40625 0.25
vt 0.40625 0.28125
vt 0.375 0.28125
vt 0.375 0.25
vt 0.46875 0.25
vt 0.46875 0.28125
vt 0.4375 0.28125
vt 0.4375 0.25
vt 0.53125 0.28125
vt 0.5 0.28125
vt 0.5 0.25
vt 0.53125 0.25
vt 0.240625 0.16874999999999996
vt 0.228125 0.16874999999999996
vt 0.221875 0.16249999999999998
vt 0.246875 0.16249999999999998
vt 0.240625 0.18125000000000002
vt 0.240625 0.16874999999999996
vt 0.246875 0.16249999999999998
vt 0.246875 0.1875
vt 0.228125 0.18125000000000002
vt 0.240625 0.18125000000000002
vt 0.246875 0.1875
vt 0.221875 0.1875
vt 0.228125 0.16874999999999996
vt 0.228125 0.18125000000000002
vt 0.221875 0.1875
vt 0.221875 0.16249999999999998
vt 0.5625 0.25
vt 0.59375 0.25
vt 0.59375 0.28125
vt 0.5625 0.28125
vt 0.49191875 0.15625
vt 0.47683125 0.15000000000000002
vt 0.48308125 0.14741249999999995
vt 0.48933125 0.15000000000000002
vt 0.35495625 0.15625
vt 0.36120625 0.14116249999999997
vt 0.36379375 0.14741249999999995
vt 0.36120625 0.15366250000000004
vt 0.82058125 0.27241249999999995
vt 0.83566875 0.27866250000000004
vt 0.82941875 0.28125
vt 0.82316875 0.27866250000000004
vt 0.86379375 0.48491249999999997
vt 0.85754375 0.5
vt 0.85495625 0.49375
vt 0.85754375 0.48750000000000004
vt 0.65625 0.28125
vt 0.625 0.28125
vt 0.625 0.25
vt 0.65625 0.25
vt 0.71875 0.28125
vt 0.6875 0.28125
vt 0.6875 0.25
vt 0.71875 0.25
vt 0.78125 0.28125
vt 0.75 0.28125
vt 0.75 0.25
vt 0.78125 0.25
vt 0.34375 0.21875
vt 0.3125 0.21875
vt 0.3125 0.1875
vt 0.34375 0.1875
vn 1 0 0
vn -1 0 0
vn 0 0 1
vn 0 0 -1
vn 0 1 0
vn 0 1 0
vn 0 1 0
vn 0 1 0
vn 0 1 0
vn 0 1 0
vn 0 1 0
vn 0 1 0
vn 0 1 0
vn 0.7071067811865493 0 0.7071067811865457
vn 0.7071067811865478 0 -0.7071067811865472
vn -0.7071067811865471 0 -0.707106781186548
vn -0.7071067811865467 0 0.7071067811865485
usemtl m_1af61d0e-9b1f-b431-d797-637bcd011865
f 33/73/19 34/74/19 35/75/19 36/76/19
f 37/77/20 38/78/20 39/79/20 40/80/20
f 35/81/21 34/82/21 38/83/21 37/84/21
f 39/85/22 33/86/22 36/87/22 40/88/22
f 41/89/23 42/90/23 38/91/23 34/92/23
f 43/93/24 41/94/24 34/95/24 33/96/24
f 44/97/25 43/98/25 33/99/25 39/100/25
f 42/101/26 44/102/26 39/103/26 38/104/26
f 45/105/27 46/106/27 47/107/27 48/108/27
f 49/109/28 42/110/28 50/111/28 41/112/28
f 51/113/29 41/114/29 49/115/29 43/116/29
f 52/117/30 43/118/30 51/119/30 44/120/30
f 50/121/31 44/122/31 52/123/31 42/124/31
f 46/125/32 45/126/32 50/127/32 49/128/32
f 47/129/33 46/130/33 49/131/33 51/132/33
f 48/133/34 47/134/34 51/135/34 52/136/34
f 45/137/35 48/138/35 52/139/35 50/140/35
o rail
v 0.72375 0.27343750000000006 -0.3125
v 0.72375 0.27343750000000006 0.3125
v 0.73 0.275 0.3125
v 0.73 0.275 -0.3125
v 0.7775000000000001 0.275 0.3125
v 0.7775000000000001 0.275 -0.3125
v 0.7837500000000001 0.27343750000000006 0.3125
v 0.7837500000000001 0.27343750000000006 -0.3125
v 0.7175 0.265625 -0.3125
v 0.7175 0.265625 0.3125
v 0.7175 0.24062500000000003 -0.3125
v 0.7175 0.24062500000000003 0.3125
v 0.7315625 0.23984375000000002 -0.3125
v 0.7315625 0.23984375000000002 0.3125
v 0.73625 0.23593750000000002 -0.3125
v 0.73625 0.23593750000000002 0.3125
v 0.7315625 0.12890625 -0.3125
v 0.7315625 0.12890625 0.3125
v 0.7104687500000001 0.11289062500000002 -0.3125
v 0.7104687500000001 0.11289062500000002 0.3125
v 0.683125 0.10312500000000002 -0.3125
v 0.683125 0.10312500000000002 0.3125
v 0.683125 0.09375 -0.3125
v 0.683125 0.09375 0.3125
v 0.8243750000000001 0.09375 -0.3125
v 0.8243750000000001 0.09375 0.3125
v 0.8243750000000001 0.10312500000000002 -0.3125
v 0.8243750000000001 0.10312500000000002 0.3125
v 0.79703125 0.11289062500000002 -0.3125
v 0.79703125 0.11289062500000002 0.3125
v 0.7759375000000001 0.12890625 -0.3125
v 0.7759375000000001 0.12890625 0.3125
v 0.7712500000000001 0.23593750000000002 -0.3125
v 0.7712500000000001 0.23593750000000002 0.3125
v 0.7759375000000001 0.23984375000000002 -0.3125
v 0.7759375000000001 0.23984375000000002 0.3125
v 0.79 0.24062500000000003 -0.3125
v 0.79 0.24062500000000003 0.3125
v 0.79 0.265625 -0.3125
v 0.79 0.265625 0.3125
vt 0.09427968749999996 0.34375
vt 0.09427968749999996 0.03125
vt 0.09749843750000001 0.03125
vt 0.09749843750000001 0.34375
vt 0.09749843750000001 0.34375
vt 0.09749843750000001 0.03125
vt 0.12124843750000006 0.03125
vt 0.12124843750000006 0.34375
vt 0.12124843750000006 0.34375
vt 0.12124843750000006 0.03125
vt 0.12447031250000004 0.03125
vt 0.12447031250000004 0.34375
vt 0.59375 0.65625
vt 0.90625 0.65625
vt 0.90625 0.6875
vt 0.59375 0.6875
vt 0.59375 0.96875
vt 0.90625 0.96875
vt 0.90625 1
vt 0.59375 1
vt 0.59375 0.78125
vt 0.90625 0.78125
vt 0.90625 0.8125
vt 0.59375 0.8125
vt 0.4375 0.375
vt 0.75 0.375
vt 0.75 0.40625
vt 0.4375 0.40625
vt 0.09375 0.4375
vt 0.40625 0.4375
vt 0.40625 0.5
vt 0.09375 0.5
vt 0.5 0.330509375
vt 0.8125 0.330509375
vt 0.8125 0.34375
vt 0.5 0.34375
vt 0.5 0.31599062499999997
vt 0.8125 0.31599062499999997
vt 0.8125 0.330509375
vt 0.5 0.330509375
vt 0.59375 0.90625
vt 0.90625 0.90625
vt 0.90625 0.9375
vt 0.59375 0.9375
vt 0.0625 0.1875
vt 0.0625 0.5
vt 0 0.5
vt 0 0.1875
vt 0.40625 0.40625
vt 0.09375 0.40625
vt 0.09375 0.375
vt 0.40625 0.375
vt 0.46875 0.33050625
vt 0.15625 0.33050625
vt 0.15625 0.3159875
vt 0.46875 0.3159875
vt 0.46875 0.34375
vt 0.15625 0.34375
vt 0.15625 0.33050625
vt 0.46875 0.33050625
vt 0.75 0.5
vt 0.4375 0.5
vt 0.4375 0.4375
vt 0.75 0.4375
vt 0.90625 0.5625
vt 0.59375 0.5625
vt 0.59375 0.53125
vt 0.90625 0.53125
vt 0.90625 0.75
vt 0.59375 0.75
vt 0.59375 0.71875
vt 0.90625 0.71875
vt 0.90625 0.875
vt 0.59375 0.875
vt 0.59375 0.84375
vt 0.90625 0.84375
vt 0.90625 0.625
vt 0.59375 0.625
vt 0.59375 0.59375
vt 0.90625 0.59375
vn -0.24253562503632894 0.9701425001453331 0
vn 0 1 0
vn 0.24253562503632894 0.9701425001453331 0
vn -0.7808688094430336 0.6246950475544203 0
vn -1 0 0
vn -0.05547001962252379 -0.9984603532054125 0
vn -0.6401843996644835 -0.7682212795973729 0
vn -0.999042349216381 0.04375367952772429 0
vn -0.6047092401914661 0.7964463163497335 0
vn -0.33633639699815504 0.9417419115948379 0
vn -1 0 0
vn 0 -1 0
vn 1 0 0
vn 0.33633639699815504 0.9417419115948379 0
vn 0.6047092401914661 0.7964463163497335 0
vn 0.999042349216381 0.04375367952772429 0
vn 0.6401843996644835 -0.7682212795973729 0
vn 0.05547001962252379 -0.9984603532054125 0
vn 1 0 0
vn 0.7808688094430336 0.6246950475544203 0
usemtl m_1af61d0e-9b1f-b431-d797-637bcd011865
f 53/141/36 54/142/36 55/143/36 56/144/36
f 56/145/37 55/146/37 57/147/37 58/148/37
f 58/149/38 57/150/38 59/151/38 60/152/38
f 61/153/39 62/154/39 54/155/39 53/156/39
f 63/157/40 64/158/40 62/159/40 61/160/40
f 65/161/41 66/162/41 64/163/41 63/164/41
f 67/165/42 68/166/42 66/167/42 65/168/42
f 69/169/43 70/170/43 68/171/43 67/172/43
f 71/173/44 72/174/44 70/175/44 69/176/44
f 73/177/45 74/178/45 72/179/45 71/180/45
f 75/181/46 76/182/46 74/183/46 73/184/46
f 77/185/47 78/186/47 76/187/47 75/188/47
f 79/189/48 80/190/48 78/191/48 77/192/48
f 81/193/49 82/194/49 80/195/49 79/196/49
f 83/197/50 84/198/50 82/199/50 81/200/50
f 85/201/51 86/202/51 84/203/51 83/204/51
f 87/205/52 88/206/52 86/207/52 85/208/52
f 89/209/53 90/210/53 88/211/53 87/212/53
f 91/213/54 92/214/54 90/215/54 89/216/54
f 60/217/55 59/218/55 92/219/55 91/220/55
o cuboid
v 0.714375 0.12366071428571429 -0.03125
v 0.714375 0.12366071428571429 0.03125
v 0.714375 0.0875 0.03125
v 0.714375 0.0875 -0.03125
v 0.651875 0.0875 0.03125
v 0.651875 0.12366071428571429 0.03125
v 0.651875 0.12366071428571429 -0.03125
v 0.651875 0.0875 -0.03125
v 0.69875 0.12366071428571429 0.015624999999999972
v 0.6675 0.12366071428571429 0.015624999999999972
v 0.69875 0.12366071428571429 -0.015625
v 0.6675 0.12366071428571429 -0.015625
v 0.683125 0.14375 0.02209708691207954
v 0.7052220869120794 0.14375 -3.469446951953614e-17
v 0.683125 0.14375 -0.02209708691207951
v 0.6610279130879204 0.14375 2.7755575615628914e-17
v 0.7052220869120794 0.12366071428571429 -3.469446951953614e-17
v 0.683125 0.12366071428571429 0.02209708691207954
v 0.683125 0.12366071428571429 -0.02209708691207951
v 0.6610279130879204 0.12366071428571429 2.7755575615628914e-17
vt 0.34375 0.28125
vt 0.3125 0.28125
vt 0.3125 0.25
vt 0.34375 0.25
vt 0.40625 0.25
vt 0.40625 0.28125
vt 0.375 0.28125
vt 0.375 0.25
vt 0.46875 0.25
vt 0.46875 0.28125
vt 0.4375 0.28125
vt 0.4375 0.25
vt 0.53125 0.28125
vt 0.5 0.28125
vt 0.5 0.25
vt 0.53125 0.25
vt 0.240625 0.16874999999999996
vt 0.228125 0.16874999999999996
vt 0.221875 0.16249999999999998
vt 0.246875 0.16249999999999998
vt 0.240625 0.18125000000000002
vt 0.240625 0.16874999999999996
vt 0.246875 0.16249999999999998
vt 0.246875 0.1875
vt 0.228125 0.18125000000000002
vt 0.240625 0.18125000000000002
vt 0.246875 0.1875
vt 0.221875 0.1875
vt 0.228125 0.16874999999999996
vt 0.228125 0.18125000000000002
vt 0.221875 0.1875
vt 0.221875 0.16249999999999998
vt 0.5625 0.25
vt 0.59375 0.25
vt 0.59375 0.28125
vt 0.5625 0.28125
vt 0.49191875 0.15625
vt 0.47683125 0.15000000000000002
vt 0.48308125 0.14741249999999995
vt 0.48933125 0.15000000000000002
vt 0.35495625 0.15625
vt 0.36120625 0.14116249999999997
vt 0.36379375 0.14741249999999995
vt 0.36120625 0.15366250000000004
vt 0.82058125 0.27241249999999995
vt 0.83566875 0.27866250000000004
vt 0.82941875 0.28125
vt 0.82316875 0.27866250000000004
vt 0.86379375 0.48491249999999997
vt 0.85754375 0.5
vt 0.85495625 0.49375
vt 0.85754375 0.48750000000000004
vt 0.65625 0.28125
vt 0.625 0.28125
vt 0.625 0.25
vt 0.65625 0.25
vt 0.71875 0.28125
vt 0.6875 0.28125
vt 0.6875 0.25
vt 0.71875 0.25
vt 0.78125 0.28125
vt 0.75 0.28125
vt 0.75 0.25
vt 0.78125 0.25
vt 0.34375 0.21875
vt 0.3125 0.21875
vt 0.3125 0.1875
vt 0.34375 0.1875
vn 1 0 0
vn -1 0 0
vn 0 0 1
vn 0 0 -1
vn 0 1 0
vn 0 1 0
vn 0 1 0
vn 0 1 0
vn 0 1 0
vn 0 1 0
vn 0 1 0
vn 0 1 0
vn 0 1 0
vn 0.7071067811865493 0 0.7071067811865457
vn 0.7071067811865478 0 -0.7071067811865472
vn -0.7071067811865471 0 -0.707106781186548
vn -0.7071067811865467 0 0.7071067811865485
usemtl m_1af61d0e-9b1f-b431-d797-637bcd011865
f 93/221/56 94/222/56 95/223/56 96/224/56
f 97/225/57 98/226/57 99/227/57 100/228/57
f 95/229/58 94/230/58 98/231/58 97/232/58
f 99/233/59 93/234/59 96/235/59 100/236/59
f 101/237/60 102/238/60 98/239/60 94/240/60
f 103/241/61 101/242/61 94/243/61 93/244/61
f 104/245/62 103/246/62 93/247/62 99/248/62
f 102/249/63 104/250/63 99/251/63 98/252/63
f 105/253/64 106/254/64 107/255/64 108/256/64
f 109/257/65 102/258/65 110/259/65 101/260/65
f 111/261/66 101/262/66 109/263/66 103/264/66
f 112/265/67 103/266/67 111/267/67 104/268/67
f 110/269/68 104/270/68 112/271/68 102/272/68
f 106/273/69 105/274/69 110/275/69 109/276/69
f 107/277/70 106/278/70 109/279/70 111/280/70
f 108/281/71 107/282/71 111/283/71 112/284/71
f 105/285/72 108/286/72 112/287/72 110/288/72
o cuboid
v -0.855 0.0875 0.03125
v -0.855 0.12366071428571429 0.03125
v -0.855 0.12366071428571429 -0.03125
v -0.855 0.0875 -0.03125
v -0.7925 0.12366071428571429 -0.03125
v -0.7925 0.12366071428571429 0.03125
v -0.7925 0.0875 0.03125
v -0.7925 0.0875 -0.03125
v -0.808125 0.12366071428571429 0.015624999999999972
v -0.839375 0.12366071428571429 0.015624999999999972
v -0.839375 0.12366071428571429 -0.015625
v -0.808125 0.12366071428571429 -0.015625
v -0.82375 0.14375 -0.02209708691207951
v -0.8458470869120794 0.14375 -3.469446951953614e-17
v -0.82375 0.14375 0.02209708691207954
v -0.8016529130879204 0.14375 2.7755575615628914e-17
v -0.82375 0.12366071428571429 0.02209708691207954
v -0.8458470869120794 0.12366071428571429 -3.469446951953614e-17
v -0.82375 0.12366071428571429 -0.02209708691207951
v -0.8016529130879204 0.12366071428571429 2.7755575615628914e-17
vt 0.3125 0.25
vt 0.3125 0.28125
vt 0.34375 0.28125
vt 0.34375 0.25
vt 0.375 0.28125
vt 0.40625 0.28125
vt 0.40625 0.25
vt 0.375 0.25
vt 0.4375 0.28125
vt 0.46875 0.28125
vt 0.46875 0.25
vt 0.4375 0.25
vt 0.5 0.25
vt 0.5 0.28125
vt 0.53125 0.28125
vt 0.53125 0.25
vt 0.221875 0.16249999999999998
vt 0.228125 0.16874999999999996
vt 0.240625 0.16874999999999996
vt 0.246875 0.16249999999999998
vt 0.246875 0.16249999999999998
vt 0.240625 0.16874999999999996
vt 0.240625 0.18125000000000002
vt 0.246875 0.1875
vt 0.246875 0.1875
vt 0.240625 0.18125000000000002
vt 0.228125 0.18125000000000002
vt 0.221875 0.1875
vt 0.221875 0.1875
vt 0.228125 0.18125000000000002
vt 0.228125 0.16874999999999996
vt 0.221875 0.16249999999999998
vt 0.59375 0.28125
vt 0.59375 0.25
vt 0.5625 0.25
vt 0.5625 0.28125
vt 0.48308125 0.14741249999999995
vt 0.47683125 0.15000000000000002
vt 0.49191875 0.15625
vt 0.48933125 0.15000000000000002
vt 0.36379375 0.14741249999999995
vt 0.36120625 0.14116249999999997
vt 0.35495625 0.15625
vt 0.36120625 0.15366250000000004
vt 0.82941875 0.28125
vt 0.83566875 0.27866250000000004
vt 0.82058125 0.27241249999999995
vt 0.82316875 0.27866250000000004
vt 0.85495625 0.49375
vt 0.85754375 0.5
vt 0.86379375 0.48491249999999997
vt 0.85754375 0.48750000000000004
vt 0.625 0.25
vt 0.625 0.28125
vt 0.65625 0.28125
vt 0.65625 0.25
vt 0.6875 0.25
vt 0.6875 0.28125
vt 0.71875 0.28125
vt 0.71875 0.25
vt 0.75 0.25
vt 0.75 0.28125
vt 0.78125 0.28125
vt 0.78125 0.25
vt 0.3125 0.1875
vt 0.3125 0.21875
vt 0.34375 0.21875
vt 0.34375 0.1875
vn -1 0 0
vn 1 0 0
vn 0 0 1
vn 0 0 -1
vn 0 1 0
vn 0 1 0
vn 0 1 0
vn 0 1 0
vn 0 1 0
vn 0 1 0
vn 0 1 0
vn 0 1 0
vn 0 1 0
vn -0.7071067811865493 0 0.7071067811865457
vn -0.7071067811865478 0 -0.7071067811865472
vn 0.7071067811865471 0 -0.707106781186548
vn 0.7071067811865467 0 0.7071067811865485
usemtl m_1af61d0e-9b1f-b431-d797-637bcd011865
f 113/289/73 114/290/73 115/291/73 116/292/73
f 117/293/74 118/294/74 119/295/74 120/296/74
f 118/297/75 114/298/75 113/299/75 119/300/75
f 116/301/76 115/302/76 117/303/76 120/304/76
f 118/305/77 121/306/77 122/307/77 114/308/77
f 114/309/78 122/310/78 123/311/78 115/312/78
f 115/313/79 123/314/79 124/315/79 117/316/79
f 117/317/80 124/318/80 121/319/80 118/320/80
f 125/321/81 126/322/81 127/323/81 128/324/81
f 129/325/82 121/326/82 130/327/82 122/328/82
f 130/329/83 122/330/83 131/331/83 123/332/83
f 131/333/84 123/334/84 132/335/84 124/336/84
f 132/337/85 124/338/85 129/339/85 121/340/85
f 129/341/86 127/342/86 126/343/86 130/344/86
f 130/345/87 126/346/87 125/347/87 131/348/87
f 131/349/88 125/350/88 128/351/88 132/352/88
f 132/353/89 128/354/89 127/355/89 129/356/89
o cuboid
v -0.714375 0.0875 0.03125
v -0.714375 0.12366071428571429 0.03125
v -0.714375 0.12366071428571429 -0.03125
v -0.714375 0.0875 -0.03125
v -0.651875 0.12366071428571429 -0.03125
v -0.651875 0.12366071428571429 0.03125
v -0.651875 0.0875 0.03125
v -0.651875 0.0875 -0.03125
v -0.6675 0.12366071428571429 0.015624999999999972
v -0.69875 0.12366071428571429 0.015624999999999972
v -0.69875 0.12366071428571429 -0.015625
v -0.6675 0.12366071428571429 -0.015625
v -0.683125 0.14375 -0.02209708691207951
v -0.7052220869120794 0.14375 -3.469446951953614e-17
v -0.683125 0.14375 0.02209708691207954
v -0.6610279130879204 0.14375 2.7755575615628914e-17
v -0.683125 0.12366071428571429 0.02209708691207954
v -0.7052220869120794 0.12366071428571429 -3.469446951953614e-17
v -0.683125 0.12366071428571429 -0.02209708691207951
v -0.6610279130879204 0.12366071428571429 2.7755575615628914e-17
vt 0.3125 0.25
vt 0.3125 0.28125
vt 0.34375 0.28125
vt 0.34375 0.25
vt 0.375 0.28125
vt 0.40625 0.28125
vt 0.40625 0.25
vt 0.375 0.25
vt 0.4375 0.28125
vt 0.46875 0.28125
vt 0.46875 0.25
vt 0.4375 0.25
vt 0.5 0.25
vt 0.5 0.28125
vt 0.53125 0.28125
vt 0.53125 0.25
vt 0.221875 0.16249999999999998
vt 0.228125 0.16874999999999996
vt 0.240625 0.16874999999999996
vt 0.246875 0.16249999999999998
vt 0.246875 0.16249999999999998
vt 0.240625 0.16874999999999996
vt 0.240625 0.18125000000000002
vt 0.246875 0.1875
vt 0.246875 0.1875
vt 0.240625 0.18125000000000002
vt 0.228125 0.18125000000000002
vt 0.221875 0.1875
vt 0.221875 0.1875
vt 0.228125 0.18125000000000002
vt 0.228125 0.16874999999999996
vt 0.221875 0.16249999999999998
vt 0.59375 0.28125
vt 0.59375 0.25
vt 0.5625 0.25
vt 0.5625 0.28125
vt 0.48308125 0.14741249999999995
vt 0.47683125 0.15000000000000002
vt 0.49191875 0.15625
vt 0.48933125 0.15000000000000002
vt 0.36379375 0.14741249999999995
vt 0.36120625 0.14116249999999997
vt 0.35495625 0.15625
vt 0.36120625 0.15366250000000004
vt 0.82941875 0.28125
vt 0.83566875 0.27866250000000004
vt 0.82058125 0.27241249999999995
vt 0.82316875 0.27866250000000004
vt 0.85495625 0.49375
vt 0.85754375 0.5
vt 0.86379375 0.48491249999999997
vt 0.85754375 0.48750000000000004
vt 0.625 0.25
vt 0.625 0.28125
vt 0.65625 0.28125
vt 0.65625 0.25
vt 0.6875 0.25
vt 0.6875 0.28125
vt 0.71875 0.28125
vt 0.71875 0.25
vt 0.75 0.25
vt 0.75 0.28125
vt 0.78125 0.28125
vt 0.78125 0.25
vt 0.3125 0.1875
vt 0.3125 0.21875
vt 0.34375 0.21875
vt 0.34375 0.1875
vn -1 0 0
vn 1 0 0
vn 0 0 1
vn 0 0 -1
vn 0 1 0
vn 0 1 0
vn 0 1 0
vn 0 1 0
vn 0 1 0
vn 0 1 0
vn 0 1 0
vn 0 1 0
vn 0 1 0
vn -0.7071067811865493 0 0.7071067811865457
vn -0.7071067811865478 0 -0.7071067811865472
vn 0.7071067811865471 0 -0.707106781186548
vn 0.7071067811865467 0 0.7071067811865485
usemtl m_1af61d0e-9b1f-b431-d797-637bcd011865
f 133/357/90 134/358/90 135/359/90 136/360/90
f 137/361/91 138/362/91 139/363/91 140/364/91
f 138/365/92 134/366/92 133/367/92 139/368/92
f 136/369/93 135/370/93 137/371/93 140/372/93
f 138/373/94 141/374/94 142/375/94 134/376/94
f 134/377/95 142/378/95 143/379/95 135/380/95
f 135/381/96 143/382/96 144/383/96 137/384/96
f 137/385/97 144/386/97 141/387/97 138/388/97
f 145/389/98 146/390/98 147/391/98 148/392/98
f 149/393/99 141/394/99 150/395/99 142/396/99
f 150/397/100 142/398/100 151/399/100 143/400/100
f 151/401/101 143/402/101 152/403/101 144/404/101
f 152/405/102 144/406/102 149/407/102 141/408/102
f 149/409/103 147/410/103 146/411/103 150/412/103
f 150/413/104 146/414/104 145/415/104 151/416/104
f 151/417/105 145/418/105 148/419/105 152/420/105
f 152/421/106 148/422/106 147/423/106 149/424/106
o rail
v -0.73 0.275 0.3125
v -0.72375 0.27343750000000006 0.3125
v -0.72375 0.27343750000000006 -0.3125
v -0.73 0.275 -0.3125
v -0.7775000000000001 0.275 0.3125
v -0.7775000000000001 0.275 -0.3125
v -0.7837500000000001 0.27343750000000006 0.3125
v -0.7837500000000001 0.27343750000000006 -0.3125
v -0.7175 0.265625 0.3125
v -0.7175 0.265625 -0.3125
v -0.7175 0.24062500000000003 0.3125
v -0.7175 0.24062500000000003 -0.3125
v -0.7315625 0.23984375000000002 0.3125
v -0.7315625 0.23984375000000002 -0.3125
v -0.73625 0.23593750000000002 0.3125
v -0.73625 0.23593750000000002 -0.3125
v -0.7315625 0.12890625 0.3125
v -0.7315625 0.12890625 -0.3125
v -0.7104687500000001 0.11289062500000002 0.3125
v -0.7104687500000001 0.11289062500000002 -0.3125
v -0.683125 0.10312500000000002 0.3125
v -0.683125 0.10312500000000002 -0.3125
v -0.683125 0.09375 0.3125
v -0.683125 0.09375 -0.3125
v -0.8243750000000001 0.09375 0.3125
v -0.8243750000000001 0.09375 -0.3125
v -0.8243750000000001 0.10312500000000002 0.3125
v -0.8243750000000001 0.10312500000000002 -0.3125
v -0.79703125 0.11289062500000002 0.3125
v -0.79703125 0.11289062500000002 -0.3125
v -0.7759375000000001 0.12890625 0.3125
v -0.7759375000000001 0.12890625 -0.3125
v -0.7712500000000001 0.23593750000000002 0.3125
v -0.7712500000000001 0.23593750000000002 -0.3125
v -0.7759375000000001 0.23984375000000002 0.3125
v -0.7759375000000001 0.23984375000000002 -0.3125
v -0.79 0.24062500000000003 0.3125
v -0.79 0.24062500000000003 -0.3125
v -0.79 0.265625 0.3125
v -0.79 0.265625 -0.3125
vt 0.09749843750000001 0.03125
vt 0.09427968749999996 0.03125
vt 0.09427968749999996 0.34375
vt 0.09749843750000001 0.34375
vt 0.12124843750000006 0.03125
vt 0.09749843750000001 0.03125
vt 0.09749843750000001 0.34375
vt 0.12124843750000006 0.34375
vt 0.12447031250000004 0.03125
vt 0.12124843750000006 0.03125
vt 0.12124843750000006 0.34375
vt 0.12447031250000004 0.34375
vt 0.90625 0.6875
vt 0.90625 0.65625
vt 0.59375 0.65625
vt 0.59375 0.6875
vt 0.90625 1
vt 0.90625 0.96875
vt 0.59375 0.96875
vt 0.59375 1
vt 0.90625 0.8125
vt 0.90625 0.78125
vt 0.59375 0.78125
vt 0.59375 0.8125
vt 0.75 0.40625
vt 0.75 0.375
vt 0.4375 0.375
vt 0.4375 0.40625
vt 0.40625 0.5
vt 0.40625 0.4375
vt 0.09375 0.4375
vt 0.09375 0.5
vt 0.8125 0.34375
vt 0.8125 0.330509375
vt 0.5 0.330509375
vt 0.5 0.34375
vt 0.8125 0.330509375
vt 0.8125 0.31599062499999997
vt 0.5 0.31599062499999997
vt 0.5 0.330509375
vt 0.90625 0.9375
vt 0.90625 0.90625
vt 0.59375 0.90625
vt 0.59375 0.9375
vt 0 0.5
vt 0.0625 0.5
vt 0.0625 0.1875
vt 0 0.1875
vt 0.09375 0.375
vt 0.09375 0.40625
vt 0.40625 0.40625
vt 0.40625 0.375
vt 0.15625 0.3159875
vt 0.15625 0.33050625
vt 0.46875 0.33050625
vt 0.46875 0.3159875
vt 0.15625 0.33050625
vt 0.15625 0.34375
vt 0.46875 0.34375
vt 0.46875 0.33050625
vt 0.4375 0.4375
vt 0.4375 0.5
vt 0.75 0.5
vt 0.75 0.4375
vt 0.59375 0.53125
vt 0.59375 0.5625
vt 0.90625 0.5625
vt 0.90625 0.53125
vt 0.59375 0.71875
vt 0.59375 0.75
vt 0.90625 0.75
vt 0.90625 0.71875
vt 0.59375 0.84375
vt 0.59375 0.875
vt 0.90625 0.875
vt 0.90625 0.84375
vt 0.59375 0.59375
vt 0.59375 0.625
vt 0.90625 0.625
vt 0.90625 0.59375
vn 0.24253562503632894 0.9701425001453331 0
vn 0 1 0
vn -0.24253562503632894 0.9701425001453331 0
vn 0.7808688094430336 0.6246950475544203 0
vn 1 0 0
vn 0.05547001962252379 -0.9984603532054125 0
vn 0.6401843996644835 -0.7682212795973729 0
vn 0.999042349216381 0.04375367952772429 0
vn 0.6047092401914661 0.7964463163497335 0
vn 0.33633639699815504 0.9417419115948379 0
vn 1 0 0
vn 0 -1 0
vn -1 0 0
vn -0.33633639699815504 0.9417419115948379 0
vn -0.6047092401914661 0.7964463163497335 0
vn -0.999042349216381 0.04375367952772429 0
vn -0.6401843996644835 -0.7682212795973729 0
vn -0.05547001962252379 -0.9984603532054125 0
vn -1 0 0
vn -0.7808688094430336 0.6246950475544203 0
usemtl m_1af61d0e-9b1f-b431-d797-637bcd011865
f 153/425/107 154/426/107 155/427/107 156/428/107
f 157/429/108 153/430/108 156/431/108 158/432/108
f 159/433/109 157/434/109 158/435/109 160/436/109
f 154/437/110 161/438/110 162/439/110 155/440/110
f 161/441/111 163/442/111 164/443/111 162/444/111
f 163/445/112 165/446/112 166/447/112 164/448/112
f 165/449/113 167/450/113 168/451/113 166/452/113
f 167/453/114 169/454/114 170/455/114 168/456/114
f 169/457/115 171/458/115 172/459/115 170/460/115
f 171/461/116 173/462/116 174/463/116 172/464/116
f 173/465/117 175/466/117 176/467/117 174/468/117
f 175/469/118 177/470/118 178/471/118 176/472/118
f 177/473/119 179/474/119 180/475/119 178/476/119
f 179/477/120 181/478/120 182/479/120 180/480/120
f 181/481/121 183/482/121 184/483/121 182/484/121
f 183/485/122 185/486/122 186/487/122 184/488/122
f 185/489/123 187/490/123 188/491/123 186/492/123
f 187/493/124 189/494/124 190/495/124 188/496/124
f 189/497/125 191/498/125 192/499/125 190/500/125
f 191/501/126 159/502/126 160/503/126 192/504/126
o cube
v 1.9375 -0.125 0.3125
v 1.9375 -0.125 -0.3125
v -1.9375 -0.125 0.3125
v -1.9375 -0.125 -0.3125
v 1.78125 0.012500000000000011 -0.3125
v 1.78125 0.012500000000000011 0.3125
v 1.625 -0.3125 0.3125
v 1.625 -0.3125 -0.3125
v -1.78125 0.012500000000000011 0.3125
v -1.78125 0.012500000000000011 -0.3125
v -1.625 -0.3125 -0.3125
v -1.625 -0.3125 0.3125
v 1.9375 0.018749999999999822 -0.3125
v 1.8125 0.018749999999999822 -0.3125
v 1.8125 0.018749999999999822 0.3125
v 1.9375 0.018749999999999822 0.3125
v -1.9375 1.5 0.3125
v -1.8125 1.5 0.3125
v -1.8125 1.5 -0.3125
v -1.9375 1.5 -0.3125
v -1.9375 0 0.3125
v -1.9375 0 -0.3125
v 1.9375 0 0.3125
v 1.9375 0 -0.3125
vt 0.15625 0.724609375
vt 0.15625 0.7890625
vt 0 0.7890625
vt 0 0.724609375
vt 0.15625 0.724609375
vt 0.15625 0.7890625
vt 0 0.7890625
vt 0 0.724609375
vt 0.11838942307692303 0.65625
vt 0 0.65625
vt 0 0.703125
vt 0.11838942307692303 0.703125
vt 0.12424879807692296 0.421875
vt 0 0.421875
vt 0 0.453125
vt 0.12424879807692296 0.453125
vt 0.14963942307692304 0.71875
vt 0 0.71875
vt 0 0.7734375
vt 0.14963942307692304 0.7734375
vt 0.1796875 0.7734375
vt 0.321514423076923 0.7734375
vt 0.321514423076923 0.71875
vt 0.1796875 0.71875
vt 0.203125 0.953125
vt 0.29747596153846156 0.953125
vt 0.29747596153846156 1
vt 0.203125 1
vt 0.2265625 0.4296875
vt 0.18810096153846156 0.4296875
vt 0.18810096153846156 0.453125
vt 0.2265625 0.453125
vt 0.328125 0.71875
vt 0.17810997596153844 0.71875
vt 0.17810997596153844 0.7734375
vt 0.328125 0.7734375
vt 0.171875 0.7578125
vt 0.21033653846153844 0.7578125
vt 0.21033653846153844 0.71875
vt 0.171875 0.71875
vt 0.1796875 1
vt 0.26502403846153855 1
vt 0.26502403846153855 0.9609375
vt 0.1796875 0.9609375
vt 0.3046875 0.71875
vt 0.26622596153846145 0.71875
vt 0.26622596153846145 0.7578125
vt 0.3046875 0.7578125
vt 0.1796875 0.7734375
vt 0.3257962740384616 0.7734375
vt 0.3257962740384616 0.71875
vt 0.1796875 0.71875
vt 0.1484375 0.453125
vt 0.17908653846153855 0.453125
vt 0.17908653846153855 0.4296875
vt 0.1484375 0.4296875
vt 0.234375 1
vt 0.1875 1
vt 0.1875 0.7734375
vt 0.234375 0.7734375
vt 0.14843750000000003 0.9921875
vt 0 0.9921875
vt 0 0.7265625
vt 0.14843750000000003 0.7265625
vt 0.2265625 0.6953125
vt 0.1875 0.6953125
vt 0.1875 0.453125
vt 0.2265625 0.453125
vt 0.1875 0.6953125
vt 0.1484375 0.6953125
vt 0.1484375 0.453125
vt 0.1875 0.453125
vt 0.14843750000000003 0.9921875
vt 0 0.9921875
vt 0 0.7265625
vt 0.14843750000000003 0.7265625
vt 0.2890625 1
vt 0.2421875 1
vt 0.2421875 0.7734375
vt 0.2890625 0.7734375
vt 0.15625 0.99609375
vt 0 0.99609375
vt 0 0.78515625
vt 0.15625 0.78515625
vt 0.15625 1
vt 0 1
vt 0 0.787109375
vt 0.15625 0.787109375
vn 1 0 0
vn -1 0 0
vn 0 1 0
vn 0 -1 0
vn 0 0 1
vn 0 0 -1
vn 0 1 0
vn 0 0 1
vn 0.5144957554275266 -0.8574929257125442 0
vn 0 0 -1
vn 0 1 0
vn 0 0 -1
vn -0.5144957554275266 -0.8574929257125442 0
vn 0 0 1
vn 0 0 -1
vn -0.19611613513817838 0.9805806756909214 0
vn 0 0 1
vn 0 0 1
vn 0.9997793965144279 0.02100376883433672 0
vn 0 0 -1
vn -1 0 0
vn 1 0 0
usemtl m_b9399aca-209c-47d6-e216-ed87d09d4b08
f 194/505/127 216/506/127 215/507/127 193/508/127
f 195/509/128 213/510/128 214/511/128 196/512/128
f 197/513/129 202/514/129 201/515/129 198/516/129
f 199/517/130 204/518/130 203/519/130 200/520/130
f 198/521/131 201/522/131 204/523/131 199/524/131
f 200/525/132 203/526/132 202/527/132 197/528/132
f 205/529/133 206/530/133 207/531/133 208/532/133
f 215/533/134 198/534/134 199/535/134 193/536/134
f 193/537/135 199/538/135 200/539/135 194/540/135
f 194/541/136 200/542/136 197/543/136 216/544/136
f 209/545/137 210/546/137 211/547/137 212/548/137
f 214/549/138 202/550/138 203/551/138 196/552/138
f 196/553/139 203/554/139 204/555/139 195/556/139
f 195/557/140 204/558/140 201/559/140 213/560/140
f 206/561/141 205/562/141 216/563/141 197/564/141
f 207/565/142 206/566/142 197/567/142 198/568/142
f 208/569/143 207/570/143 198/571/143 215/572/143
f 210/573/144 209/574/144 213/575/144 201/576/144
f 211/577/145 210/578/145 201/579/145 202/580/145
f 212/581/146 211/582/146 202/583/146 214/584/146
f 209/585/147 212/586/147 214/587/147 213/588/147
f 205/589/148 208/590/148 215/591/148 216/592/148