# Made in Blockbench 4.9.4
mtllib curved_platform_2.mtl

o cube
v 0.375 0.013125000000000497 0.5
v 0.375 -0.1875 0.5
v 0.375 -0.1875 -0.5
v 0.375 0.013125000000000497 -0.5
v -0.125 0.013125000000000497 -0.5
v -0.625 0.013125000000000497 -0.5
v -0.625 0.013125000000000497 0.5
v -0.125 0.013125000000000497 0.5
v -0.125 -1 0.5
v -0.625 -1 0.5
v -0.625 -1 -0.5
v -0.125 -1 -0.5
v -0.625 -0.375 0.5
v -0.125 -0.1875 0.5
v -0.125 -0.1875 -0.5
v -0.625 -0.375 -0.5
v -1.625 0.013125000000000497 -0.5
v -1.625 -0.375 -0.5
v -1.625 -0.375 0.5
v -1.625 0.013125000000000497 0.5
v -1.625 -1 -0.5
v -1.625 -1 0.5
vt 0.25769230769230766 0.7807692307692307
vt 0.25769230769230766 0.7653846153846153
vt 0.3846153846153847 0.7653846153846153
vt 0.3846153846153847 0.7807692307692307
vt 0.44615384615384623 1
vt 0.3846153846153847 1
vt 0.3846153846153847 0.8769230769230769
vt 0.44615384615384623 0.8769230769230769
vt 0.44615384615384623 0.8653846153846153
vt 0.3846153846153847 0.8653846153846153
vt 0.3846153846153847 0.7423076923076923
vt 0.44615384615384623 0.7423076923076923
vt 0.25769230769230766 0.7884615384615384
vt 0.25769230769230766 0.7423076923076923
vt 0.3192307692307692 0.7423076923076923
vt 0.3192307692307692 0.7884615384615384
vt 0.25769230769230766 0.7884615384615384
vt 0.25769230769230766 0.7423076923076923
vt 0.3192307692307692 0.7423076923076923
vt 0.3192307692307692 0.7884615384615384
vt 0.3846153846153847 0.7884615384615384
vt 0.3846153846153847 0.8653846153846153
vt 0.25769230769230766 0.8653846153846153
vt 0.25769230769230766 0.7884615384615384
vt 0.3192307692307692 0.7884615384615384
vt 0.3192307692307692 0.8653846153846153
vt 0.25769230769230766 0.8653846153846153
vt 0.25769230769230766 0.7884615384615384
vt 0.3192307692307692 0.7884615384615384
vt 0.3192307692307692 0.8653846153846153
vt 0.25769230769230766 0.8653846153846153
vt 0.25769230769230766 0.7884615384615384
vt 0.3846153846153847 0.7423076923076923
vt 0.3846153846153847 0.7884615384615384
vt 0.3192307692307692 0.7884615384615384
vt 0.3192307692307692 0.7423076923076923
vt 0.19615384615384612 0.5923076923076922
vt 0.19615384615384612 0.7192307692307691
vt 0.13461538461538458 0.7192307692307691
vt 0.13461538461538458 0.5923076923076922
vt 0.3192307692307692 0.7884615384615384
vt 0.3192307692307692 0.7423076923076923
vt 0.3846153846153847 0.7423076923076923
vt 0.3846153846153847 0.7884615384615384
vt 0.5076923076923078 0.8769230769230769
vt 0.5076923076923078 1
vt 0.44615384615384623 1
vt 0.44615384615384623 0.8769230769230769
vt 0.25769230769230766 0.7346153846153846
vt 0.25769230769230766 0.6884615384615385
vt 0.3846153846153847 0.6884615384615385
vt 0.3846153846153847 0.7346153846153846
vt 0.25769230769230766 0.7423076923076923
vt 0.3846153846153847 0.7423076923076923
vt 0.3846153846153847 0.8653846153846153
vt 0.25769230769230766 0.8653846153846153
vt 0 1
vt 0 0.9538461538461538
vt 0.12692307692307692 0.9538461538461538
vt 0.12692307692307692 1
vt 0.25769230769230766 0.8769230769230769
vt 0.3846153846153847 0.8769230769230769
vt 0.3846153846153847 1
vt 0.25769230769230766 1
vt 0.12692307692307692 0.8576923076923076
vt 0.12692307692307692 0.8115384615384614
vt 0.25 0.8115384615384614
vt 0.25 0.8576923076923076
vt 0.12692307692307692 0.8730769230769231
vt 0.12692307692307692 0.9538461538461538
vt 0 0.9538461538461538
vt 0 0.8730769230769231
vt 0.3846153846153847 0.6076923076923076
vt 0.3846153846153847 0.6884615384615385
vt 0.25769230769230766 0.6884615384615385
vt 0.25769230769230766 0.6076923076923076
vt 0.25 0.7346153846153846
vt 0.25 0.8115384615384614
vt 0.12692307692307692 0.8115384615384614
vt 0.12692307692307692 0.7346153846153846
vn 1 0 0
vn 0 1 0
vn 0 -1 0
vn 0 0 1
vn 0 0 -1
vn 1 0 0
vn 0 0 1
vn 0 0 -1
vn 0 0 1
vn 0 -1 0
vn 0 0 -1
vn 0 1 0
vn -1 0 0
vn 0 -1 0
vn 0 0 1
vn 0 1 0
vn 0 0 -1
vn 0 0 1
vn -1 0 0
vn 0 0 -1
usemtl m_c010d5bc-eef1-01f4-920a-c73b3ebad19f
f 1/1/1 2/2/1 3/3/1 4/4/1
f 5/5/2 6/6/2 7/7/2 8/8/2
f 9/9/3 10/10/3 11/11/3 12/12/3
f 7/13/4 13/14/4 14/15/4 8/16/4
f 5/17/5 15/18/5 16/19/5 6/20/5
f 12/21/6 15/22/6 14/23/6 9/24/6
f 9/25/7 14/26/7 13/27/7 10/28/7
f 11/29/8 16/30/8 15/31/8 12/32/8
f 2/33/9 1/34/9 8/35/9 14/36/9
f 3/37/10 2/38/10 14/39/10 15/40/10
f 4/41/11 3/42/11 15/43/11 5/44/11
f 1/45/12 4/46/12 5/47/12 8/48/12
f 17/49/13 18/50/13 19/51/13 20/52/13
f 21/53/14 11/54/14 10/55/14 22/56/14
f 20/57/15 19/58/15 13/59/15 7/60/15
f 20/61/16 7/62/16 6/63/16 17/64/16
f 6/65/17 16/66/17 18/67/17 17/68/17
f 10/69/18 13/70/18 19/71/18 22/72/18
f 22/73/19 19/74/19 18/75/19 21/76/19
f 21/77/20 18/78/20 16/79/20 11/80/20