# Made in Blockbench 4.9.3
mtllib drrc_rail.mtl

o cuboid
v 1.125 0 0.125
v 1.125 0 -0.125
v 0 0 0.125
v 0 0 -0.125
v 1.125 0.09375 0.125
v 1.125 0.09375 -0.125
v 0 0.09375 0.125
v 0 0.09375 -0.125
vt 0 0.875
vt 0.5625 0.875
vt 0.5625 1
vt 0 1
vt 0.28125 0.28125
vt 0.15625 0.28125
vt 0.15625 0.21875
vt 0.28125 0.21875
vt 0.5625 0.71875
vt 0.5625 0.84375
vt 0 0.84375
vt 0 0.71875
vt 0.5625 0.6875
vt 0 0.6875
vt 0 0.625
vt 0.5625 0.625
vt 0.5625 0.59375
vt 0 0.59375
vt 0 0.53125
vt 0.5625 0.53125
vn 0 1 0
vn 1 0 0
vn 0 -1 0
vn 0 0 -1
vn 0 0 1
usemtl m_74692fa5-4629-e888-f13f-f390aed0874e
f 7/1/1 5/2/1 6/3/1 8/4/1
f 6/5/2 5/6/2 1/7/2 2/8/2
f 2/9/3 1/10/3 3/11/3 4/12/3
f 8/13/4 6/14/4 2/15/4 4/16/4
f 5/17/5 7/18/5 3/19/5 1/20/5
o rail
v 0.7775000000000001 0.275 -0.3125
v 0.8243750000000001 0.10312500000000002 -0.3125
v 0.73 0.275 -0.3125
v 0.683125 0.10312500000000002 -0.3125
v 0.79 0.265625 -0.3125
v 0.7175 0.265625 -0.3125
v 0.79 0.24062500000000003 -0.3125
v 0.7175 0.24062500000000003 -0.3125
v 0.73625 0.23593750000000002 -0.3125
v 0.7712500000000001 0.23593750000000002 -0.3125
v 0.7315625 0.12890625 -0.3125
v 0.7759375000000001 0.12890625 -0.3125
v 0.72375 0.27343750000000006 -0.3125
v 0.7837500000000001 0.27343750000000006 -0.3125
v 0.7315625 0.23984375000000002 -0.3125
v 0.7759375000000001 0.23984375000000002 -0.3125
v 0.683125 0.09375 -0.3125
v 0.8243750000000001 0.09375 -0.3125
v 0.7104687500000001 0.11289062500000002 -0.3125
v 0.79703125 0.11289062500000002 -0.3125
v 0.72375 0.27343750000000006 0.3125
v 0.73 0.275 0.3125
v 0.7775000000000001 0.275 0.3125
v 0.7837500000000001 0.27343750000000006 0.3125
v 0.7175 0.265625 0.3125
v 0.7175 0.24062500000000003 0.3125
v 0.73625 0.23593750000000002 0.3125
v 0.7315625 0.23984375000000002 0.3125
v 0.7315625 0.12890625 0.3125
v 0.7104687500000001 0.11289062500000002 0.3125
v 0.683125 0.10312500000000002 0.3125
v 0.683125 0.09375 0.3125
v 0.8243750000000001 0.09375 0.3125
v 0.8243750000000001 0.10312500000000002 0.3125
v 0.79703125 0.11289062500000002 0.3125
v 0.7759375000000001 0.12890625 0.3125
v 0.7712500000000001 0.23593750000000002 0.3125
v 0.7759375000000001 0.23984375000000002 0.3125
v 0.79 0.24062500000000003 0.3125
v 0.79 0.265625 0.3125
vt 0.09427968749999996 0.34375
vt 0.09427968749999996 0.03125
vt 0.09749843750000001 0.03125
vt 0.09749843750000001 0.34375
vt 0.09749843750000001 0.34375
vt 0.09749843750000001 0.03125
vt 0.12124843750000006 0.03125
vt 0.12124843750000006 0.34375
vt 0.12124843750000006 0.34375
vt 0.12124843750000006 0.03125
vt 0.12447031250000004 0.03125
vt 0.12447031250000004 0.34375
vt 0.59375 0.65625
vt 0.90625 0.65625
vt 0.90625 0.6875
vt 0.59375 0.6875
vt 0.59375 0.96875
vt 0.90625 0.96875
vt 0.90625 1
vt 0.59375 1
vt 0.59375 0.78125
vt 0.90625 0.78125
vt 0.90625 0.8125
vt 0.59375 0.8125
vt 0.4375 0.375
vt 0.75 0.375
vt 0.75 0.40625
vt 0.4375 0.40625
vt 0.09375 0.4375
vt 0.40625 0.4375
vt 0.40625 0.5
vt 0.09375 0.5
vt 0.5 0.330509375
vt 0.8125 0.330509375
vt 0.8125 0.34375
vt 0.5 0.34375
vt 0.5 0.31599062499999997
vt 0.8125 0.31599062499999997
vt 0.8125 0.330509375
vt 0.5 0.330509375
vt 0.59375 0.90625
vt 0.90625 0.90625
vt 0.90625 0.9375
vt 0.59375 0.9375
vt 0.0625 0.1875
vt 0.0625 0.5
vt 0 0.5
vt 0 0.1875
vt 0.40625 0.40625
vt 0.09375 0.40625
vt 0.09375 0.375
vt 0.40625 0.375
vt 0.46875 0.33050625
vt 0.15625 0.33050625
vt 0.15625 0.3159875
vt 0.46875 0.3159875
vt 0.46875 0.34375
vt 0.15625 0.34375
vt 0.15625 0.33050625
vt 0.46875 0.33050625
vt 0.75 0.5
vt 0.4375 0.5
vt 0.4375 0.4375
vt 0.75 0.4375
vt 0.90625 0.5625
vt 0.59375 0.5625
vt 0.59375 0.53125
vt 0.90625 0.53125
vt 0.90625 0.75
vt 0.59375 0.75
vt 0.59375 0.71875
vt 0.90625 0.71875
vt 0.90625 0.875
vt 0.59375 0.875
vt 0.59375 0.84375
vt 0.90625 0.84375
vt 0.90625 0.625
vt 0.59375 0.625
vt 0.59375 0.59375
vt 0.90625 0.59375
vn -0.24253562503632894 0.9701425001453331 0
vn 0 1 0
vn 0.24253562503632894 0.9701425001453331 0
vn -0.7808688094430336 0.6246950475544203 0
vn -1 0 0
vn -0.05547001962252379 -0.9984603532054125 0
vn -0.6401843996644835 -0.7682212795973729 0
vn -0.999042349216381 0.04375367952772429 0
vn -0.6047092401914661 0.7964463163497335 0
vn -0.33633639699815504 0.9417419115948379 0
vn -1 0 0
vn 0 -1 0
vn 1 0 0
vn 0.33633639699815504 0.9417419115948379 0
vn 0.6047092401914661 0.7964463163497335 0
vn 0.999042349216381 0.04375367952772429 0
vn 0.6401843996644835 -0.7682212795973729 0
vn 0.05547001962252379 -0.9984603532054125 0
vn 1 0 0
vn 0.7808688094430336 0.6246950475544203 0
usemtl m_74692fa5-4629-e888-f13f-f390aed0874e
f 21/21/6 29/22/6 30/23/6 11/24/6
f 11/25/7 30/26/7 31/27/7 9/28/7
f 9/29/8 31/30/8 32/31/8 22/32/8
f 14/33/9 33/34/9 29/35/9 21/36/9
f 16/37/10 34/38/10 33/39/10 14/40/10
f 23/41/11 36/42/11 34/43/11 16/44/11
f 17/45/12 35/46/12 36/47/12 23/48/12
f 19/49/13 37/50/13 35/51/13 17/52/13
f 27/53/14 38/54/14 37/55/14 19/56/14
f 12/57/15 39/58/15 38/59/15 27/60/15
f 25/61/16 40/62/16 39/63/16 12/64/16
f 26/65/17 41/66/17 40/67/17 25/68/17
f 10/69/18 42/70/18 41/71/18 26/72/18
f 28/73/19 43/74/19 42/75/19 10/76/19
f 20/77/20 44/78/20 43/79/20 28/80/20
f 18/81/21 45/82/21 44/83/21 20/84/21
f 24/85/22 46/86/22 45/87/22 18/88/22
f 15/89/23 47/90/23 46/91/23 24/92/23
f 13/93/24 48/94/24 47/95/24 15/96/24
f 22/97/25 32/98/25 48/99/25 13/100/25
o cuboid
v 0.855 0.12366071428571429 0.03125
v 0.855 0.12366071428571429 -0.03125
v 0.855 0.0875 0.03125
v 0.855 0.0875 -0.03125
v 0.7925 0.12366071428571429 0.03125
v 0.7925 0.12366071428571429 -0.03125
v 0.7925 0.0875 0.03125
v 0.7925 0.0875 -0.03125
v 0.839375 0.12366071428571429 0.015624999999999972
v 0.839375 0.12366071428571429 -0.015625
v 0.808125 0.12366071428571429 0.015624999999999972
v 0.808125 0.12366071428571429 -0.015625
v 0.8458470869120794 0.12366071428571429 -3.469446951953614e-17
v 0.82375 0.12366071428571429 -0.02209708691207951
v 0.82375 0.12366071428571429 0.02209708691207954
v 0.8016529130879204 0.12366071428571429 2.7755575615628914e-17
v 0.8458470869120794 0.14375 -3.469446951953614e-17
v 0.82375 0.14375 -0.02209708691207951
v 0.82375 0.14375 0.02209708691207954
v 0.8016529130879204 0.14375 2.7755575615628914e-17
vt 0.34375 0.28125
vt 0.3125 0.28125
vt 0.3125 0.25
vt 0.34375 0.25
vt 0.40625 0.25
vt 0.40625 0.28125
vt 0.375 0.28125
vt 0.375 0.25
vt 0.46875 0.25
vt 0.46875 0.28125
vt 0.4375 0.28125
vt 0.4375 0.25
vt 0.53125 0.28125
vt 0.5 0.28125
vt 0.5 0.25
vt 0.53125 0.25
vt 0.240625 0.16874999999999996
vt 0.228125 0.16874999999999996
vt 0.221875 0.16249999999999998
vt 0.246875 0.16249999999999998
vt 0.240625 0.18125000000000002
vt 0.240625 0.16874999999999996
vt 0.246875 0.16249999999999998
vt 0.246875 0.1875
vt 0.228125 0.18125000000000002
vt 0.240625 0.18125000000000002
vt 0.246875 0.1875
vt 0.221875 0.1875
vt 0.228125 0.16874999999999996
vt 0.228125 0.18125000000000002
vt 0.221875 0.1875
vt 0.221875 0.16249999999999998
vt 0.5625 0.25
vt 0.59375 0.25
vt 0.59375 0.28125
vt 0.5625 0.28125
vt 0.49191875 0.15625
vt 0.47683125 0.15000000000000002
vt 0.48308125 0.14741249999999995
vt 0.48933125 0.15000000000000002
vt 0.35495625 0.15625
vt 0.36120625 0.14116249999999997
vt 0.36379375 0.14741249999999995
vt 0.36120625 0.15366250000000004
vt 0.82058125 0.27241249999999995
vt 0.83566875 0.27866250000000004
vt 0.82941875 0.28125
vt 0.82316875 0.27866250000000004
vt 0.86379375 0.48491249999999997
vt 0.85754375 0.5
vt 0.85495625 0.49375
vt 0.85754375 0.48750000000000004
vt 0.65625 0.28125
vt 0.625 0.28125
vt 0.625 0.25
vt 0.65625 0.25
vt 0.71875 0.28125
vt 0.6875 0.28125
vt 0.6875 0.25
vt 0.71875 0.25
vt 0.78125 0.28125
vt 0.75 0.28125
vt 0.75 0.25
vt 0.78125 0.25
vt 0.34375 0.21875
vt 0.3125 0.21875
vt 0.3125 0.1875
vt 0.34375 0.1875
vn 1 0 0
vn -1 0 0
vn 0 0 1
vn 0 0 -1
vn 0 1 0
vn 0 1 0
vn 0 1 0
vn 0 1 0
vn 0 1 0
vn 0 1 0
vn 0 1 0
vn 0 1 0
vn 0 1 0
vn 0.7071067811865495 0 0.7071067811865457
vn 0.7071067811865483 0 -0.7071067811865468
vn -0.7071067811865478 0 -0.7071067811865474
vn -0.7071067811865478 0 0.7071067811865474
usemtl m_74692fa5-4629-e888-f13f-f390aed0874e
f 50/101/26 49/102/26 51/103/26 52/104/26
f 55/105/27 53/106/27 54/107/27 56/108/27
f 51/109/28 49/110/28 53/111/28 55/112/28
f 54/113/29 50/114/29 52/115/29 56/116/29
f 57/117/30 59/118/30 53/119/30 49/120/30
f 58/121/31 57/122/31 49/123/31 50/124/31
f 60/125/32 58/126/32 50/127/32 54/128/32
f 59/129/33 60/130/33 54/131/33 53/132/33
f 67/133/34 65/134/34 66/135/34 68/136/34
f 61/137/35 59/138/35 63/139/35 57/140/35
f 62/141/36 57/142/36 61/143/36 58/144/36
f 64/145/37 58/146/37 62/147/37 60/148/37
f 63/149/38 60/150/38 64/151/38 59/152/38
f 65/153/39 67/154/39 63/155/39 61/156/39
f 66/157/40 65/158/40 61/159/40 62/160/40
f 68/161/41 66/162/41 62/163/41 64/164/41
f 67/165/42 68/166/42 64/167/42 63/168/42
o cuboid
v 0.714375 0.12366071428571429 0.03125
v 0.714375 0.12366071428571429 -0.03125
v 0.714375 0.0875 0.03125
v 0.714375 0.0875 -0.03125
v 0.651875 0.12366071428571429 0.03125
v 0.651875 0.12366071428571429 -0.03125
v 0.651875 0.0875 0.03125
v 0.651875 0.0875 -0.03125
v 0.69875 0.12366071428571429 0.015624999999999972
v 0.69875 0.12366071428571429 -0.015625
v 0.6675 0.12366071428571429 0.015624999999999972
v 0.6675 0.12366071428571429 -0.015625
v 0.7052220869120794 0.12366071428571429 -3.469446951953614e-17
v 0.683125 0.12366071428571429 -0.02209708691207951
v 0.683125 0.12366071428571429 0.02209708691207954
v 0.6610279130879204 0.12366071428571429 2.7755575615628914e-17
v 0.7052220869120794 0.14375 -3.469446951953614e-17
v 0.683125 0.14375 -0.02209708691207951
v 0.683125 0.14375 0.02209708691207954
v 0.6610279130879204 0.14375 2.7755575615628914e-17
vt 0.34375 0.28125
vt 0.3125 0.28125
vt 0.3125 0.25
vt 0.34375 0.25
vt 0.40625 0.25
vt 0.40625 0.28125
vt 0.375 0.28125
vt 0.375 0.25
vt 0.46875 0.25
vt 0.46875 0.28125
vt 0.4375 0.28125
vt 0.4375 0.25
vt 0.53125 0.28125
vt 0.5 0.28125
vt 0.5 0.25
vt 0.53125 0.25
vt 0.240625 0.16874999999999996
vt 0.228125 0.16874999999999996
vt 0.221875 0.16249999999999998
vt 0.246875 0.16249999999999998
vt 0.240625 0.18125000000000002
vt 0.240625 0.16874999999999996
vt 0.246875 0.16249999999999998
vt 0.246875 0.1875
vt 0.228125 0.18125000000000002
vt 0.240625 0.18125000000000002
vt 0.246875 0.1875
vt 0.221875 0.1875
vt 0.228125 0.16874999999999996
vt 0.228125 0.18125000000000002
vt 0.221875 0.1875
vt 0.221875 0.16249999999999998
vt 0.5625 0.25
vt 0.59375 0.25
vt 0.59375 0.28125
vt 0.5625 0.28125
vt 0.49191875 0.15625
vt 0.47683125 0.15000000000000002
vt 0.48308125 0.14741249999999995
vt 0.48933125 0.15000000000000002
vt 0.35495625 0.15625
vt 0.36120625 0.14116249999999997
vt 0.36379375 0.14741249999999995
vt 0.36120625 0.15366250000000004
vt 0.82058125 0.27241249999999995
vt 0.83566875 0.27866250000000004
vt 0.82941875 0.28125
vt 0.82316875 0.27866250000000004
vt 0.86379375 0.48491249999999997
vt 0.85754375 0.5
vt 0.85495625 0.49375
vt 0.85754375 0.48750000000000004
vt 0.65625 0.28125
vt 0.625 0.28125
vt 0.625 0.25
vt 0.65625 0.25
vt 0.71875 0.28125
vt 0.6875 0.28125
vt 0.6875 0.25
vt 0.71875 0.25
vt 0.78125 0.28125
vt 0.75 0.28125
vt 0.75 0.25
vt 0.78125 0.25
vt 0.34375 0.21875
vt 0.3125 0.21875
vt 0.3125 0.1875
vt 0.34375 0.1875
vn 1 0 0
vn -1 0 0
vn 0 0 1
vn 0 0 -1
vn 0 1 0
vn 0 1 0
vn 0 1 0
vn 0 1 0
vn 0 1 0
vn 0 1 0
vn 0 1 0
vn 0 1 0
vn 0 1 0
vn 0.7071067811865495 0 0.7071067811865457
vn 0.7071067811865483 0 -0.7071067811865468
vn -0.7071067811865478 0 -0.7071067811865474
vn -0.7071067811865478 0 0.7071067811865474
usemtl m_74692fa5-4629-e888-f13f-f390aed0874e
f 70/169/43 69/170/43 71/171/43 72/172/43
f 75/173/44 73/174/44 74/175/44 76/176/44
f 71/177/45 69/178/45 73/179/45 75/180/45
f 74/181/46 70/182/46 72/183/46 76/184/46
f 77/185/47 79/186/47 73/187/47 69/188/47
f 78/189/48 77/190/48 69/191/48 70/192/48
f 80/193/49 78/194/49 70/195/49 74/196/49
f 79/197/50 80/198/50 74/199/50 73/200/50
f 87/201/51 85/202/51 86/203/51 88/204/51
f 81/205/52 79/206/52 83/207/52 77/208/52
f 82/209/53 77/210/53 81/211/53 78/212/53
f 84/213/54 78/214/54 82/215/54 80/216/54
f 83/217/55 80/218/55 84/219/55 79/220/55
f 85/221/56 87/222/56 83/223/56 81/224/56
f 86/225/57 85/226/57 81/227/57 82/228/57
f 88/229/58 86/230/58 82/231/58 84/232/58
f 87/233/59 88/234/59 84/235/59 83/236/59
o cuboid
v -1.125 0 0.125
v -1.125 0 -0.125
v 0 0 0.125
v 0 0 -0.125
v -1.125 0.09375 0.125
v -1.125 0.09375 -0.125
v 0 0.09375 0.125
v 0 0.09375 -0.125
vt 0.5625 1
vt 0.5625 0.875
vt 0 0.875
vt 0 1
vt 0.15625 0.21875
vt 0.15625 0.28125
vt 0.28125 0.28125
vt 0.28125 0.21875
vt 0 0.84375
vt 0.5625 0.84375
vt 0.5625 0.71875
vt 0 0.71875
vt 0 0.625
vt 0 0.6875
vt 0.5625 0.6875
vt 0.5625 0.625
vt 0 0.53125
vt 0 0.59375
vt 0.5625 0.59375
vt 0.5625 0.53125
vn 0 1 0
vn -1 0 0
vn 0 -1 0
vn 0 0 -1
vn 0 0 1
usemtl m_74692fa5-4629-e888-f13f-f390aed0874e
f 94/237/60 93/238/60 95/239/60 96/240/60
f 89/241/61 93/242/61 94/243/61 90/244/61
f 91/245/62 89/246/62 90/247/62 92/248/62
f 90/249/63 94/250/63 96/251/63 92/252/63
f 91/253/64 95/254/64 93/255/64 89/256/64
o rail
v -0.7775000000000001 0.275 -0.3125
v -0.8243750000000001 0.10312500000000002 -0.3125
v -0.73 0.275 -0.3125
v -0.683125 0.10312500000000002 -0.3125
v -0.79 0.265625 -0.3125
v -0.7175 0.265625 -0.3125
v -0.79 0.24062500000000003 -0.3125
v -0.7175 0.24062500000000003 -0.3125
v -0.73625 0.23593750000000002 -0.3125
v -0.7712500000000001 0.23593750000000002 -0.3125
v -0.7315625 0.12890625 -0.3125
v -0.7759375000000001 0.12890625 -0.3125
v -0.72375 0.27343750000000006 -0.3125
v -0.7837500000000001 0.27343750000000006 -0.3125
v -0.7315625 0.23984375000000002 -0.3125
v -0.7759375000000001 0.23984375000000002 -0.3125
v -0.683125 0.09375 -0.3125
v -0.8243750000000001 0.09375 -0.3125
v -0.7104687500000001 0.11289062500000002 -0.3125
v -0.79703125 0.11289062500000002 -0.3125
v -0.72375 0.27343750000000006 0.3125
v -0.73 0.275 0.3125
v -0.7775000000000001 0.275 0.3125
v -0.7837500000000001 0.27343750000000006 0.3125
v -0.7175 0.265625 0.3125
v -0.7175 0.24062500000000003 0.3125
v -0.73625 0.23593750000000002 0.3125
v -0.7315625 0.23984375000000002 0.3125
v -0.7315625 0.12890625 0.3125
v -0.7104687500000001 0.11289062500000002 0.3125
v -0.683125 0.10312500000000002 0.3125
v -0.683125 0.09375 0.3125
v -0.8243750000000001 0.09375 0.3125
v -0.8243750000000001 0.10312500000000002 0.3125
v -0.79703125 0.11289062500000002 0.3125
v -0.7759375000000001 0.12890625 0.3125
v -0.7712500000000001 0.23593750000000002 0.3125
v -0.7759375000000001 0.23984375000000002 0.3125
v -0.79 0.24062500000000003 0.3125
v -0.79 0.265625 0.3125
vt 0.09749843750000001 0.03125
vt 0.09427968749999996 0.03125
vt 0.09427968749999996 0.34375
vt 0.09749843750000001 0.34375
vt 0.12124843750000006 0.03125
vt 0.09749843750000001 0.03125
vt 0.09749843750000001 0.34375
vt 0.12124843750000006 0.34375
vt 0.12447031250000004 0.03125
vt 0.12124843750000006 0.03125
vt 0.12124843750000006 0.34375
vt 0.12447031250000004 0.34375
vt 0.90625 0.6875
vt 0.90625 0.65625
vt 0.59375 0.65625
vt 0.59375 0.6875
vt 0.90625 1
vt 0.90625 0.96875
vt 0.59375 0.96875
vt 0.59375 1
vt 0.90625 0.8125
vt 0.90625 0.78125
vt 0.59375 0.78125
vt 0.59375 0.8125
vt 0.75 0.40625
vt 0.75 0.375
vt 0.4375 0.375
vt 0.4375 0.40625
vt 0.40625 0.5
vt 0.40625 0.4375
vt 0.09375 0.4375
vt 0.09375 0.5
vt 0.8125 0.34375
vt 0.8125 0.330509375
vt 0.5 0.330509375
vt 0.5 0.34375
vt 0.8125 0.330509375
vt 0.8125 0.31599062499999997
vt 0.5 0.31599062499999997
vt 0.5 0.330509375
vt 0.90625 0.9375
vt 0.90625 0.90625
vt 0.59375 0.90625
vt 0.59375 0.9375
vt 0 0.5
vt 0.0625 0.5
vt 0.0625 0.1875
vt 0 0.1875
vt 0.09375 0.375
vt 0.09375 0.40625
vt 0.40625 0.40625
vt 0.40625 0.375
vt 0.15625 0.3159875
vt 0.15625 0.33050625
vt 0.46875 0.33050625
vt 0.46875 0.3159875
vt 0.15625 0.33050625
vt 0.15625 0.34375
vt 0.46875 0.34375
vt 0.46875 0.33050625
vt 0.4375 0.4375
vt 0.4375 0.5
vt 0.75 0.5
vt 0.75 0.4375
vt 0.59375 0.53125
vt 0.59375 0.5625
vt 0.90625 0.5625
vt 0.90625 0.53125
vt 0.59375 0.71875
vt 0.59375 0.75
vt 0.90625 0.75
vt 0.90625 0.71875
vt 0.59375 0.84375
vt 0.59375 0.875
vt 0.90625 0.875
vt 0.90625 0.84375
vt 0.59375 0.59375
vt 0.59375 0.625
vt 0.90625 0.625
vt 0.90625 0.59375
vn 0.24253562503632894 0.9701425001453331 0
vn 0 1 0
vn -0.24253562503632894 0.9701425001453331 0
vn 0.7808688094430336 0.6246950475544203 0
vn 1 0 0
vn 0.05547001962252379 -0.9984603532054125 0
vn 0.6401843996644835 -0.7682212795973729 0
vn 0.999042349216381 0.04375367952772429 0
vn 0.6047092401914661 0.7964463163497335 0
vn 0.33633639699815504 0.9417419115948379 0
vn 1 0 0
vn 0 -1 0
vn -1 0 0
vn -0.33633639699815504 0.9417419115948379 0
vn -0.6047092401914661 0.7964463163497335 0
vn -0.999042349216381 0.04375367952772429 0
vn -0.6401843996644835 -0.7682212795973729 0
vn -0.05547001962252379 -0.9984603532054125 0
vn -1 0 0
vn -0.7808688094430336 0.6246950475544203 0
usemtl m_74692fa5-4629-e888-f13f-f390aed0874e
f 118/257/65 117/258/65 109/259/65 99/260/65
f 119/261/66 118/262/66 99/263/66 97/264/66
f 120/265/67 119/266/67 97/267/67 110/268/67
f 117/269/68 121/270/68 102/271/68 109/272/68
f 121/273/69 122/274/69 104/275/69 102/276/69
f 122/277/70 124/278/70 111/279/70 104/280/70
f 124/281/71 123/282/71 105/283/71 111/284/71
f 123/285/72 125/286/72 107/287/72 105/288/72
f 125/289/73 126/290/73 115/291/73 107/292/73
f 126/293/74 127/294/74 100/295/74 115/296/74
f 127/297/75 128/298/75 113/299/75 100/300/75
f 128/301/76 129/302/76 114/303/76 113/304/76
f 129/305/77 130/306/77 98/307/77 114/308/77
f 130/309/78 131/310/78 116/311/78 98/312/78
f 131/313/79 132/314/79 108/315/79 116/316/79
f 132/317/80 133/318/80 106/319/80 108/320/80
f 133/321/81 134/322/81 112/323/81 106/324/81
f 134/325/82 135/326/82 103/327/82 112/328/82
f 135/329/83 136/330/83 101/331/83 103/332/83
f 136/333/84 120/334/84 110/335/84 101/336/84
o cuboid
v -0.855 0.12366071428571429 0.03125
v -0.855 0.12366071428571429 -0.03125
v -0.855 0.0875 0.03125
v -0.855 0.0875 -0.03125
v -0.7925 0.12366071428571429 0.03125
v -0.7925 0.12366071428571429 -0.03125
v -0.7925 0.0875 0.03125
v -0.7925 0.0875 -0.03125
v -0.839375 0.12366071428571429 0.015624999999999972
v -0.839375 0.12366071428571429 -0.015625
v -0.808125 0.12366071428571429 0.015624999999999972
v -0.808125 0.12366071428571429 -0.015625
v -0.8458470869120794 0.12366071428571429 -3.469446951953614e-17
v -0.82375 0.12366071428571429 -0.02209708691207951
v -0.82375 0.12366071428571429 0.02209708691207954
v -0.8016529130879204 0.12366071428571429 2.7755575615628914e-17
v -0.8458470869120794 0.14375 -3.469446951953614e-17
v -0.82375 0.14375 -0.02209708691207951
v -0.82375 0.14375 0.02209708691207954
v -0.8016529130879204 0.14375 2.7755575615628914e-17
vt 0.3125 0.25
vt 0.3125 0.28125
vt 0.34375 0.28125
vt 0.34375 0.25
vt 0.375 0.28125
vt 0.40625 0.28125
vt 0.40625 0.25
vt 0.375 0.25
vt 0.4375 0.28125
vt 0.46875 0.28125
vt 0.46875 0.25
vt 0.4375 0.25
vt 0.5 0.25
vt 0.5 0.28125
vt 0.53125 0.28125
vt 0.53125 0.25
vt 0.221875 0.16249999999999998
vt 0.228125 0.16874999999999996
vt 0.240625 0.16874999999999996
vt 0.246875 0.16249999999999998
vt 0.246875 0.16249999999999998
vt 0.240625 0.16874999999999996
vt 0.240625 0.18125000000000002
vt 0.246875 0.1875
vt 0.246875 0.1875
vt 0.240625 0.18125000000000002
vt 0.228125 0.18125000000000002
vt 0.221875 0.1875
vt 0.221875 0.1875
vt 0.228125 0.18125000000000002
vt 0.228125 0.16874999999999996
vt 0.221875 0.16249999999999998
vt 0.59375 0.28125
vt 0.59375 0.25
vt 0.5625 0.25
vt 0.5625 0.28125
vt 0.48308125 0.14741249999999995
vt 0.47683125 0.15000000000000002
vt 0.49191875 0.15625
vt 0.48933125 0.15000000000000002
vt 0.36379375 0.14741249999999995
vt 0.36120625 0.14116249999999997
vt 0.35495625 0.15625
vt 0.36120625 0.15366250000000004
vt 0.82941875 0.28125
vt 0.83566875 0.27866250000000004
vt 0.82058125 0.27241249999999995
vt 0.82316875 0.27866250000000004
vt 0.85495625 0.49375
vt 0.85754375 0.5
vt 0.86379375 0.48491249999999997
vt 0.85754375 0.48750000000000004
vt 0.625 0.25
vt 0.625 0.28125
vt 0.65625 0.28125
vt 0.65625 0.25
vt 0.6875 0.25
vt 0.6875 0.28125
vt 0.71875 0.28125
vt 0.71875 0.25
vt 0.75 0.25
vt 0.75 0.28125
vt 0.78125 0.28125
vt 0.78125 0.25
vt 0.3125 0.1875
vt 0.3125 0.21875
vt 0.34375 0.21875
vt 0.34375 0.1875
vn -1 0 0
vn 1 0 0
vn 0 0 1
vn 0 0 -1
vn 0 1 0
vn 0 1 0
vn 0 1 0
vn 0 1 0
vn 0 1 0
vn 0 1 0
vn 0 1 0
vn 0 1 0
vn 0 1 0
vn -0.7071067811865495 0 0.7071067811865457
vn -0.7071067811865483 0 -0.7071067811865468
vn 0.7071067811865478 0 -0.7071067811865474
vn 0.7071067811865478 0 0.7071067811865474
usemtl m_74692fa5-4629-e888-f13f-f390aed0874e
f 139/337/85 137/338/85 138/339/85 140/340/85
f 142/341/86 141/342/86 143/343/86 144/344/86
f 141/345/87 137/346/87 139/347/87 143/348/87
f 140/349/88 138/350/88 142/351/88 144/352/88
f 141/353/89 147/354/89 145/355/89 137/356/89
f 137/357/90 145/358/90 146/359/90 138/360/90
f 138/361/91 146/362/91 148/363/91 142/364/91
f 142/365/92 148/366/92 147/367/92 141/368/92
f 154/369/93 153/370/93 155/371/93 156/372/93
f 151/373/94 147/374/94 149/375/94 145/376/94
f 149/377/95 145/378/95 150/379/95 146/380/95
f 150/381/96 146/382/96 152/383/96 148/384/96
f 152/385/97 148/386/97 151/387/97 147/388/97
f 151/389/98 155/390/98 153/391/98 149/392/98
f 149/393/99 153/394/99 154/395/99 150/396/99
f 150/397/100 154/398/100 156/399/100 152/400/100
f 152/401/101 156/402/101 155/403/101 151/404/101
o cuboid
v -0.714375 0.12366071428571429 0.03125
v -0.714375 0.12366071428571429 -0.03125
v -0.714375 0.0875 0.03125
v -0.714375 0.0875 -0.03125
v -0.651875 0.12366071428571429 0.03125
v -0.651875 0.12366071428571429 -0.03125
v -0.651875 0.0875 0.03125
v -0.651875 0.0875 -0.03125
v -0.69875 0.12366071428571429 0.015624999999999972
v -0.69875 0.12366071428571429 -0.015625
v -0.6675 0.12366071428571429 0.015624999999999972
v -0.6675 0.12366071428571429 -0.015625
v -0.7052220869120794 0.12366071428571429 -3.469446951953614e-17
v -0.683125 0.12366071428571429 -0.02209708691207951
v -0.683125 0.12366071428571429 0.02209708691207954
v -0.6610279130879204 0.12366071428571429 2.7755575615628914e-17
v -0.7052220869120794 0.14375 -3.469446951953614e-17
v -0.683125 0.14375 -0.02209708691207951
v -0.683125 0.14375 0.02209708691207954
v -0.6610279130879204 0.14375 2.7755575615628914e-17
vt 0.3125 0.25
vt 0.3125 0.28125
vt 0.34375 0.28125
vt 0.34375 0.25
vt 0.375 0.28125
vt 0.40625 0.28125
vt 0.40625 0.25
vt 0.375 0.25
vt 0.4375 0.28125
vt 0.46875 0.28125
vt 0.46875 0.25
vt 0.4375 0.25
vt 0.5 0.25
vt 0.5 0.28125
vt 0.53125 0.28125
vt 0.53125 0.25
vt 0.221875 0.16249999999999998
vt 0.228125 0.16874999999999996
vt 0.240625 0.16874999999999996
vt 0.246875 0.16249999999999998
vt 0.246875 0.16249999999999998
vt 0.240625 0.16874999999999996
vt 0.240625 0.18125000000000002
vt 0.246875 0.1875
vt 0.246875 0.1875
vt 0.240625 0.18125000000000002
vt 0.228125 0.18125000000000002
vt 0.221875 0.1875
vt 0.221875 0.1875
vt 0.228125 0.18125000000000002
vt 0.228125 0.16874999999999996
vt 0.221875 0.16249999999999998
vt 0.59375 0.28125
vt 0.59375 0.25
vt 0.5625 0.25
vt 0.5625 0.28125
vt 0.48308125 0.14741249999999995
vt 0.47683125 0.15000000000000002
vt 0.49191875 0.15625
vt 0.48933125 0.15000000000000002
vt 0.36379375 0.14741249999999995
vt 0.36120625 0.14116249999999997
vt 0.35495625 0.15625
vt 0.36120625 0.15366250000000004
vt 0.82941875 0.28125
vt 0.83566875 0.27866250000000004
vt 0.82058125 0.27241249999999995
vt 0.82316875 0.27866250000000004
vt 0.85495625 0.49375
vt 0.85754375 0.5
vt 0.86379375 0.48491249999999997
vt 0.85754375 0.48750000000000004
vt 0.625 0.25
vt 0.625 0.28125
vt 0.65625 0.28125
vt 0.65625 0.25
vt 0.6875 0.25
vt 0.6875 0.28125
vt 0.71875 0.28125
vt 0.71875 0.25
vt 0.75 0.25
vt 0.75 0.28125
vt 0.78125 0.28125
vt 0.78125 0.25
vt 0.3125 0.1875
vt 0.3125 0.21875
vt 0.34375 0.21875
vt 0.34375 0.1875
vn -1 0 0
vn 1 0 0
vn 0 0 1
vn 0 0 -1
vn 0 1 0
vn 0 1 0
vn 0 1 0
vn 0 1 0
vn 0 1 0
vn 0 1 0
vn 0 1 0
vn 0 1 0
vn 0 1 0
vn -0.7071067811865495 0 0.7071067811865457
vn -0.7071067811865483 0 -0.7071067811865468
vn 0.7071067811865478 0 -0.7071067811865474
vn 0.7071067811865478 0 0.7071067811865474
usemtl m_74692fa5-4629-e888-f13f-f390aed0874e
f 159/405/102 157/406/102 158/407/102 160/408/102
f 162/409/103 161/410/103 163/411/103 164/412/103
f 161/413/104 157/414/104 159/415/104 163/416/104
f 160/417/105 158/418/105 162/419/105 164/420/105
f 161/421/106 167/422/106 165/423/106 157/424/106
f 157/425/107 165/426/107 166/427/107 158/428/107
f 158/429/108 166/430/108 168/431/108 162/432/108
f 162/433/109 168/434/109 167/435/109 161/436/109
f 174/437/110 173/438/110 175/439/110 176/440/110
f 171/441/111 167/442/111 169/443/111 165/444/111
f 169/445/112 165/446/112 170/447/112 166/448/112
f 170/449/113 166/450/113 172/451/113 168/452/113
f 172/453/114 168/454/114 171/455/114 167/456/114
f 171/457/115 175/458/115 173/459/115 169/460/115
f 169/461/116 173/462/116 174/463/116 170/464/116
f 170/465/117 174/466/117 176/467/117 172/468/117
f 172/469/118 176/470/118 175/471/118 171/472/118