# Made in Blockbench 4.9.3
mtllib drrc_rail_ballastless_1.mtl

o cuboid
v 0.99875 0.109375 0.3125
v 0.99875 0.109375 -0.3125
v 0.99875 -1 0.3125
v 0.99875 -1 -0.3125
v 0.49875 0.109375 0.3125
v 0.49875 0.109375 -0.3125
v 0.49875 -1 0.3125
v 0.49875 -1 -0.3125
vt 0.15625 1
vt 0 1
vt 0 0.71875
vt 0.15625 0.71875
vt 0.328125 0.71875
vt 0.328125 1
vt 0.171875 1
vt 0.171875 0.71875
vt 0.28125 0.546875
vt 0.40625 0.546875
vt 0.40625 0.703125
vt 0.28125 0.703125
vt 0.125 0.421875
vt 0.125 0.703125
vt 0 0.703125
vt 0 0.421875
vt 0.265625 0.703125
vt 0.140625 0.703125
vt 0.140625 0.421875
vt 0.265625 0.421875
vn 1 0 0
vn -1 0 0
vn 0 1 0
vn 0 0 1
vn 0 0 -1
usemtl m_89a45f25-33aa-1a36-49f7-bb8eb9f0596f
f 2/1/1 1/2/1 3/3/1 4/4/1
f 7/5/2 5/6/2 6/7/2 8/8/2
f 5/9/3 1/10/3 2/11/3 6/12/3
f 3/13/4 1/14/4 5/15/4 7/16/4
f 6/17/5 2/18/5 4/19/5 8/20/5
o cuboid
v 0.5 0.08481917382415921 -3.469446951953614e-18
v 0.5 0.040624999999999994 -0.044194173824159216
v 0.5 0.040624999999999994 0.044194173824159216
v 0.5 -0.003569173824159222 3.469446951953614e-18
v 0 0.08481917382415921 -3.469446951953614e-18
v 0 0.040624999999999994 -0.044194173824159216
v 0 0.040624999999999994 0.044194173824159216
v 0 -0.003569173824159222 3.469446951953614e-18
vt 0.34375 0.984375
vt 0.46875 0.984375
vt 0.46875 1
vt 0.34375 1
vt 0.46875 0.953125
vt 0.46875 0.96875
vt 0.34375 0.96875
vt 0.34375 0.953125
vt 0.46875 0.921875
vt 0.46875 0.9375
vt 0.34375 0.9375
vt 0.34375 0.921875
vt 0.46875 0.90625
vt 0.34375 0.90625
vt 0.34375 0.890625
vt 0.46875 0.890625
vn 0 0.7071067811865475 -0.7071067811865476
vn 0 -0.7071067811865475 0.7071067811865476
vn 0 0.7071067811865476 0.7071067811865475
vn 0 -0.7071067811865476 -0.7071067811865475
usemtl m_89a45f25-33aa-1a36-49f7-bb8eb9f0596f
f 13/21/6 9/22/6 10/23/6 14/24/6
f 12/25/7 11/26/7 15/27/7 16/28/7
f 11/29/8 9/30/8 13/31/8 15/32/8
f 14/33/9 10/34/9 12/35/9 16/36/9
o cuboid
v -0.99875 0.109375 0.3125
v -0.99875 0.109375 -0.3125
v -0.99875 -1 0.3125
v -0.99875 -1 -0.3125
v -0.49875 0.109375 0.3125
v -0.49875 0.109375 -0.3125
v -0.49875 -1 0.3125
v -0.49875 -1 -0.3125
vt 0 0.71875
vt 0 1
vt 0.15625 1
vt 0.15625 0.71875
vt 0.171875 1
vt 0.328125 1
vt 0.328125 0.71875
vt 0.171875 0.71875
vt 0.40625 0.703125
vt 0.40625 0.546875
vt 0.28125 0.546875
vt 0.28125 0.703125
vt 0 0.703125
vt 0.125 0.703125
vt 0.125 0.421875
vt 0 0.421875
vt 0.140625 0.421875
vt 0.140625 0.703125
vt 0.265625 0.703125
vt 0.265625 0.421875
vn -1 0 0
vn 1 0 0
vn 0 1 0
vn 0 0 1
vn 0 0 -1
usemtl m_89a45f25-33aa-1a36-49f7-bb8eb9f0596f
f 19/37/10 17/38/10 18/39/10 20/40/10
f 22/41/11 21/42/11 23/43/11 24/44/11
f 18/45/12 17/46/12 21/47/12 22/48/12
f 21/49/13 17/50/13 19/51/13 23/52/13
f 20/53/14 18/54/14 22/55/14 24/56/14
o cuboid
v -0.5 0.08481917382415921 -3.469446951953614e-18
v -0.5 0.040624999999999994 -0.044194173824159216
v -0.5 0.040624999999999994 0.044194173824159216
v -0.5 -0.003569173824159222 3.469446951953614e-18
v 0 0.08481917382415921 -3.469446951953614e-18
v 0 0.040624999999999994 -0.044194173824159216
v 0 0.040624999999999994 0.044194173824159216
v 0 -0.003569173824159222 3.469446951953614e-18
vt 0.46875 1
vt 0.46875 0.984375
vt 0.34375 0.984375
vt 0.34375 1
vt 0.34375 0.96875
vt 0.46875 0.96875
vt 0.46875 0.953125
vt 0.34375 0.953125
vt 0.34375 0.9375
vt 0.46875 0.9375
vt 0.46875 0.921875
vt 0.34375 0.921875
vt 0.34375 0.890625
vt 0.34375 0.90625
vt 0.46875 0.90625
vt 0.46875 0.890625
vn 0 0.7071067811865475 -0.7071067811865476
vn 0 -0.7071067811865475 0.7071067811865476
vn 0 0.7071067811865476 0.7071067811865475
vn 0 -0.7071067811865476 -0.7071067811865475
usemtl m_89a45f25-33aa-1a36-49f7-bb8eb9f0596f
f 26/57/15 25/58/15 29/59/15 30/60/15
f 31/61/16 27/62/16 28/63/16 32/64/16
f 29/65/17 25/66/17 27/67/17 31/68/17
f 28/69/18 26/70/18 30/71/18 32/72/18
o cuboid
v 0.855 0.12366071428571429 0.03125
v 0.855 0.12366071428571429 -0.03125
v 0.855 0.0875 0.03125
v 0.855 0.0875 -0.03125
v 0.7925 0.12366071428571429 0.03125
v 0.7925 0.12366071428571429 -0.03125
v 0.7925 0.0875 0.03125
v 0.7925 0.0875 -0.03125
v 0.839375 0.12366071428571429 0.015624999999999972
v 0.839375 0.12366071428571429 -0.015625
v 0.808125 0.12366071428571429 0.015624999999999972
v 0.808125 0.12366071428571429 -0.015625
v 0.8458470869120794 0.12366071428571429 -3.469446951953614e-17
v 0.82375 0.12366071428571429 -0.02209708691207951
v 0.82375 0.12366071428571429 0.02209708691207954
v 0.8016529130879204 0.12366071428571429 2.7755575615628914e-17
v 0.8458470869120794 0.14375 -3.469446951953614e-17
v 0.82375 0.14375 -0.02209708691207951
v 0.82375 0.14375 0.02209708691207954
v 0.8016529130879204 0.14375 2.7755575615628914e-17
vt 0.34375 0.28125
vt 0.3125 0.28125
vt 0.3125 0.25
vt 0.34375 0.25
vt 0.40625 0.25
vt 0.40625 0.28125
vt 0.375 0.28125
vt 0.375 0.25
vt 0.46875 0.25
vt 0.46875 0.28125
vt 0.4375 0.28125
vt 0.4375 0.25
vt 0.53125 0.28125
vt 0.5 0.28125
vt 0.5 0.25
vt 0.53125 0.25
vt 0.240625 0.16874999999999996
vt 0.228125 0.16874999999999996
vt 0.221875 0.16249999999999998
vt 0.246875 0.16249999999999998
vt 0.240625 0.18125000000000002
vt 0.240625 0.16874999999999996
vt 0.246875 0.16249999999999998
vt 0.246875 0.1875
vt 0.228125 0.18125000000000002
vt 0.240625 0.18125000000000002
vt 0.246875 0.1875
vt 0.221875 0.1875
vt 0.228125 0.16874999999999996
vt 0.228125 0.18125000000000002
vt 0.221875 0.1875
vt 0.221875 0.16249999999999998
vt 0.5625 0.25
vt 0.59375 0.25
vt 0.59375 0.28125
vt 0.5625 0.28125
vt 0.49191875 0.15625
vt 0.47683125 0.15000000000000002
vt 0.48308125 0.14741249999999995
vt 0.48933125 0.15000000000000002
vt 0.35495625 0.15625
vt 0.36120625 0.14116249999999997
vt 0.36379375 0.14741249999999995
vt 0.36120625 0.15366250000000004
vt 0.82058125 0.27241249999999995
vt 0.83566875 0.27866250000000004
vt 0.82941875 0.28125
vt 0.82316875 0.27866250000000004
vt 0.86379375 0.48491249999999997
vt 0.85754375 0.5
vt 0.85495625 0.49375
vt 0.85754375 0.48750000000000004
vt 0.65625 0.28125
vt 0.625 0.28125
vt 0.625 0.25
vt 0.65625 0.25
vt 0.71875 0.28125
vt 0.6875 0.28125
vt 0.6875 0.25
vt 0.71875 0.25
vt 0.78125 0.28125
vt 0.75 0.28125
vt 0.75 0.25
vt 0.78125 0.25
vt 0.34375 0.21875
vt 0.3125 0.21875
vt 0.3125 0.1875
vt 0.34375 0.1875
vn 1 0 0
vn -1 0 0
vn 0 0 1
vn 0 0 -1
vn 0 1 0
vn 0 1 0
vn 0 1 0
vn 0 1 0
vn 0 1 0
vn 0 1 0
vn 0 1 0
vn 0 1 0
vn 0 1 0
vn 0.7071067811865495 0 0.7071067811865457
vn 0.7071067811865483 0 -0.7071067811865468
vn -0.7071067811865478 0 -0.7071067811865474
vn -0.7071067811865478 0 0.7071067811865474
usemtl m_74692fa5-4629-e888-f13f-f390aed0874e
f 34/73/19 33/74/19 35/75/19 36/76/19
f 39/77/20 37/78/20 38/79/20 40/80/20
f 35/81/21 33/82/21 37/83/21 39/84/21
f 38/85/22 34/86/22 36/87/22 40/88/22
f 41/89/23 43/90/23 37/91/23 33/92/23
f 42/93/24 41/94/24 33/95/24 34/96/24
f 44/97/25 42/98/25 34/99/25 38/100/25
f 43/101/26 44/102/26 38/103/26 37/104/26
f 51/105/27 49/106/27 50/107/27 52/108/27
f 45/109/28 43/110/28 47/111/28 41/112/28
f 46/113/29 41/114/29 45/115/29 42/116/29
f 48/117/30 42/118/30 46/119/30 44/120/30
f 47/121/31 44/122/31 48/123/31 43/124/31
f 49/125/32 51/126/32 47/127/32 45/128/32
f 50/129/33 49/130/33 45/131/33 46/132/33
f 52/133/34 50/134/34 46/135/34 48/136/34
f 51/137/35 52/138/35 48/139/35 47/140/35
o rail
v 0.7775000000000001 0.275 -0.3125
v 0.8243750000000001 0.10312500000000002 -0.3125
v 0.73 0.275 -0.3125
v 0.683125 0.10312500000000002 -0.3125
v 0.79 0.265625 -0.3125
v 0.7175 0.265625 -0.3125
v 0.79 0.24062500000000003 -0.3125
v 0.7175 0.24062500000000003 -0.3125
v 0.73625 0.23593750000000002 -0.3125
v 0.7712500000000001 0.23593750000000002 -0.3125
v 0.7315625 0.12890625 -0.3125
v 0.7759375000000001 0.12890625 -0.3125
v 0.72375 0.27343750000000006 -0.3125
v 0.7837500000000001 0.27343750000000006 -0.3125
v 0.7315625 0.23984375000000002 -0.3125
v 0.7759375000000001 0.23984375000000002 -0.3125
v 0.683125 0.09375 -0.3125
v 0.8243750000000001 0.09375 -0.3125
v 0.7104687500000001 0.11289062500000002 -0.3125
v 0.79703125 0.11289062500000002 -0.3125
v 0.72375 0.27343750000000006 0.3125
v 0.73 0.275 0.3125
v 0.7775000000000001 0.275 0.3125
v 0.7837500000000001 0.27343750000000006 0.3125
v 0.7175 0.265625 0.3125
v 0.7175 0.24062500000000003 0.3125
v 0.73625 0.23593750000000002 0.3125
v 0.7315625 0.23984375000000002 0.3125
v 0.7315625 0.12890625 0.3125
v 0.7104687500000001 0.11289062500000002 0.3125
v 0.683125 0.10312500000000002 0.3125
v 0.683125 0.09375 0.3125
v 0.8243750000000001 0.09375 0.3125
v 0.8243750000000001 0.10312500000000002 0.3125
v 0.79703125 0.11289062500000002 0.3125
v 0.7759375000000001 0.12890625 0.3125
v 0.7712500000000001 0.23593750000000002 0.3125
v 0.7759375000000001 0.23984375000000002 0.3125
v 0.79 0.24062500000000003 0.3125
v 0.79 0.265625 0.3125
vt 0.09427968749999996 0.34375
vt 0.09427968749999996 0.03125
vt 0.09749843750000001 0.03125
vt 0.09749843750000001 0.34375
vt 0.09749843750000001 0.34375
vt 0.09749843750000001 0.03125
vt 0.12124843750000006 0.03125
vt 0.12124843750000006 0.34375
vt 0.12124843750000006 0.34375
vt 0.12124843750000006 0.03125
vt 0.12447031250000004 0.03125
vt 0.12447031250000004 0.34375
vt 0.59375 0.65625
vt 0.90625 0.65625
vt 0.90625 0.6875
vt 0.59375 0.6875
vt 0.59375 0.96875
vt 0.90625 0.96875
vt 0.90625 1
vt 0.59375 1
vt 0.59375 0.78125
vt 0.90625 0.78125
vt 0.90625 0.8125
vt 0.59375 0.8125
vt 0.4375 0.375
vt 0.75 0.375
vt 0.75 0.40625
vt 0.4375 0.40625
vt 0.09375 0.4375
vt 0.40625 0.4375
vt 0.40625 0.5
vt 0.09375 0.5
vt 0.5 0.330509375
vt 0.8125 0.330509375
vt 0.8125 0.34375
vt 0.5 0.34375
vt 0.5 0.31599062499999997
vt 0.8125 0.31599062499999997
vt 0.8125 0.330509375
vt 0.5 0.330509375
vt 0.59375 0.90625
vt 0.90625 0.90625
vt 0.90625 0.9375
vt 0.59375 0.9375
vt 0.0625 0.1875
vt 0.0625 0.5
vt 0 0.5
vt 0 0.1875
vt 0.40625 0.40625
vt 0.09375 0.40625
vt 0.09375 0.375
vt 0.40625 0.375
vt 0.46875 0.33050625
vt 0.15625 0.33050625
vt 0.15625 0.3159875
vt 0.46875 0.3159875
vt 0.46875 0.34375
vt 0.15625 0.34375
vt 0.15625 0.33050625
vt 0.46875 0.33050625
vt 0.75 0.5
vt 0.4375 0.5
vt 0.4375 0.4375
vt 0.75 0.4375
vt 0.90625 0.5625
vt 0.59375 0.5625
vt 0.59375 0.53125
vt 0.90625 0.53125
vt 0.90625 0.75
vt 0.59375 0.75
vt 0.59375 0.71875
vt 0.90625 0.71875
vt 0.90625 0.875
vt 0.59375 0.875
vt 0.59375 0.84375
vt 0.90625 0.84375
vt 0.90625 0.625
vt 0.59375 0.625
vt 0.59375 0.59375
vt 0.90625 0.59375
vn -0.24253562503632894 0.9701425001453331 0
vn 0 1 0
vn 0.24253562503632894 0.9701425001453331 0
vn -0.7808688094430336 0.6246950475544203 0
vn -1 0 0
vn -0.05547001962252379 -0.9984603532054125 0
vn -0.6401843996644835 -0.7682212795973729 0
vn -0.999042349216381 0.04375367952772429 0
vn -0.6047092401914661 0.7964463163497335 0
vn -0.33633639699815504 0.9417419115948379 0
vn -1 0 0
vn 0 -1 0
vn 1 0 0
vn 0.33633639699815504 0.9417419115948379 0
vn 0.6047092401914661 0.7964463163497335 0
vn 0.999042349216381 0.04375367952772429 0
vn 0.6401843996644835 -0.7682212795973729 0
vn 0.05547001962252379 -0.9984603532054125 0
vn 1 0 0
vn 0.7808688094430336 0.6246950475544203 0
usemtl m_74692fa5-4629-e888-f13f-f390aed0874e
f 65/141/36 73/142/36 74/143/36 55/144/36
f 55/145/37 74/146/37 75/147/37 53/148/37
f 53/149/38 75/150/38 76/151/38 66/152/38
f 58/153/39 77/154/39 73/155/39 65/156/39
f 60/157/40 78/158/40 77/159/40 58/160/40
f 67/161/41 80/162/41 78/163/41 60/164/41
f 61/165/42 79/166/42 80/167/42 67/168/42
f 63/169/43 81/170/43 79/171/43 61/172/43
f 71/173/44 82/174/44 81/175/44 63/176/44
f 56/177/45 83/178/45 82/179/45 71/180/45
f 69/181/46 84/182/46 83/183/46 56/184/46
f 70/185/47 85/186/47 84/187/47 69/188/47
f 54/189/48 86/190/48 85/191/48 70/192/48
f 72/193/49 87/194/49 86/195/49 54/196/49
f 64/197/50 88/198/50 87/199/50 72/200/50
f 62/201/51 89/202/51 88/203/51 64/204/51
f 68/205/52 90/206/52 89/207/52 62/208/52
f 59/209/53 91/210/53 90/211/53 68/212/53
f 57/213/54 92/214/54 91/215/54 59/216/54
f 66/217/55 76/218/55 92/219/55 57/220/55
o cuboid
v 0.714375 0.12366071428571429 0.03125
v 0.714375 0.12366071428571429 -0.03125
v 0.714375 0.0875 0.03125
v 0.714375 0.0875 -0.03125
v 0.651875 0.12366071428571429 0.03125
v 0.651875 0.12366071428571429 -0.03125
v 0.651875 0.0875 0.03125
v 0.651875 0.0875 -0.03125
v 0.69875 0.12366071428571429 0.015624999999999972
v 0.69875 0.12366071428571429 -0.015625
v 0.6675 0.12366071428571429 0.015624999999999972
v 0.6675 0.12366071428571429 -0.015625
v 0.7052220869120794 0.12366071428571429 -3.469446951953614e-17
v 0.683125 0.12366071428571429 -0.02209708691207951
v 0.683125 0.12366071428571429 0.02209708691207954
v 0.6610279130879204 0.12366071428571429 2.7755575615628914e-17
v 0.7052220869120794 0.14375 -3.469446951953614e-17
v 0.683125 0.14375 -0.02209708691207951
v 0.683125 0.14375 0.02209708691207954
v 0.6610279130879204 0.14375 2.7755575615628914e-17
vt 0.34375 0.28125
vt 0.3125 0.28125
vt 0.3125 0.25
vt 0.34375 0.25
vt 0.40625 0.25
vt 0.40625 0.28125
vt 0.375 0.28125
vt 0.375 0.25
vt 0.46875 0.25
vt 0.46875 0.28125
vt 0.4375 0.28125
vt 0.4375 0.25
vt 0.53125 0.28125
vt 0.5 0.28125
vt 0.5 0.25
vt 0.53125 0.25
vt 0.240625 0.16874999999999996
vt 0.228125 0.16874999999999996
vt 0.221875 0.16249999999999998
vt 0.246875 0.16249999999999998
vt 0.240625 0.18125000000000002
vt 0.240625 0.16874999999999996
vt 0.246875 0.16249999999999998
vt 0.246875 0.1875
vt 0.228125 0.18125000000000002
vt 0.240625 0.18125000000000002
vt 0.246875 0.1875
vt 0.221875 0.1875
vt 0.228125 0.16874999999999996
vt 0.228125 0.18125000000000002
vt 0.221875 0.1875
vt 0.221875 0.16249999999999998
vt 0.5625 0.25
vt 0.59375 0.25
vt 0.59375 0.28125
vt 0.5625 0.28125
vt 0.49191875 0.15625
vt 0.47683125 0.15000000000000002
vt 0.48308125 0.14741249999999995
vt 0.48933125 0.15000000000000002
vt 0.35495625 0.15625
vt 0.36120625 0.14116249999999997
vt 0.36379375 0.14741249999999995
vt 0.36120625 0.15366250000000004
vt 0.82058125 0.27241249999999995
vt 0.83566875 0.27866250000000004
vt 0.82941875 0.28125
vt 0.82316875 0.27866250000000004
vt 0.86379375 0.48491249999999997
vt 0.85754375 0.5
vt 0.85495625 0.49375
vt 0.85754375 0.48750000000000004
vt 0.65625 0.28125
vt 0.625 0.28125
vt 0.625 0.25
vt 0.65625 0.25
vt 0.71875 0.28125
vt 0.6875 0.28125
vt 0.6875 0.25
vt 0.71875 0.25
vt 0.78125 0.28125
vt 0.75 0.28125
vt 0.75 0.25
vt 0.78125 0.25
vt 0.34375 0.21875
vt 0.3125 0.21875
vt 0.3125 0.1875
vt 0.34375 0.1875
vn 1 0 0
vn -1 0 0
vn 0 0 1
vn 0 0 -1
vn 0 1 0
vn 0 1 0
vn 0 1 0
vn 0 1 0
vn 0 1 0
vn 0 1 0
vn 0 1 0
vn 0 1 0
vn 0 1 0
vn 0.7071067811865495 0 0.7071067811865457
vn 0.7071067811865483 0 -0.7071067811865468
vn -0.7071067811865478 0 -0.7071067811865474
vn -0.7071067811865478 0 0.7071067811865474
usemtl m_74692fa5-4629-e888-f13f-f390aed0874e
f 94/221/56 93/222/56 95/223/56 96/224/56
f 99/225/57 97/226/57 98/227/57 100/228/57
f 95/229/58 93/230/58 97/231/58 99/232/58
f 98/233/59 94/234/59 96/235/59 100/236/59
f 101/237/60 103/238/60 97/239/60 93/240/60
f 102/241/61 101/242/61 93/243/61 94/244/61
f 104/245/62 102/246/62 94/247/62 98/248/62
f 103/249/63 104/250/63 98/251/63 97/252/63
f 111/253/64 109/254/64 110/255/64 112/256/64
f 105/257/65 103/258/65 107/259/65 101/260/65
f 106/261/66 101/262/66 105/263/66 102/264/66
f 108/265/67 102/266/67 106/267/67 104/268/67
f 107/269/68 104/270/68 108/271/68 103/272/68
f 109/273/69 111/274/69 107/275/69 105/276/69
f 110/277/70 109/278/70 105/279/70 106/280/70
f 112/281/71 110/282/71 106/283/71 108/284/71
f 111/285/72 112/286/72 108/287/72 107/288/72
o cuboid
v -0.855 0.12366071428571429 0.03125
v -0.855 0.12366071428571429 -0.03125
v -0.855 0.0875 0.03125
v -0.855 0.0875 -0.03125
v -0.7925 0.12366071428571429 0.03125
v -0.7925 0.12366071428571429 -0.03125
v -0.7925 0.0875 0.03125
v -0.7925 0.0875 -0.03125
v -0.839375 0.12366071428571429 0.015624999999999972
v -0.839375 0.12366071428571429 -0.015625
v -0.808125 0.12366071428571429 0.015624999999999972
v -0.808125 0.12366071428571429 -0.015625
v -0.8458470869120794 0.12366071428571429 -3.469446951953614e-17
v -0.82375 0.12366071428571429 -0.02209708691207951
v -0.82375 0.12366071428571429 0.02209708691207954
v -0.8016529130879204 0.12366071428571429 2.7755575615628914e-17
v -0.8458470869120794 0.14375 -3.469446951953614e-17
v -0.82375 0.14375 -0.02209708691207951
v -0.82375 0.14375 0.02209708691207954
v -0.8016529130879204 0.14375 2.7755575615628914e-17
vt 0.3125 0.25
vt 0.3125 0.28125
vt 0.34375 0.28125
vt 0.34375 0.25
vt 0.375 0.28125
vt 0.40625 0.28125
vt 0.40625 0.25
vt 0.375 0.25
vt 0.4375 0.28125
vt 0.46875 0.28125
vt 0.46875 0.25
vt 0.4375 0.25
vt 0.5 0.25
vt 0.5 0.28125
vt 0.53125 0.28125
vt 0.53125 0.25
vt 0.221875 0.16249999999999998
vt 0.228125 0.16874999999999996
vt 0.240625 0.16874999999999996
vt 0.246875 0.16249999999999998
vt 0.246875 0.16249999999999998
vt 0.240625 0.16874999999999996
vt 0.240625 0.18125000000000002
vt 0.246875 0.1875
vt 0.246875 0.1875
vt 0.240625 0.18125000000000002
vt 0.228125 0.18125000000000002
vt 0.221875 0.1875
vt 0.221875 0.1875
vt 0.228125 0.18125000000000002
vt 0.228125 0.16874999999999996
vt 0.221875 0.16249999999999998
vt 0.59375 0.28125
vt 0.59375 0.25
vt 0.5625 0.25
vt 0.5625 0.28125
vt 0.48308125 0.14741249999999995
vt 0.47683125 0.15000000000000002
vt 0.49191875 0.15625
vt 0.48933125 0.15000000000000002
vt 0.36379375 0.14741249999999995
vt 0.36120625 0.14116249999999997
vt 0.35495625 0.15625
vt 0.36120625 0.15366250000000004
vt 0.82941875 0.28125
vt 0.83566875 0.27866250000000004
vt 0.82058125 0.27241249999999995
vt 0.82316875 0.27866250000000004
vt 0.85495625 0.49375
vt 0.85754375 0.5
vt 0.86379375 0.48491249999999997
vt 0.85754375 0.48750000000000004
vt 0.625 0.25
vt 0.625 0.28125
vt 0.65625 0.28125
vt 0.65625 0.25
vt 0.6875 0.25
vt 0.6875 0.28125
vt 0.71875 0.28125
vt 0.71875 0.25
vt 0.75 0.25
vt 0.75 0.28125
vt 0.78125 0.28125
vt 0.78125 0.25
vt 0.3125 0.1875
vt 0.3125 0.21875
vt 0.34375 0.21875
vt 0.34375 0.1875
vn -1 0 0
vn 1 0 0
vn 0 0 1
vn 0 0 -1
vn 0 1 0
vn 0 1 0
vn 0 1 0
vn 0 1 0
vn 0 1 0
vn 0 1 0
vn 0 1 0
vn 0 1 0
vn 0 1 0
vn -0.7071067811865495 0 0.7071067811865457
vn -0.7071067811865483 0 -0.7071067811865468
vn 0.7071067811865478 0 -0.7071067811865474
vn 0.7071067811865478 0 0.7071067811865474
usemtl m_74692fa5-4629-e888-f13f-f390aed0874e
f 115/289/73 113/290/73 114/291/73 116/292/73
f 118/293/74 117/294/74 119/295/74 120/296/74
f 117/297/75 113/298/75 115/299/75 119/300/75
f 116/301/76 114/302/76 118/303/76 120/304/76
f 117/305/77 123/306/77 121/307/77 113/308/77
f 113/309/78 121/310/78 122/311/78 114/312/78
f 114/313/79 122/314/79 124/315/79 118/316/79
f 118/317/80 124/318/80 123/319/80 117/320/80
f 130/321/81 129/322/81 131/323/81 132/324/81
f 127/325/82 123/326/82 125/327/82 121/328/82
f 125/329/83 121/330/83 126/331/83 122/332/83
f 126/333/84 122/334/84 128/335/84 124/336/84
f 128/337/85 124/338/85 127/339/85 123/340/85
f 127/341/86 131/342/86 129/343/86 125/344/86
f 125/345/87 129/346/87 130/347/87 126/348/87
f 126/349/88 130/350/88 132/351/88 128/352/88
f 128/353/89 132/354/89 131/355/89 127/356/89
o cuboid
v -0.714375 0.12366071428571429 0.03125
v -0.714375 0.12366071428571429 -0.03125
v -0.714375 0.0875 0.03125
v -0.714375 0.0875 -0.03125
v -0.651875 0.12366071428571429 0.03125
v -0.651875 0.12366071428571429 -0.03125
v -0.651875 0.0875 0.03125
v -0.651875 0.0875 -0.03125
v -0.69875 0.12366071428571429 0.015624999999999972
v -0.69875 0.12366071428571429 -0.015625
v -0.6675 0.12366071428571429 0.015624999999999972
v -0.6675 0.12366071428571429 -0.015625
v -0.7052220869120794 0.12366071428571429 -3.469446951953614e-17
v -0.683125 0.12366071428571429 -0.02209708691207951
v -0.683125 0.12366071428571429 0.02209708691207954
v -0.6610279130879204 0.12366071428571429 2.7755575615628914e-17
v -0.7052220869120794 0.14375 -3.469446951953614e-17
v -0.683125 0.14375 -0.02209708691207951
v -0.683125 0.14375 0.02209708691207954
v -0.6610279130879204 0.14375 2.7755575615628914e-17
vt 0.3125 0.25
vt 0.3125 0.28125
vt 0.34375 0.28125
vt 0.34375 0.25
vt 0.375 0.28125
vt 0.40625 0.28125
vt 0.40625 0.25
vt 0.375 0.25
vt 0.4375 0.28125
vt 0.46875 0.28125
vt 0.46875 0.25
vt 0.4375 0.25
vt 0.5 0.25
vt 0.5 0.28125
vt 0.53125 0.28125
vt 0.53125 0.25
vt 0.221875 0.16249999999999998
vt 0.228125 0.16874999999999996
vt 0.240625 0.16874999999999996
vt 0.246875 0.16249999999999998
vt 0.246875 0.16249999999999998
vt 0.240625 0.16874999999999996
vt 0.240625 0.18125000000000002
vt 0.246875 0.1875
vt 0.246875 0.1875
vt 0.240625 0.18125000000000002
vt 0.228125 0.18125000000000002
vt 0.221875 0.1875
vt 0.221875 0.1875
vt 0.228125 0.18125000000000002
vt 0.228125 0.16874999999999996
vt 0.221875 0.16249999999999998
vt 0.59375 0.28125
vt 0.59375 0.25
vt 0.5625 0.25
vt 0.5625 0.28125
vt 0.48308125 0.14741249999999995
vt 0.47683125 0.15000000000000002
vt 0.49191875 0.15625
vt 0.48933125 0.15000000000000002
vt 0.36379375 0.14741249999999995
vt 0.36120625 0.14116249999999997
vt 0.35495625 0.15625
vt 0.36120625 0.15366250000000004
vt 0.82941875 0.28125
vt 0.83566875 0.27866250000000004
vt 0.82058125 0.27241249999999995
vt 0.82316875 0.27866250000000004
vt 0.85495625 0.49375
vt 0.85754375 0.5
vt 0.86379375 0.48491249999999997
vt 0.85754375 0.48750000000000004
vt 0.625 0.25
vt 0.625 0.28125
vt 0.65625 0.28125
vt 0.65625 0.25
vt 0.6875 0.25
vt 0.6875 0.28125
vt 0.71875 0.28125
vt 0.71875 0.25
vt 0.75 0.25
vt 0.75 0.28125
vt 0.78125 0.28125
vt 0.78125 0.25
vt 0.3125 0.1875
vt 0.3125 0.21875
vt 0.34375 0.21875
vt 0.34375 0.1875
vn -1 0 0
vn 1 0 0
vn 0 0 1
vn 0 0 -1
vn 0 1 0
vn 0 1 0
vn 0 1 0
vn 0 1 0
vn 0 1 0
vn 0 1 0
vn 0 1 0
vn 0 1 0
vn 0 1 0
vn -0.7071067811865495 0 0.7071067811865457
vn -0.7071067811865483 0 -0.7071067811865468
vn 0.7071067811865478 0 -0.7071067811865474
vn 0.7071067811865478 0 0.7071067811865474
usemtl m_74692fa5-4629-e888-f13f-f390aed0874e
f 135/357/90 133/358/90 134/359/90 136/360/90
f 138/361/91 137/362/91 139/363/91 140/364/91
f 137/365/92 133/366/92 135/367/92 139/368/92
f 136/369/93 134/370/93 138/371/93 140/372/93
f 137/373/94 143/374/94 141/375/94 133/376/94
f 133/377/95 141/378/95 142/379/95 134/380/95
f 134/381/96 142/382/96 144/383/96 138/384/96
f 138/385/97 144/386/97 143/387/97 137/388/97
f 150/389/98 149/390/98 151/391/98 152/392/98
f 147/393/99 143/394/99 145/395/99 141/396/99
f 145/397/100 141/398/100 146/399/100 142/400/100
f 146/401/101 142/402/101 148/403/101 144/404/101
f 148/405/102 144/406/102 147/407/102 143/408/102
f 147/409/103 151/410/103 149/411/103 145/412/103
f 145/413/104 149/414/104 150/415/104 146/416/104
f 146/417/105 150/418/105 152/419/105 148/420/105
f 148/421/106 152/422/106 151/423/106 147/424/106
o rail
v -0.7775000000000001 0.275 -0.3125
v -0.8243750000000001 0.10312500000000002 -0.3125
v -0.73 0.275 -0.3125
v -0.683125 0.10312500000000002 -0.3125
v -0.79 0.265625 -0.3125
v -0.7175 0.265625 -0.3125
v -0.79 0.24062500000000003 -0.3125
v -0.7175 0.24062500000000003 -0.3125
v -0.73625 0.23593750000000002 -0.3125
v -0.7712500000000001 0.23593750000000002 -0.3125
v -0.7315625 0.12890625 -0.3125
v -0.7759375000000001 0.12890625 -0.3125
v -0.72375 0.27343750000000006 -0.3125
v -0.7837500000000001 0.27343750000000006 -0.3125
v -0.7315625 0.23984375000000002 -0.3125
v -0.7759375000000001 0.23984375000000002 -0.3125
v -0.683125 0.09375 -0.3125
v -0.8243750000000001 0.09375 -0.3125
v -0.7104687500000001 0.11289062500000002 -0.3125
v -0.79703125 0.11289062500000002 -0.3125
v -0.72375 0.27343750000000006 0.3125
v -0.73 0.275 0.3125
v -0.7775000000000001 0.275 0.3125
v -0.7837500000000001 0.27343750000000006 0.3125
v -0.7175 0.265625 0.3125
v -0.7175 0.24062500000000003 0.3125
v -0.73625 0.23593750000000002 0.3125
v -0.7315625 0.23984375000000002 0.3125
v -0.7315625 0.12890625 0.3125
v -0.7104687500000001 0.11289062500000002 0.3125
v -0.683125 0.10312500000000002 0.3125
v -0.683125 0.09375 0.3125
v -0.8243750000000001 0.09375 0.3125
v -0.8243750000000001 0.10312500000000002 0.3125
v -0.79703125 0.11289062500000002 0.3125
v -0.7759375000000001 0.12890625 0.3125
v -0.7712500000000001 0.23593750000000002 0.3125
v -0.7759375000000001 0.23984375000000002 0.3125
v -0.79 0.24062500000000003 0.3125
v -0.79 0.265625 0.3125
vt 0.09749843750000001 0.03125
vt 0.09427968749999996 0.03125
vt 0.09427968749999996 0.34375
vt 0.09749843750000001 0.34375
vt 0.12124843750000006 0.03125
vt 0.09749843750000001 0.03125
vt 0.09749843750000001 0.34375
vt 0.12124843750000006 0.34375
vt 0.12447031250000004 0.03125
vt 0.12124843750000006 0.03125
vt 0.12124843750000006 0.34375
vt 0.12447031250000004 0.34375
vt 0.90625 0.6875
vt 0.90625 0.65625
vt 0.59375 0.65625
vt 0.59375 0.6875
vt 0.90625 1
vt 0.90625 0.96875
vt 0.59375 0.96875
vt 0.59375 1
vt 0.90625 0.8125
vt 0.90625 0.78125
vt 0.59375 0.78125
vt 0.59375 0.8125
vt 0.75 0.40625
vt 0.75 0.375
vt 0.4375 0.375
vt 0.4375 0.40625
vt 0.40625 0.5
vt 0.40625 0.4375
vt 0.09375 0.4375
vt 0.09375 0.5
vt 0.8125 0.34375
vt 0.8125 0.330509375
vt 0.5 0.330509375
vt 0.5 0.34375
vt 0.8125 0.330509375
vt 0.8125 0.31599062499999997
vt 0.5 0.31599062499999997
vt 0.5 0.330509375
vt 0.90625 0.9375
vt 0.90625 0.90625
vt 0.59375 0.90625
vt 0.59375 0.9375
vt 0 0.5
vt 0.0625 0.5
vt 0.0625 0.1875
vt 0 0.1875
vt 0.09375 0.375
vt 0.09375 0.40625
vt 0.40625 0.40625
vt 0.40625 0.375
vt 0.15625 0.3159875
vt 0.15625 0.33050625
vt 0.46875 0.33050625
vt 0.46875 0.3159875
vt 0.15625 0.33050625
vt 0.15625 0.34375
vt 0.46875 0.34375
vt 0.46875 0.33050625
vt 0.4375 0.4375
vt 0.4375 0.5
vt 0.75 0.5
vt 0.75 0.4375
vt 0.59375 0.53125
vt 0.59375 0.5625
vt 0.90625 0.5625
vt 0.90625 0.53125
vt 0.59375 0.71875
vt 0.59375 0.75
vt 0.90625 0.75
vt 0.90625 0.71875
vt 0.59375 0.84375
vt 0.59375 0.875
vt 0.90625 0.875
vt 0.90625 0.84375
vt 0.59375 0.59375
vt 0.59375 0.625
vt 0.90625 0.625
vt 0.90625 0.59375
vn 0.24253562503632894 0.9701425001453331 0
vn 0 1 0
vn -0.24253562503632894 0.9701425001453331 0
vn 0.7808688094430336 0.6246950475544203 0
vn 1 0 0
vn 0.05547001962252379 -0.9984603532054125 0
vn 0.6401843996644835 -0.7682212795973729 0
vn 0.999042349216381 0.04375367952772429 0
vn 0.6047092401914661 0.7964463163497335 0
vn 0.33633639699815504 0.9417419115948379 0
vn 1 0 0
vn 0 -1 0
vn -1 0 0
vn -0.33633639699815504 0.9417419115948379 0
vn -0.6047092401914661 0.7964463163497335 0
vn -0.999042349216381 0.04375367952772429 0
vn -0.6401843996644835 -0.7682212795973729 0
vn -0.05547001962252379 -0.9984603532054125 0
vn -1 0 0
vn -0.7808688094430336 0.6246950475544203 0
usemtl m_74692fa5-4629-e888-f13f-f390aed0874e
f 174/425/107 173/426/107 165/427/107 155/428/107
f 175/429/108 174/430/108 155/431/108 153/432/108
f 176/433/109 175/434/109 153/435/109 166/436/109
f 173/437/110 177/438/110 158/439/110 165/440/110
f 177/441/111 178/442/111 160/443/111 158/444/111
f 178/445/112 180/446/112 167/447/112 160/448/112
f 180/449/113 179/450/113 161/451/113 167/452/113
f 179/453/114 181/454/114 163/455/114 161/456/114
f 181/457/115 182/458/115 171/459/115 163/460/115
f 182/461/116 183/462/116 156/463/116 171/464/116
f 183/465/117 184/466/117 169/467/117 156/468/117
f 184/469/118 185/470/118 170/471/118 169/472/118
f 185/473/119 186/474/119 154/475/119 170/476/119
f 186/477/120 187/478/120 172/479/120 154/480/120
f 187/481/121 188/482/121 164/483/121 172/484/121
f 188/485/122 189/486/122 162/487/122 164/488/122
f 189/489/123 190/490/123 168/491/123 162/492/123
f 190/493/124 191/494/124 159/495/124 168/496/124
f 191/497/125 192/498/125 157/499/125 159/500/125
f 192/501/126 176/502/126 166/503/126 157/504/126