# Made in Blockbench 4.9.3
mtllib drrc_rail_ballastconcrete_sleeper.mtl

o cuboid
v -0.25 0.015625 0.3125
v -0.25 0.015625 -0.3125
v -0.25 -1 0.3125
v -0.25 -1 -0.3125
v 0 0 0.3125
v 0 0 -0.3125
v 0 -1 0.3125
v 0 -1 -0.3125
v -0.625 0.078125 0.3125
v -0.625 -1 0.3125
v -0.625 0.078125 -0.3125
v -0.625 -1 -0.3125
v -1.1875 0.078125 0.3125
v -1.1875 -1 0.3125
v -1.1875 0.078125 -0.3125
v -1.1875 -1 -0.3125
v -1.5 0 0.3125
v -2.5 -1 0.3125
v -1.5 0 -0.3125
v -2.5 -1 -0.3125
v -2.125 -0.375 -0.3125
v -2.125 -0.375 0.3125
v -1.1875 -0.4609375 0.3125
v -0.625 -0.4609375 0.3125
v -0.25 -0.4921875 0.3125
v 0 -0.5 0.3125
v -1.1875 -0.4609375 -0.3125
v -0.625 -0.4609375 -0.3125
v -0.25 -0.4921875 -0.3125
v 0 -0.5 -0.3125
vt 0 0.43893906250000003
vt 0.078125 0.43893906250000003
vt 0.078125 0.53004765625
vt 0 0.53004765625
vt 0.18193320312500005 0.5546875
vt 0.18193320312500005 0.4765625
vt 0.21324414062499997 0.4765625
vt 0.21324414062499997 0.5546875
vt 0.53125 0.6708984375
vt 0.5625 0.669921875
vt 0.5625 0.732421875
vt 0.53125 0.734375
vt 0.3515625 0.9287109375
vt 0.3203125 0.927734375
vt 0.3203125 0.865234375
vt 0.3515625 0.865234375
vt 0.43974570312500005 0.484375
vt 0.39222460937500003 0.484375
vt 0.39222460937500003 0.40625
vt 0.43974570312500005 0.40625
vt 0.484375 0.6748046875
vt 0.53125 0.6708984375
vt 0.53125 0.734375
vt 0.484375 0.7421875
vt 0.3984375 0.9326171875
vt 0.3515625 0.9287109375
vt 0.3515625 0.865234375
vt 0.3984375 0.865234375
vt 0.556287109375 0.4140625
vt 0.48597460937500003 0.4140625
vt 0.48597460937500003 0.3359375
vt 0.556287109375 0.3359375
vt 0.4140625 0.6748046875
vt 0.484375 0.6748046875
vt 0.484375 0.7421875
vt 0.4140625 0.7421875
vt 0.46875 0.9326171875
vt 0.3984375 0.9326171875
vt 0.3984375 0.865234375
vt 0.46875 0.865234375
vt 0.2421875 0.4296875
vt 0.2421875 0.3515625
vt 0.3125 0.3515625
vt 0.3125 0.4296875
vt 0.390625 0.8408203125
vt 0.3203125 0.8408203125
vt 0.3203125 0.7734375
vt 0.390625 0.7734375
vt 0.578125 0.4638671875
vt 0.6484375 0.4638671875
vt 0.6484375 0.53125
vt 0.578125 0.53125
vt 0.0390625 0.65625
vt 0.0390625 0.61598515625
vt 0.1171875 0.61598515625
vt 0.1171875 0.65625
vt 0.296875 0.685546875
vt 0.4140625 0.6748046875
vt 0.4140625 0.7421875
vt 0.375 0.732421875
vt 0.46875 0.9326171875
vt 0.5859375 0.943359375
vt 0.5078125 0.990234375
vt 0.46875 1
vt 0.078125 0.34375
vt 0.15625 0.34375
vt 0.15625 0.3828125
vt 0.078125 0.3828125
vt 0.5078125 0.8515625
vt 0.390625 0.8408203125
vt 0.390625 0.7734375
vt 0.5546875 0.7734375
vt 0.4609375 0.474609375
vt 0.578125 0.4638671875
vt 0.578125 0.53125
vt 0.5390625 0.521484375
vt 0.078125 0.5483140625
vt 0 0.5483140625
vt 0 0.45720546875
vt 0.078125 0.45720546875
vt 0.4140625 0.6748046875
vt 0.296875 0.685546875
vt 0.25 0.607421875
vt 0.4140625 0.607421875
vt 0.484375 0.6748046875
vt 0.4140625 0.6748046875
vt 0.4140625 0.607421875
vt 0.484375 0.607421875
vt 0.53125 0.6708984375
vt 0.484375 0.6748046875
vt 0.484375 0.607421875
vt 0.53125 0.607421875
vt 0.5625 0.669921875
vt 0.53125 0.6708984375
vt 0.53125 0.607421875
vt 0.5625 0.607421875
vt 0.609375 0.9296875
vt 0.6796875 0.9296875
vt 0.6796875 1
vt 0.609375 1
vt 0.5642074648471629 0.78125
vt 0.6818862851528371 0.78125
vt 0.6083663996206371 0.8382718681357134
vt 0.5703584341063053 0.8515625
vt 0.5859375 0.943359375
vt 0.46875 0.9326171875
vt 0.46875 0.865234375
vt 0.6328125 0.865234375
vt 0.5078125 0.5830078125
vt 0.390625 0.59375
vt 0.34375 0.515625
vt 0.5078125 0.515625
vt 0.3984375 0.9326171875
vt 0.46875 0.9326171875
vt 0.46875 1
vt 0.3984375 1
vt 0.3515625 0.9287109375
vt 0.3984375 0.9326171875
vt 0.3984375 1
vt 0.3515625 0.9921875
vt 0.3203125 0.927734375
vt 0.3515625 0.9287109375
vt 0.3515625 0.9921875
vt 0.3203125 0.990234375
vt 0.0703125 0.3828125
vt 0 0.3828125
vt 0 0.3125
vt 0.0703125 0.3125
vn -0.5144957554275266 0.8574929257125442 0
vn 0.06237828615518055 0.9980525784828888 0
vn 0 0 1
vn 0 0 -1
vn 0.1643989873053573 0.9863939238321437 0
vn 0 0 1
vn 0 0 -1
vn 0 1 0
vn 0 0 1
vn 0 0 -1
vn 0 -1 0
vn 0 0 -1
vn 0 0 1
vn -0.24253562503633297 0.9701425001453319 0
vn 0 0 1
vn 0 0 -1
vn 0.24253562503633297 -0.9701425001453319 0
vn 0 0 -1
vn 0 0 1
vn -0.8574929257125442 0.5144957554275266 0
vn 0 0 1
vn 0 0 1
vn 0 0 1
vn 0 0 1
vn 0 0 -1
vn 0 0 -1
vn 0 0 -1
vn 0 0 1
vn 0 0 -1
vn 0 0 -1
vn 0 0 -1
vn 0 0 1
usemtl m_025257a5-600e-e57c-5114-1456ae0a7047
f 21/1/1 22/2/1 17/3/1 19/4/1
f 2/5/2 1/6/2 5/7/2 6/8/2
f 25/9/3 26/10/3 5/11/3 1/12/3
f 29/13/4 30/14/4 8/15/4 4/16/4
f 2/17/5 11/18/5 9/19/5 1/20/5
f 24/21/6 25/22/6 1/23/6 9/24/6
f 28/25/7 29/26/7 4/27/7 12/28/7
f 11/29/8 15/30/8 13/31/8 9/32/8
f 23/33/9 24/34/9 9/35/9 13/36/9
f 27/37/10 28/38/10 12/39/10 16/40/10
f 13/41/11 15/42/11 11/43/11 9/44/11
f 23/45/12 24/46/12 10/47/12 14/48/12
f 27/49/13 28/50/13 11/51/13 15/52/13
f 15/53/14 19/54/14 17/55/14 13/56/14
f 22/57/15 23/58/15 13/59/15 17/60/15
f 27/61/16 21/62/16 19/63/16 15/64/16
f 17/65/17 19/66/17 15/67/17 13/68/17
f 22/69/18 23/70/18 14/71/18 18/72/18
f 21/73/19 27/74/19 15/75/19 19/76/19
f 22/77/20 21/78/20 20/79/20 18/80/20
f 23/81/21 22/82/21 18/83/21 14/84/21
f 24/85/22 23/86/22 14/87/22 10/88/22
f 25/89/23 24/90/23 10/91/23 3/92/23
f 26/93/24 25/94/24 3/95/24 7/96/24
f 24/97/25 23/98/25 13/99/25 9/100/25
f 23/101/26 22/102/26 17/103/26 13/104/26
f 21/105/27 27/106/27 16/107/27 20/108/27
f 27/109/28 21/110/28 20/111/28 16/112/28
f 28/113/29 27/114/29 15/115/29 11/116/29
f 29/117/30 28/118/30 11/119/30 2/120/30
f 30/121/31 29/122/31 2/123/31 6/124/31
f 28/125/32 27/126/32 16/127/32 12/128/32
o cuboid
v 0.25 0.015625 0.3125
v 0.25 0.015625 -0.3125
v 0.25 -1 0.3125
v 0.25 -1 -0.3125
v 0 0 0.3125
v 0 0 -0.3125
v 0 -1 0.3125
v 0 -1 -0.3125
v 0.625 0.078125 0.3125
v 0.625 -1 0.3125
v 0.625 0.078125 -0.3125
v 0.625 -1 -0.3125
v 1.1875 0.078125 0.3125
v 1.1875 -1 0.3125
v 1.1875 0.078125 -0.3125
v 1.1875 -1 -0.3125
v 1.5 0 0.3125
v 2.5 -1 0.3125
v 1.5 0 -0.3125
v 2.5 -1 -0.3125
v 2.125 -0.375 -0.3125
v 2.125 -0.375 0.3125
v 1.1875 -0.4609375 0.3125
v 0.625 -0.4609375 0.3125
v 0.25 -0.4921875 0.3125
v 0 -0.5 0.3125
v 1.1875 -0.4609375 -0.3125
v 0.625 -0.4609375 -0.3125
v 0.25 -0.4921875 -0.3125
v 0 -0.5 -0.3125
vt 0.078125 0.53004765625
vt 0.078125 0.43893906250000003
vt 0 0.43893906250000003
vt 0 0.53004765625
vt 0.21324414062499997 0.4765625
vt 0.18193320312500005 0.4765625
vt 0.18193320312500005 0.5546875
vt 0.21324414062499997 0.5546875
vt 0.5625 0.732421875
vt 0.5625 0.669921875
vt 0.53125 0.6708984375
vt 0.53125 0.734375
vt 0.3203125 0.865234375
vt 0.3203125 0.927734375
vt 0.3515625 0.9287109375
vt 0.3515625 0.865234375
vt 0.39222460937500003 0.40625
vt 0.39222460937500003 0.484375
vt 0.43974570312500005 0.484375
vt 0.43974570312500005 0.40625
vt 0.53125 0.734375
vt 0.53125 0.6708984375
vt 0.484375 0.6748046875
vt 0.484375 0.7421875
vt 0.3515625 0.865234375
vt 0.3515625 0.9287109375
vt 0.3984375 0.9326171875
vt 0.3984375 0.865234375
vt 0.48597460937500003 0.3359375
vt 0.48597460937500003 0.4140625
vt 0.556287109375 0.4140625
vt 0.556287109375 0.3359375
vt 0.484375 0.7421875
vt 0.484375 0.6748046875
vt 0.4140625 0.6748046875
vt 0.4140625 0.7421875
vt 0.3984375 0.865234375
vt 0.3984375 0.9326171875
vt 0.46875 0.9326171875
vt 0.46875 0.865234375
vt 0.3125 0.3515625
vt 0.2421875 0.3515625
vt 0.2421875 0.4296875
vt 0.3125 0.4296875
vt 0.3203125 0.7734375
vt 0.3203125 0.8408203125
vt 0.390625 0.8408203125
vt 0.390625 0.7734375
vt 0.6484375 0.53125
vt 0.6484375 0.4638671875
vt 0.578125 0.4638671875
vt 0.578125 0.53125
vt 0.1171875 0.61598515625
vt 0.0390625 0.61598515625
vt 0.0390625 0.65625
vt 0.1171875 0.65625
vt 0.4140625 0.7421875
vt 0.4140625 0.6748046875
vt 0.296875 0.685546875
vt 0.375 0.732421875
vt 0.5078125 0.990234375
vt 0.5859375 0.943359375
vt 0.46875 0.9326171875
vt 0.46875 1
vt 0.15625 0.3828125
vt 0.15625 0.34375
vt 0.078125 0.34375
vt 0.078125 0.3828125
vt 0.390625 0.7734375
vt 0.390625 0.8408203125
vt 0.5078125 0.8515625
vt 0.5546875 0.7734375
vt 0.578125 0.53125
vt 0.578125 0.4638671875
vt 0.4609375 0.474609375
vt 0.5390625 0.521484375
vt 0 0.45720546875
vt 0 0.5483140625
vt 0.078125 0.5483140625
vt 0.078125 0.45720546875
vt 0.25 0.607421875
vt 0.296875 0.685546875
vt 0.4140625 0.6748046875
vt 0.4140625 0.607421875
vt 0.4140625 0.607421875
vt 0.4140625 0.6748046875
vt 0.484375 0.6748046875
vt 0.484375 0.607421875
vt 0.484375 0.607421875
vt 0.484375 0.6748046875
vt 0.53125 0.6708984375
vt 0.53125 0.607421875
vt 0.53125 0.607421875
vt 0.53125 0.6708984375
vt 0.5625 0.669921875
vt 0.5625 0.607421875
vt 0.6796875 1
vt 0.6796875 0.9296875
vt 0.609375 0.9296875
vt 0.609375 1
vt 0.6083663996206371 0.8382718681357134
vt 0.6818862851528371 0.78125
vt 0.5642074648471629 0.78125
vt 0.5703584341063053 0.8515625
vt 0.46875 0.865234375
vt 0.46875 0.9326171875
vt 0.5859375 0.943359375
vt 0.6328125 0.865234375
vt 0.34375 0.515625
vt 0.390625 0.59375
vt 0.5078125 0.5830078125
vt 0.5078125 0.515625
vt 0.46875 1
vt 0.46875 0.9326171875
vt 0.3984375 0.9326171875
vt 0.3984375 1
vt 0.3984375 1
vt 0.3984375 0.9326171875
vt 0.3515625 0.9287109375
vt 0.3515625 0.9921875
vt 0.3515625 0.9921875
vt 0.3515625 0.9287109375
vt 0.3203125 0.927734375
vt 0.3203125 0.990234375
vt 0 0.3125
vt 0 0.3828125
vt 0.0703125 0.3828125
vt 0.0703125 0.3125
vn 0.5144957554275266 0.8574929257125442 0
vn -0.06237828615518055 0.9980525784828888 0
vn 0 0 1
vn 0 0 -1
vn -0.1643989873053573 0.9863939238321437 0
vn 0 0 1
vn 0 0 -1
vn 0 1 0
vn 0 0 1
vn 0 0 -1
vn 0 -1 0
vn 0 0 -1
vn 0 0 1
vn 0.24253562503633297 0.9701425001453319 0
vn 0 0 1
vn 0 0 -1
vn -0.24253562503633297 -0.9701425001453319 0
vn 0 0 -1
vn 0 0 1
vn 0.8574929257125442 0.5144957554275266 0
vn 0 0 1
vn 0 0 1
vn 0 0 1
vn 0 0 1
vn 0 0 -1
vn 0 0 -1
vn 0 0 -1
vn 0 0 1
vn 0 0 -1
vn 0 0 -1
vn 0 0 -1
vn 0 0 1
usemtl m_025257a5-600e-e57c-5114-1456ae0a7047
f 47/129/33 52/130/33 51/131/33 49/132/33
f 35/133/34 31/134/34 32/135/34 36/136/34
f 35/137/35 56/138/35 55/139/35 31/140/35
f 38/141/36 60/142/36 59/143/36 34/144/36
f 39/145/37 41/146/37 32/147/37 31/148/37
f 31/149/38 55/150/38 54/151/38 39/152/38
f 34/153/39 59/154/39 58/155/39 42/156/39
f 43/157/40 45/158/40 41/159/40 39/160/40
f 39/161/41 54/162/41 53/163/41 43/164/41
f 42/165/42 58/166/42 57/167/42 46/168/42
f 41/169/43 45/170/43 43/171/43 39/172/43
f 40/173/44 54/174/44 53/175/44 44/176/44
f 41/177/45 58/178/45 57/179/45 45/180/45
f 47/181/46 49/182/46 45/183/46 43/184/46
f 43/185/47 53/186/47 52/187/47 47/188/47
f 49/189/48 51/190/48 57/191/48 45/192/48
f 45/193/49 49/194/49 47/195/49 43/196/49
f 44/197/50 53/198/50 52/199/50 48/200/50
f 45/201/51 57/202/51 51/203/51 49/204/51
f 50/205/52 51/206/52 52/207/52 48/208/52
f 48/209/53 52/210/53 53/211/53 44/212/53
f 44/213/54 53/214/54 54/215/54 40/216/54
f 40/217/55 54/218/55 55/219/55 33/220/55
f 33/221/56 55/222/56 56/223/56 37/224/56
f 43/225/57 53/226/57 54/227/57 39/228/57
f 47/229/58 52/230/58 53/231/58 43/232/58
f 46/233/59 57/234/59 51/235/59 50/236/59
f 50/237/60 51/238/60 57/239/60 46/240/60
f 45/241/61 57/242/61 58/243/61 41/244/61
f 41/245/62 58/246/62 59/247/62 32/248/62
f 32/249/63 59/250/63 60/251/63 36/252/63
f 46/253/64 57/254/64 58/255/64 42/256/64
o cuboid
v 1.125 0 0.125
v 1.125 0 -0.125
v 0 0 0.125
v 0 0 -0.125
v 1.125 0.09375 0.125
v 1.125 0.09375 -0.125
v 0 0.09375 0.125
v 0 0.09375 -0.125
vt 0 0.875
vt 0.5625 0.875
vt 0.5625 1
vt 0 1
vt 0.125 0.5
vt 0 0.5
vt 0 0.4375
vt 0.125 0.4375
vt 0.5625 0.71875
vt 0.5625 0.84375
vt 0 0.84375
vt 0 0.71875
vt 0.5625 0.6875
vt 0 0.6875
vt 0 0.625
vt 0.5625 0.625
vt 0.5625 0.59375
vt 0 0.59375
vt 0 0.53125
vt 0.5625 0.53125
vn 0 1 0
vn 1 0 0
vn 0 -1 0
vn 0 0 -1
vn 0 0 1
usemtl m_4bc7055d-7b02-8298-9e8b-3f46f78222f7
f 67/257/65 65/258/65 66/259/65 68/260/65
f 66/261/66 65/262/66 61/263/66 62/264/66
f 62/265/67 61/266/67 63/267/67 64/268/67
f 68/269/68 66/270/68 62/271/68 64/272/68
f 65/273/69 67/274/69 63/275/69 61/276/69
o rail
v 0.7775000000000001 0.275 -0.3125
v 0.8243750000000001 0.10312500000000002 -0.3125
v 0.73 0.275 -0.3125
v 0.683125 0.10312500000000002 -0.3125
v 0.79 0.265625 -0.3125
v 0.7175 0.265625 -0.3125
v 0.79 0.24062500000000003 -0.3125
v 0.7175 0.24062500000000003 -0.3125
v 0.73625 0.23593750000000002 -0.3125
v 0.7712500000000001 0.23593750000000002 -0.3125
v 0.7315625 0.12890625 -0.3125
v 0.7759375000000001 0.12890625 -0.3125
v 0.72375 0.27343750000000006 -0.3125
v 0.7837500000000001 0.27343750000000006 -0.3125
v 0.7315625 0.23984375000000002 -0.3125
v 0.7759375000000001 0.23984375000000002 -0.3125
v 0.683125 0.09375 -0.3125
v 0.8243750000000001 0.09375 -0.3125
v 0.7104687500000001 0.11289062500000002 -0.3125
v 0.79703125 0.11289062500000002 -0.3125
v 0.72375 0.27343750000000006 0.3125
v 0.73 0.275 0.3125
v 0.7775000000000001 0.275 0.3125
v 0.7837500000000001 0.27343750000000006 0.3125
v 0.7175 0.265625 0.3125
v 0.7175 0.24062500000000003 0.3125
v 0.73625 0.23593750000000002 0.3125
v 0.7315625 0.23984375000000002 0.3125
v 0.7315625 0.12890625 0.3125
v 0.7104687500000001 0.11289062500000002 0.3125
v 0.683125 0.10312500000000002 0.3125
v 0.683125 0.09375 0.3125
v 0.8243750000000001 0.09375 0.3125
v 0.8243750000000001 0.10312500000000002 0.3125
v 0.79703125 0.11289062500000002 0.3125
v 0.7759375000000001 0.12890625 0.3125
v 0.7712500000000001 0.23593750000000002 0.3125
v 0.7759375000000001 0.23984375000000002 0.3125
v 0.79 0.24062500000000003 0.3125
v 0.79 0.265625 0.3125
vt 0.09427968749999996 0.34375
vt 0.09427968749999996 0.03125
vt 0.09749843750000001 0.03125
vt 0.09749843750000001 0.34375
vt 0.09749843750000001 0.34375
vt 0.09749843750000001 0.03125
vt 0.12124843750000006 0.03125
vt 0.12124843750000006 0.34375
vt 0.12124843750000006 0.34375
vt 0.12124843750000006 0.03125
vt 0.12447031250000004 0.03125
vt 0.12447031250000004 0.34375
vt 0.59375 0.65625
vt 0.90625 0.65625
vt 0.90625 0.6875
vt 0.59375 0.6875
vt 0.59375 0.96875
vt 0.90625 0.96875
vt 0.90625 1
vt 0.59375 1
vt 0.59375 0.78125
vt 0.90625 0.78125
vt 0.90625 0.8125
vt 0.59375 0.8125
vt 0.4375 0.375
vt 0.75 0.375
vt 0.75 0.40625
vt 0.4375 0.40625
vt 0.09375 0.4375
vt 0.40625 0.4375
vt 0.40625 0.5
vt 0.09375 0.5
vt 0.5 0.330509375
vt 0.8125 0.330509375
vt 0.8125 0.34375
vt 0.5 0.34375
vt 0.5 0.31599062499999997
vt 0.8125 0.31599062499999997
vt 0.8125 0.330509375
vt 0.5 0.330509375
vt 0.59375 0.90625
vt 0.90625 0.90625
vt 0.90625 0.9375
vt 0.59375 0.9375
vt 0.0625 0.1875
vt 0.0625 0.5
vt 0 0.5
vt 0 0.1875
vt 0.40625 0.40625
vt 0.09375 0.40625
vt 0.09375 0.375
vt 0.40625 0.375
vt 0.46875 0.33050625
vt 0.15625 0.33050625
vt 0.15625 0.3159875
vt 0.46875 0.3159875
vt 0.46875 0.34375
vt 0.15625 0.34375
vt 0.15625 0.33050625
vt 0.46875 0.33050625
vt 0.75 0.5
vt 0.4375 0.5
vt 0.4375 0.4375
vt 0.75 0.4375
vt 0.90625 0.5625
vt 0.59375 0.5625
vt 0.59375 0.53125
vt 0.90625 0.53125
vt 0.90625 0.75
vt 0.59375 0.75
vt 0.59375 0.71875
vt 0.90625 0.71875
vt 0.90625 0.875
vt 0.59375 0.875
vt 0.59375 0.84375
vt 0.90625 0.84375
vt 0.90625 0.625
vt 0.59375 0.625
vt 0.59375 0.59375
vt 0.90625 0.59375
vn -0.24253562503632894 0.9701425001453331 0
vn 0 1 0
vn 0.24253562503632894 0.9701425001453331 0
vn -0.7808688094430336 0.6246950475544203 0
vn -1 0 0
vn -0.05547001962252379 -0.9984603532054125 0
vn -0.6401843996644835 -0.7682212795973729 0
vn -0.999042349216381 0.04375367952772429 0
vn -0.6047092401914661 0.7964463163497335 0
vn -0.33633639699815504 0.9417419115948379 0
vn -1 0 0
vn 0 -1 0
vn 1 0 0
vn 0.33633639699815504 0.9417419115948379 0
vn 0.6047092401914661 0.7964463163497335 0
vn 0.999042349216381 0.04375367952772429 0
vn 0.6401843996644835 -0.7682212795973729 0
vn 0.05547001962252379 -0.9984603532054125 0
vn 1 0 0
vn 0.7808688094430336 0.6246950475544203 0
usemtl m_74692fa5-4629-e888-f13f-f390aed0874e
f 81/277/70 89/278/70 90/279/70 71/280/70
f 71/281/71 90/282/71 91/283/71 69/284/71
f 69/285/72 91/286/72 92/287/72 82/288/72
f 74/289/73 93/290/73 89/291/73 81/292/73
f 76/293/74 94/294/74 93/295/74 74/296/74
f 83/297/75 96/298/75 94/299/75 76/300/75
f 77/301/76 95/302/76 96/303/76 83/304/76
f 79/305/77 97/306/77 95/307/77 77/308/77
f 87/309/78 98/310/78 97/311/78 79/312/78
f 72/313/79 99/314/79 98/315/79 87/316/79
f 85/317/80 100/318/80 99/319/80 72/320/80
f 86/321/81 101/322/81 100/323/81 85/324/81
f 70/325/82 102/326/82 101/327/82 86/328/82
f 88/329/83 103/330/83 102/331/83 70/332/83
f 80/333/84 104/334/84 103/335/84 88/336/84
f 78/337/85 105/338/85 104/339/85 80/340/85
f 84/341/86 106/342/86 105/343/86 78/344/86
f 75/345/87 107/346/87 106/347/87 84/348/87
f 73/349/88 108/350/88 107/351/88 75/352/88
f 82/353/89 92/354/89 108/355/89 73/356/89
o cuboid
v 0.855 0.12366071428571429 0.03125
v 0.855 0.12366071428571429 -0.03125
v 0.855 0.0875 0.03125
v 0.855 0.0875 -0.03125
v 0.7925 0.12366071428571429 0.03125
v 0.7925 0.12366071428571429 -0.03125
v 0.7925 0.0875 0.03125
v 0.7925 0.0875 -0.03125
v 0.839375 0.12366071428571429 0.015624999999999972
v 0.839375 0.12366071428571429 -0.015625
v 0.808125 0.12366071428571429 0.015624999999999972
v 0.808125 0.12366071428571429 -0.015625
v 0.8458470869120794 0.12366071428571429 -3.469446951953614e-17
v 0.82375 0.12366071428571429 -0.02209708691207951
v 0.82375 0.12366071428571429 0.02209708691207954
v 0.8016529130879204 0.12366071428571429 2.7755575615628914e-17
v 0.8458470869120794 0.14375 -3.469446951953614e-17
v 0.82375 0.14375 -0.02209708691207951
v 0.82375 0.14375 0.02209708691207954
v 0.8016529130879204 0.14375 2.7755575615628914e-17
vt 0.34375 0.28125
vt 0.3125 0.28125
vt 0.3125 0.25
vt 0.34375 0.25
vt 0.40625 0.25
vt 0.40625 0.28125
vt 0.375 0.28125
vt 0.375 0.25
vt 0.46875 0.25
vt 0.46875 0.28125
vt 0.4375 0.28125
vt 0.4375 0.25
vt 0.53125 0.28125
vt 0.5 0.28125
vt 0.5 0.25
vt 0.53125 0.25
vt 0.240625 0.16874999999999996
vt 0.228125 0.16874999999999996
vt 0.221875 0.16249999999999998
vt 0.246875 0.16249999999999998
vt 0.240625 0.18125000000000002
vt 0.240625 0.16874999999999996
vt 0.246875 0.16249999999999998
vt 0.246875 0.1875
vt 0.228125 0.18125000000000002
vt 0.240625 0.18125000000000002
vt 0.246875 0.1875
vt 0.221875 0.1875
vt 0.228125 0.16874999999999996
vt 0.228125 0.18125000000000002
vt 0.221875 0.1875
vt 0.221875 0.16249999999999998
vt 0.5625 0.25
vt 0.59375 0.25
vt 0.59375 0.28125
vt 0.5625 0.28125
vt 0.49191875 0.15625
vt 0.47683125 0.15000000000000002
vt 0.48308125 0.14741249999999995
vt 0.48933125 0.15000000000000002
vt 0.35495625 0.15625
vt 0.36120625 0.14116249999999997
vt 0.36379375 0.14741249999999995
vt 0.36120625 0.15366250000000004
vt 0.82058125 0.27241249999999995
vt 0.83566875 0.27866250000000004
vt 0.82941875 0.28125
vt 0.82316875 0.27866250000000004
vt 0.86379375 0.48491249999999997
vt 0.85754375 0.5
vt 0.85495625 0.49375
vt 0.85754375 0.48750000000000004
vt 0.65625 0.28125
vt 0.625 0.28125
vt 0.625 0.25
vt 0.65625 0.25
vt 0.71875 0.28125
vt 0.6875 0.28125
vt 0.6875 0.25
vt 0.71875 0.25
vt 0.78125 0.28125
vt 0.75 0.28125
vt 0.75 0.25
vt 0.78125 0.25
vt 0.34375 0.21875
vt 0.3125 0.21875
vt 0.3125 0.1875
vt 0.34375 0.1875
vn 1 0 0
vn -1 0 0
vn 0 0 1
vn 0 0 -1
vn 0 1 0
vn 0 1 0
vn 0 1 0
vn 0 1 0
vn 0 1 0
vn 0 1 0
vn 0 1 0
vn 0 1 0
vn 0 1 0
vn 0.7071067811865495 0 0.7071067811865457
vn 0.7071067811865483 0 -0.7071067811865468
vn -0.7071067811865478 0 -0.7071067811865474
vn -0.7071067811865478 0 0.7071067811865474
usemtl m_74692fa5-4629-e888-f13f-f390aed0874e
f 110/357/90 109/358/90 111/359/90 112/360/90
f 115/361/91 113/362/91 114/363/91 116/364/91
f 111/365/92 109/366/92 113/367/92 115/368/92
f 114/369/93 110/370/93 112/371/93 116/372/93
f 117/373/94 119/374/94 113/375/94 109/376/94
f 118/377/95 117/378/95 109/379/95 110/380/95
f 120/381/96 118/382/96 110/383/96 114/384/96
f 119/385/97 120/386/97 114/387/97 113/388/97
f 127/389/98 125/390/98 126/391/98 128/392/98
f 121/393/99 119/394/99 123/395/99 117/396/99
f 122/397/100 117/398/100 121/399/100 118/400/100
f 124/401/101 118/402/101 122/403/101 120/404/101
f 123/405/102 120/406/102 124/407/102 119/408/102
f 125/409/103 127/410/103 123/411/103 121/412/103
f 126/413/104 125/414/104 121/415/104 122/416/104
f 128/417/105 126/418/105 122/419/105 124/420/105
f 127/421/106 128/422/106 124/423/106 123/424/106
o cuboid
v 0.714375 0.12366071428571429 0.03125
v 0.714375 0.12366071428571429 -0.03125
v 0.714375 0.0875 0.03125
v 0.714375 0.0875 -0.03125
v 0.651875 0.12366071428571429 0.03125
v 0.651875 0.12366071428571429 -0.03125
v 0.651875 0.0875 0.03125
v 0.651875 0.0875 -0.03125
v 0.69875 0.12366071428571429 0.015624999999999972
v 0.69875 0.12366071428571429 -0.015625
v 0.6675 0.12366071428571429 0.015624999999999972
v 0.6675 0.12366071428571429 -0.015625
v 0.7052220869120794 0.12366071428571429 -3.469446951953614e-17
v 0.683125 0.12366071428571429 -0.02209708691207951
v 0.683125 0.12366071428571429 0.02209708691207954
v 0.6610279130879204 0.12366071428571429 2.7755575615628914e-17
v 0.7052220869120794 0.14375 -3.469446951953614e-17
v 0.683125 0.14375 -0.02209708691207951
v 0.683125 0.14375 0.02209708691207954
v 0.6610279130879204 0.14375 2.7755575615628914e-17
vt 0.34375 0.28125
vt 0.3125 0.28125
vt 0.3125 0.25
vt 0.34375 0.25
vt 0.40625 0.25
vt 0.40625 0.28125
vt 0.375 0.28125
vt 0.375 0.25
vt 0.46875 0.25
vt 0.46875 0.28125
vt 0.4375 0.28125
vt 0.4375 0.25
vt 0.53125 0.28125
vt 0.5 0.28125
vt 0.5 0.25
vt 0.53125 0.25
vt 0.240625 0.16874999999999996
vt 0.228125 0.16874999999999996
vt 0.221875 0.16249999999999998
vt 0.246875 0.16249999999999998
vt 0.240625 0.18125000000000002
vt 0.240625 0.16874999999999996
vt 0.246875 0.16249999999999998
vt 0.246875 0.1875
vt 0.228125 0.18125000000000002
vt 0.240625 0.18125000000000002
vt 0.246875 0.1875
vt 0.221875 0.1875
vt 0.228125 0.16874999999999996
vt 0.228125 0.18125000000000002
vt 0.221875 0.1875
vt 0.221875 0.16249999999999998
vt 0.5625 0.25
vt 0.59375 0.25
vt 0.59375 0.28125
vt 0.5625 0.28125
vt 0.49191875 0.15625
vt 0.47683125 0.15000000000000002
vt 0.48308125 0.14741249999999995
vt 0.48933125 0.15000000000000002
vt 0.35495625 0.15625
vt 0.36120625 0.14116249999999997
vt 0.36379375 0.14741249999999995
vt 0.36120625 0.15366250000000004
vt 0.82058125 0.27241249999999995
vt 0.83566875 0.27866250000000004
vt 0.82941875 0.28125
vt 0.82316875 0.27866250000000004
vt 0.86379375 0.48491249999999997
vt 0.85754375 0.5
vt 0.85495625 0.49375
vt 0.85754375 0.48750000000000004
vt 0.65625 0.28125
vt 0.625 0.28125
vt 0.625 0.25
vt 0.65625 0.25
vt 0.71875 0.28125
vt 0.6875 0.28125
vt 0.6875 0.25
vt 0.71875 0.25
vt 0.78125 0.28125
vt 0.75 0.28125
vt 0.75 0.25
vt 0.78125 0.25
vt 0.34375 0.21875
vt 0.3125 0.21875
vt 0.3125 0.1875
vt 0.34375 0.1875
vn 1 0 0
vn -1 0 0
vn 0 0 1
vn 0 0 -1
vn 0 1 0
vn 0 1 0
vn 0 1 0
vn 0 1 0
vn 0 1 0
vn 0 1 0
vn 0 1 0
vn 0 1 0
vn 0 1 0
vn 0.7071067811865495 0 0.7071067811865457
vn 0.7071067811865483 0 -0.7071067811865468
vn -0.7071067811865478 0 -0.7071067811865474
vn -0.7071067811865478 0 0.7071067811865474
usemtl m_74692fa5-4629-e888-f13f-f390aed0874e
f 130/425/107 129/426/107 131/427/107 132/428/107
f 135/429/108 133/430/108 134/431/108 136/432/108
f 131/433/109 129/434/109 133/435/109 135/436/109
f 134/437/110 130/438/110 132/439/110 136/440/110
f 137/441/111 139/442/111 133/443/111 129/444/111
f 138/445/112 137/446/112 129/447/112 130/448/112
f 140/449/113 138/450/113 130/451/113 134/452/113
f 139/453/114 140/454/114 134/455/114 133/456/114
f 147/457/115 145/458/115 146/459/115 148/460/115
f 141/461/116 139/462/116 143/463/116 137/464/116
f 142/465/117 137/466/117 141/467/117 138/468/117
f 144/469/118 138/470/118 142/471/118 140/472/118
f 143/473/119 140/474/119 144/475/119 139/476/119
f 145/477/120 147/478/120 143/479/120 141/480/120
f 146/481/121 145/482/121 141/483/121 142/484/121
f 148/485/122 146/486/122 142/487/122 144/488/122
f 147/489/123 148/490/123 144/491/123 143/492/123
o rail
v -0.7775000000000001 0.275 -0.3125
v -0.8243750000000001 0.10312500000000002 -0.3125
v -0.73 0.275 -0.3125
v -0.683125 0.10312500000000002 -0.3125
v -0.79 0.265625 -0.3125
v -0.7175 0.265625 -0.3125
v -0.79 0.24062500000000003 -0.3125
v -0.7175 0.24062500000000003 -0.3125
v -0.73625 0.23593750000000002 -0.3125
v -0.7712500000000001 0.23593750000000002 -0.3125
v -0.7315625 0.12890625 -0.3125
v -0.7759375000000001 0.12890625 -0.3125
v -0.72375 0.27343750000000006 -0.3125
v -0.7837500000000001 0.27343750000000006 -0.3125
v -0.7315625 0.23984375000000002 -0.3125
v -0.7759375000000001 0.23984375000000002 -0.3125
v -0.683125 0.09375 -0.3125
v -0.8243750000000001 0.09375 -0.3125
v -0.7104687500000001 0.11289062500000002 -0.3125
v -0.79703125 0.11289062500000002 -0.3125
v -0.72375 0.27343750000000006 0.3125
v -0.73 0.275 0.3125
v -0.7775000000000001 0.275 0.3125
v -0.7837500000000001 0.27343750000000006 0.3125
v -0.7175 0.265625 0.3125
v -0.7175 0.24062500000000003 0.3125
v -0.73625 0.23593750000000002 0.3125
v -0.7315625 0.23984375000000002 0.3125
v -0.7315625 0.12890625 0.3125
v -0.7104687500000001 0.11289062500000002 0.3125
v -0.683125 0.10312500000000002 0.3125
v -0.683125 0.09375 0.3125
v -0.8243750000000001 0.09375 0.3125
v -0.8243750000000001 0.10312500000000002 0.3125
v -0.79703125 0.11289062500000002 0.3125
v -0.7759375000000001 0.12890625 0.3125
v -0.7712500000000001 0.23593750000000002 0.3125
v -0.7759375000000001 0.23984375000000002 0.3125
v -0.79 0.24062500000000003 0.3125
v -0.79 0.265625 0.3125
vt 0.09749843750000001 0.03125
vt 0.09427968749999996 0.03125
vt 0.09427968749999996 0.34375
vt 0.09749843750000001 0.34375
vt 0.12124843750000006 0.03125
vt 0.09749843750000001 0.03125
vt 0.09749843750000001 0.34375
vt 0.12124843750000006 0.34375
vt 0.12447031250000004 0.03125
vt 0.12124843750000006 0.03125
vt 0.12124843750000006 0.34375
vt 0.12447031250000004 0.34375
vt 0.90625 0.6875
vt 0.90625 0.65625
vt 0.59375 0.65625
vt 0.59375 0.6875
vt 0.90625 1
vt 0.90625 0.96875
vt 0.59375 0.96875
vt 0.59375 1
vt 0.90625 0.8125
vt 0.90625 0.78125
vt 0.59375 0.78125
vt 0.59375 0.8125
vt 0.75 0.40625
vt 0.75 0.375
vt 0.4375 0.375
vt 0.4375 0.40625
vt 0.40625 0.5
vt 0.40625 0.4375
vt 0.09375 0.4375
vt 0.09375 0.5
vt 0.8125 0.34375
vt 0.8125 0.330509375
vt 0.5 0.330509375
vt 0.5 0.34375
vt 0.8125 0.330509375
vt 0.8125 0.31599062499999997
vt 0.5 0.31599062499999997
vt 0.5 0.330509375
vt 0.90625 0.9375
vt 0.90625 0.90625
vt 0.59375 0.90625
vt 0.59375 0.9375
vt 0 0.5
vt 0.0625 0.5
vt 0.0625 0.1875
vt 0 0.1875
vt 0.09375 0.375
vt 0.09375 0.40625
vt 0.40625 0.40625
vt 0.40625 0.375
vt 0.15625 0.3159875
vt 0.15625 0.33050625
vt 0.46875 0.33050625
vt 0.46875 0.3159875
vt 0.15625 0.33050625
vt 0.15625 0.34375
vt 0.46875 0.34375
vt 0.46875 0.33050625
vt 0.4375 0.4375
vt 0.4375 0.5
vt 0.75 0.5
vt 0.75 0.4375
vt 0.59375 0.53125
vt 0.59375 0.5625
vt 0.90625 0.5625
vt 0.90625 0.53125
vt 0.59375 0.71875
vt 0.59375 0.75
vt 0.90625 0.75
vt 0.90625 0.71875
vt 0.59375 0.84375
vt 0.59375 0.875
vt 0.90625 0.875
vt 0.90625 0.84375
vt 0.59375 0.59375
vt 0.59375 0.625
vt 0.90625 0.625
vt 0.90625 0.59375
vn 0.24253562503632894 0.9701425001453331 0
vn 0 1 0
vn -0.24253562503632894 0.9701425001453331 0
vn 0.7808688094430336 0.6246950475544203 0
vn 1 0 0
vn 0.05547001962252379 -0.9984603532054125 0
vn 0.6401843996644835 -0.7682212795973729 0
vn 0.999042349216381 0.04375367952772429 0
vn 0.6047092401914661 0.7964463163497335 0
vn 0.33633639699815504 0.9417419115948379 0
vn 1 0 0
vn 0 -1 0
vn -1 0 0
vn -0.33633639699815504 0.9417419115948379 0
vn -0.6047092401914661 0.7964463163497335 0
vn -0.999042349216381 0.04375367952772429 0
vn -0.6401843996644835 -0.7682212795973729 0
vn -0.05547001962252379 -0.9984603532054125 0
vn -1 0 0
vn -0.7808688094430336 0.6246950475544203 0
usemtl m_74692fa5-4629-e888-f13f-f390aed0874e
f 170/493/124 169/494/124 161/495/124 151/496/124
f 171/497/125 170/498/125 151/499/125 149/500/125
f 172/501/126 171/502/126 149/503/126 162/504/126
f 169/505/127 173/506/127 154/507/127 161/508/127
f 173/509/128 174/510/128 156/511/128 154/512/128
f 174/513/129 176/514/129 163/515/129 156/516/129
f 176/517/130 175/518/130 157/519/130 163/520/130
f 175/521/131 177/522/131 159/523/131 157/524/131
f 177/525/132 178/526/132 167/527/132 159/528/132
f 178/529/133 179/530/133 152/531/133 167/532/133
f 179/533/134 180/534/134 165/535/134 152/536/134
f 180/537/135 181/538/135 166/539/135 165/540/135
f 181/541/136 182/542/136 150/543/136 166/544/136
f 182/545/137 183/546/137 168/547/137 150/548/137
f 183/549/138 184/550/138 160/551/138 168/552/138
f 184/553/139 185/554/139 158/555/139 160/556/139
f 185/557/140 186/558/140 164/559/140 158/560/140
f 186/561/141 187/562/141 155/563/141 164/564/141
f 187/565/142 188/566/142 153/567/142 155/568/142
f 188/569/143 172/570/143 162/571/143 153/572/143
o cuboid
v -0.855 0.12366071428571429 0.03125
v -0.855 0.12366071428571429 -0.03125
v -0.855 0.0875 0.03125
v -0.855 0.0875 -0.03125
v -0.7925 0.12366071428571429 0.03125
v -0.7925 0.12366071428571429 -0.03125
v -0.7925 0.0875 0.03125
v -0.7925 0.0875 -0.03125
v -0.839375 0.12366071428571429 0.015624999999999972
v -0.839375 0.12366071428571429 -0.015625
v -0.808125 0.12366071428571429 0.015624999999999972
v -0.808125 0.12366071428571429 -0.015625
v -0.8458470869120794 0.12366071428571429 -3.469446951953614e-17
v -0.82375 0.12366071428571429 -0.02209708691207951
v -0.82375 0.12366071428571429 0.02209708691207954
v -0.8016529130879204 0.12366071428571429 2.7755575615628914e-17
v -0.8458470869120794 0.14375 -3.469446951953614e-17
v -0.82375 0.14375 -0.02209708691207951
v -0.82375 0.14375 0.02209708691207954
v -0.8016529130879204 0.14375 2.7755575615628914e-17
vt 0.3125 0.25
vt 0.3125 0.28125
vt 0.34375 0.28125
vt 0.34375 0.25
vt 0.375 0.28125
vt 0.40625 0.28125
vt 0.40625 0.25
vt 0.375 0.25
vt 0.4375 0.28125
vt 0.46875 0.28125
vt 0.46875 0.25
vt 0.4375 0.25
vt 0.5 0.25
vt 0.5 0.28125
vt 0.53125 0.28125
vt 0.53125 0.25
vt 0.221875 0.16249999999999998
vt 0.228125 0.16874999999999996
vt 0.240625 0.16874999999999996
vt 0.246875 0.16249999999999998
vt 0.246875 0.16249999999999998
vt 0.240625 0.16874999999999996
vt 0.240625 0.18125000000000002
vt 0.246875 0.1875
vt 0.246875 0.1875
vt 0.240625 0.18125000000000002
vt 0.228125 0.18125000000000002
vt 0.221875 0.1875
vt 0.221875 0.1875
vt 0.228125 0.18125000000000002
vt 0.228125 0.16874999999999996
vt 0.221875 0.16249999999999998
vt 0.59375 0.28125
vt 0.59375 0.25
vt 0.5625 0.25
vt 0.5625 0.28125
vt 0.48308125 0.14741249999999995
vt 0.47683125 0.15000000000000002
vt 0.49191875 0.15625
vt 0.48933125 0.15000000000000002
vt 0.36379375 0.14741249999999995
vt 0.36120625 0.14116249999999997
vt 0.35495625 0.15625
vt 0.36120625 0.15366250000000004
vt 0.82941875 0.28125
vt 0.83566875 0.27866250000000004
vt 0.82058125 0.27241249999999995
vt 0.82316875 0.27866250000000004
vt 0.85495625 0.49375
vt 0.85754375 0.5
vt 0.86379375 0.48491249999999997
vt 0.85754375 0.48750000000000004
vt 0.625 0.25
vt 0.625 0.28125
vt 0.65625 0.28125
vt 0.65625 0.25
vt 0.6875 0.25
vt 0.6875 0.28125
vt 0.71875 0.28125
vt 0.71875 0.25
vt 0.75 0.25
vt 0.75 0.28125
vt 0.78125 0.28125
vt 0.78125 0.25
vt 0.3125 0.1875
vt 0.3125 0.21875
vt 0.34375 0.21875
vt 0.34375 0.1875
vn -1 0 0
vn 1 0 0
vn 0 0 1
vn 0 0 -1
vn 0 1 0
vn 0 1 0
vn 0 1 0
vn 0 1 0
vn 0 1 0
vn 0 1 0
vn 0 1 0
vn 0 1 0
vn 0 1 0
vn -0.7071067811865495 0 0.7071067811865457
vn -0.7071067811865483 0 -0.7071067811865468
vn 0.7071067811865478 0 -0.7071067811865474
vn 0.7071067811865478 0 0.7071067811865474
usemtl m_74692fa5-4629-e888-f13f-f390aed0874e
f 191/573/144 189/574/144 190/575/144 192/576/144
f 194/577/145 193/578/145 195/579/145 196/580/145
f 193/581/146 189/582/146 191/583/146 195/584/146
f 192/585/147 190/586/147 194/587/147 196/588/147
f 193/589/148 199/590/148 197/591/148 189/592/148
f 189/593/149 197/594/149 198/595/149 190/596/149
f 190/597/150 198/598/150 200/599/150 194/600/150
f 194/601/151 200/602/151 199/603/151 193/604/151
f 206/605/152 205/606/152 207/607/152 208/608/152
f 203/609/153 199/610/153 201/611/153 197/612/153
f 201/613/154 197/614/154 202/615/154 198/616/154
f 202/617/155 198/618/155 204/619/155 200/620/155
f 204/621/156 200/622/156 203/623/156 199/624/156
f 203/625/157 207/626/157 205/627/157 201/628/157
f 201/629/158 205/630/158 206/631/158 202/632/158
f 202/633/159 206/634/159 208/635/159 204/636/159
f 204/637/160 208/638/160 207/639/160 203/640/160
o cuboid
v -0.714375 0.12366071428571429 0.03125
v -0.714375 0.12366071428571429 -0.03125
v -0.714375 0.0875 0.03125
v -0.714375 0.0875 -0.03125
v -0.651875 0.12366071428571429 0.03125
v -0.651875 0.12366071428571429 -0.03125
v -0.651875 0.0875 0.03125
v -0.651875 0.0875 -0.03125
v -0.69875 0.12366071428571429 0.015624999999999972
v -0.69875 0.12366071428571429 -0.015625
v -0.6675 0.12366071428571429 0.015624999999999972
v -0.6675 0.12366071428571429 -0.015625
v -0.7052220869120794 0.12366071428571429 -3.469446951953614e-17
v -0.683125 0.12366071428571429 -0.02209708691207951
v -0.683125 0.12366071428571429 0.02209708691207954
v -0.6610279130879204 0.12366071428571429 2.7755575615628914e-17
v -0.7052220869120794 0.14375 -3.469446951953614e-17
v -0.683125 0.14375 -0.02209708691207951
v -0.683125 0.14375 0.02209708691207954
v -0.6610279130879204 0.14375 2.7755575615628914e-17
vt 0.3125 0.25
vt 0.3125 0.28125
vt 0.34375 0.28125
vt 0.34375 0.25
vt 0.375 0.28125
vt 0.40625 0.28125
vt 0.40625 0.25
vt 0.375 0.25
vt 0.4375 0.28125
vt 0.46875 0.28125
vt 0.46875 0.25
vt 0.4375 0.25
vt 0.5 0.25
vt 0.5 0.28125
vt 0.53125 0.28125
vt 0.53125 0.25
vt 0.221875 0.16249999999999998
vt 0.228125 0.16874999999999996
vt 0.240625 0.16874999999999996
vt 0.246875 0.16249999999999998
vt 0.246875 0.16249999999999998
vt 0.240625 0.16874999999999996
vt 0.240625 0.18125000000000002
vt 0.246875 0.1875
vt 0.246875 0.1875
vt 0.240625 0.18125000000000002
vt 0.228125 0.18125000000000002
vt 0.221875 0.1875
vt 0.221875 0.1875
vt 0.228125 0.18125000000000002
vt 0.228125 0.16874999999999996
vt 0.221875 0.16249999999999998
vt 0.59375 0.28125
vt 0.59375 0.25
vt 0.5625 0.25
vt 0.5625 0.28125
vt 0.48308125 0.14741249999999995
vt 0.47683125 0.15000000000000002
vt 0.49191875 0.15625
vt 0.48933125 0.15000000000000002
vt 0.36379375 0.14741249999999995
vt 0.36120625 0.14116249999999997
vt 0.35495625 0.15625
vt 0.36120625 0.15366250000000004
vt 0.82941875 0.28125
vt 0.83566875 0.27866250000000004
vt 0.82058125 0.27241249999999995
vt 0.82316875 0.27866250000000004
vt 0.85495625 0.49375
vt 0.85754375 0.5
vt 0.86379375 0.48491249999999997
vt 0.85754375 0.48750000000000004
vt 0.625 0.25
vt 0.625 0.28125
vt 0.65625 0.28125
vt 0.65625 0.25
vt 0.6875 0.25
vt 0.6875 0.28125
vt 0.71875 0.28125
vt 0.71875 0.25
vt 0.75 0.25
vt 0.75 0.28125
vt 0.78125 0.28125
vt 0.78125 0.25
vt 0.3125 0.1875
vt 0.3125 0.21875
vt 0.34375 0.21875
vt 0.34375 0.1875
vn -1 0 0
vn 1 0 0
vn 0 0 1
vn 0 0 -1
vn 0 1 0
vn 0 1 0
vn 0 1 0
vn 0 1 0
vn 0 1 0
vn 0 1 0
vn 0 1 0
vn 0 1 0
vn 0 1 0
vn -0.7071067811865495 0 0.7071067811865457
vn -0.7071067811865483 0 -0.7071067811865468
vn 0.7071067811865478 0 -0.7071067811865474
vn 0.7071067811865478 0 0.7071067811865474
usemtl m_74692fa5-4629-e888-f13f-f390aed0874e
f 211/641/161 209/642/161 210/643/161 212/644/161
f 214/645/162 213/646/162 215/647/162 216/648/162
f 213/649/163 209/650/163 211/651/163 215/652/163
f 212/653/164 210/654/164 214/655/164 216/656/164
f 213/657/165 219/658/165 217/659/165 209/660/165
f 209/661/166 217/662/166 218/663/166 210/664/166
f 210/665/167 218/666/167 220/667/167 214/668/167
f 214/669/168 220/670/168 219/671/168 213/672/168
f 226/673/169 225/674/169 227/675/169 228/676/169
f 223/677/170 219/678/170 221/679/170 217/680/170
f 221/681/171 217/682/171 222/683/171 218/684/171
f 222/685/172 218/686/172 224/687/172 220/688/172
f 224/689/173 220/690/173 223/691/173 219/692/173
f 223/693/174 227/694/174 225/695/174 221/696/174
f 221/697/175 225/698/175 226/699/175 222/700/175
f 222/701/176 226/702/176 228/703/176 224/704/176
f 224/705/177 228/706/177 227/707/177 223/708/177
o cuboid
v -1.125 0 0.125
v -1.125 0 -0.125
v 0 0 0.125
v 0 0 -0.125
v -1.125 0.09375 0.125
v -1.125 0.09375 -0.125
v 0 0.09375 0.125
v 0 0.09375 -0.125
vt 0.5625 1
vt 0.5625 0.875
vt 0 0.875
vt 0 1
vt 0 0.4375
vt 0 0.5
vt 0.125 0.5
vt 0.125 0.4375
vt 0 0.84375
vt 0.5625 0.84375
vt 0.5625 0.71875
vt 0 0.71875
vt 0 0.625
vt 0 0.6875
vt 0.5625 0.6875
vt 0.5625 0.625
vt 0 0.53125
vt 0 0.59375
vt 0.5625 0.59375
vt 0.5625 0.53125
vn 0 1 0
vn -1 0 0
vn 0 -1 0
vn 0 0 -1
vn 0 0 1
usemtl m_4bc7055d-7b02-8298-9e8b-3f46f78222f7
f 234/709/178 233/710/178 235/711/178 236/712/178
f 229/713/179 233/714/179 234/715/179 230/716/179
f 231/717/180 229/718/180 230/719/180 232/720/180
f 230/721/181 234/722/181 236/723/181 232/724/181
f 231/725/182 235/726/182 233/727/182 229/728/182