# Made in Blockbench 4.9.3
mtllib drrc_rail_ballastless_2.mtl

o cuboid
v 0.99875 0.109375 0.3125
v 0.99875 0.109375 -0.3125
v 0.99875 -1 0.3125
v 0.99875 -1 -0.3125
v 0.49875 0.109375 0.3125
v 0.49875 0.109375 -0.3125
v 0.49875 -1 0.3125
v 0.49875 -1 -0.3125
vt 0.15625 1
vt 0 1
vt 0 0.71875
vt 0.15625 0.71875
vt 0.328125 0.71875
vt 0.328125 1
vt 0.171875 1
vt 0.171875 0.71875
vt 0.28125 0.546875
vt 0.40625 0.546875
vt 0.40625 0.703125
vt 0.28125 0.703125
vt 0.125 0.421875
vt 0.125 0.703125
vt 0 0.703125
vt 0 0.421875
vt 0.265625 0.703125
vt 0.140625 0.703125
vt 0.140625 0.421875
vt 0.265625 0.421875
vn 1 0 0
vn -1 0 0
vn 0 1 0
vn 0 0 1
vn 0 0 -1
usemtl m_89a45f25-33aa-1a36-49f7-bb8eb9f0596f
f 2/1/1 1/2/1 3/3/1 4/4/1
f 7/5/2 5/6/2 6/7/2 8/8/2
f 5/9/3 1/10/3 2/11/3 6/12/3
f 3/13/4 1/14/4 5/15/4 7/16/4
f 6/17/5 2/18/5 4/19/5 8/20/5
o cuboid
v -0.99875 0.109375 0.3125
v -0.99875 0.109375 -0.3125
v -0.99875 -1 0.3125
v -0.99875 -1 -0.3125
v -0.49875 0.109375 0.3125
v -0.49875 0.109375 -0.3125
v -0.49875 -1 0.3125
v -0.49875 -1 -0.3125
vt 0 0.71875
vt 0 1
vt 0.15625 1
vt 0.15625 0.71875
vt 0.171875 1
vt 0.328125 1
vt 0.328125 0.71875
vt 0.171875 0.71875
vt 0.40625 0.703125
vt 0.40625 0.546875
vt 0.28125 0.546875
vt 0.28125 0.703125
vt 0 0.703125
vt 0.125 0.703125
vt 0.125 0.421875
vt 0 0.421875
vt 0.140625 0.421875
vt 0.140625 0.703125
vt 0.265625 0.703125
vt 0.265625 0.421875
vn -1 0 0
vn 1 0 0
vn 0 1 0
vn 0 0 1
vn 0 0 -1
usemtl m_89a45f25-33aa-1a36-49f7-bb8eb9f0596f
f 11/21/6 9/22/6 10/23/6 12/24/6
f 14/25/7 13/26/7 15/27/7 16/28/7
f 10/29/8 9/30/8 13/31/8 14/32/8
f 13/33/9 9/34/9 11/35/9 15/36/9
f 12/37/10 10/38/10 14/39/10 16/40/10
o cuboid
v 0.855 0.12366071428571429 0.03125
v 0.855 0.12366071428571429 -0.03125
v 0.855 0.0875 0.03125
v 0.855 0.0875 -0.03125
v 0.7925 0.12366071428571429 0.03125
v 0.7925 0.12366071428571429 -0.03125
v 0.7925 0.0875 0.03125
v 0.7925 0.0875 -0.03125
v 0.839375 0.12366071428571429 0.015624999999999972
v 0.839375 0.12366071428571429 -0.015625
v 0.808125 0.12366071428571429 0.015624999999999972
v 0.808125 0.12366071428571429 -0.015625
v 0.8458470869120794 0.12366071428571429 -3.469446951953614e-17
v 0.82375 0.12366071428571429 -0.02209708691207951
v 0.82375 0.12366071428571429 0.02209708691207954
v 0.8016529130879204 0.12366071428571429 2.7755575615628914e-17
v 0.8458470869120794 0.14375 -3.469446951953614e-17
v 0.82375 0.14375 -0.02209708691207951
v 0.82375 0.14375 0.02209708691207954
v 0.8016529130879204 0.14375 2.7755575615628914e-17
vt 0.34375 0.28125
vt 0.3125 0.28125
vt 0.3125 0.25
vt 0.34375 0.25
vt 0.40625 0.25
vt 0.40625 0.28125
vt 0.375 0.28125
vt 0.375 0.25
vt 0.46875 0.25
vt 0.46875 0.28125
vt 0.4375 0.28125
vt 0.4375 0.25
vt 0.53125 0.28125
vt 0.5 0.28125
vt 0.5 0.25
vt 0.53125 0.25
vt 0.240625 0.16874999999999996
vt 0.228125 0.16874999999999996
vt 0.221875 0.16249999999999998
vt 0.246875 0.16249999999999998
vt 0.240625 0.18125000000000002
vt 0.240625 0.16874999999999996
vt 0.246875 0.16249999999999998
vt 0.246875 0.1875
vt 0.228125 0.18125000000000002
vt 0.240625 0.18125000000000002
vt 0.246875 0.1875
vt 0.221875 0.1875
vt 0.228125 0.16874999999999996
vt 0.228125 0.18125000000000002
vt 0.221875 0.1875
vt 0.221875 0.16249999999999998
vt 0.5625 0.25
vt 0.59375 0.25
vt 0.59375 0.28125
vt 0.5625 0.28125
vt 0.49191875 0.15625
vt 0.47683125 0.15000000000000002
vt 0.48308125 0.14741249999999995
vt 0.48933125 0.15000000000000002
vt 0.35495625 0.15625
vt 0.36120625 0.14116249999999997
vt 0.36379375 0.14741249999999995
vt 0.36120625 0.15366250000000004
vt 0.82058125 0.27241249999999995
vt 0.83566875 0.27866250000000004
vt 0.82941875 0.28125
vt 0.82316875 0.27866250000000004
vt 0.86379375 0.48491249999999997
vt 0.85754375 0.5
vt 0.85495625 0.49375
vt 0.85754375 0.48750000000000004
vt 0.65625 0.28125
vt 0.625 0.28125
vt 0.625 0.25
vt 0.65625 0.25
vt 0.71875 0.28125
vt 0.6875 0.28125
vt 0.6875 0.25
vt 0.71875 0.25
vt 0.78125 0.28125
vt 0.75 0.28125
vt 0.75 0.25
vt 0.78125 0.25
vt 0.34375 0.21875
vt 0.3125 0.21875
vt 0.3125 0.1875
vt 0.34375 0.1875
vn 1 0 0
vn -1 0 0
vn 0 0 1
vn 0 0 -1
vn 0 1 0
vn 0 1 0
vn 0 1 0
vn 0 1 0
vn 0 1 0
vn 0 1 0
vn 0 1 0
vn 0 1 0
vn 0 1 0
vn 0.7071067811865495 0 0.7071067811865457
vn 0.7071067811865483 0 -0.7071067811865468
vn -0.7071067811865478 0 -0.7071067811865474
vn -0.7071067811865478 0 0.7071067811865474
usemtl m_74692fa5-4629-e888-f13f-f390aed0874e
f 18/41/11 17/42/11 19/43/11 20/44/11
f 23/45/12 21/46/12 22/47/12 24/48/12
f 19/49/13 17/50/13 21/51/13 23/52/13
f 22/53/14 18/54/14 20/55/14 24/56/14
f 25/57/15 27/58/15 21/59/15 17/60/15
f 26/61/16 25/62/16 17/63/16 18/64/16
f 28/65/17 26/66/17 18/67/17 22/68/17
f 27/69/18 28/70/18 22/71/18 21/72/18
f 35/73/19 33/74/19 34/75/19 36/76/19
f 29/77/20 27/78/20 31/79/20 25/80/20
f 30/81/21 25/82/21 29/83/21 26/84/21
f 32/85/22 26/86/22 30/87/22 28/88/22
f 31/89/23 28/90/23 32/91/23 27/92/23
f 33/93/24 35/94/24 31/95/24 29/96/24
f 34/97/25 33/98/25 29/99/25 30/100/25
f 36/101/26 34/102/26 30/103/26 32/104/26
f 35/105/27 36/106/27 32/107/27 31/108/27
o rail
v 0.7775000000000001 0.275 -0.3125
v 0.8243750000000001 0.10312500000000002 -0.3125
v 0.73 0.275 -0.3125
v 0.683125 0.10312500000000002 -0.3125
v 0.79 0.265625 -0.3125
v 0.7175 0.265625 -0.3125
v 0.79 0.24062500000000003 -0.3125
v 0.7175 0.24062500000000003 -0.3125
v 0.73625 0.23593750000000002 -0.3125
v 0.7712500000000001 0.23593750000000002 -0.3125
v 0.7315625 0.12890625 -0.3125
v 0.7759375000000001 0.12890625 -0.3125
v 0.72375 0.27343750000000006 -0.3125
v 0.7837500000000001 0.27343750000000006 -0.3125
v 0.7315625 0.23984375000000002 -0.3125
v 0.7759375000000001 0.23984375000000002 -0.3125
v 0.683125 0.09375 -0.3125
v 0.8243750000000001 0.09375 -0.3125
v 0.7104687500000001 0.11289062500000002 -0.3125
v 0.79703125 0.11289062500000002 -0.3125
v 0.72375 0.27343750000000006 0.3125
v 0.73 0.275 0.3125
v 0.7775000000000001 0.275 0.3125
v 0.7837500000000001 0.27343750000000006 0.3125
v 0.7175 0.265625 0.3125
v 0.7175 0.24062500000000003 0.3125
v 0.73625 0.23593750000000002 0.3125
v 0.7315625 0.23984375000000002 0.3125
v 0.7315625 0.12890625 0.3125
v 0.7104687500000001 0.11289062500000002 0.3125
v 0.683125 0.10312500000000002 0.3125
v 0.683125 0.09375 0.3125
v 0.8243750000000001 0.09375 0.3125
v 0.8243750000000001 0.10312500000000002 0.3125
v 0.79703125 0.11289062500000002 0.3125
v 0.7759375000000001 0.12890625 0.3125
v 0.7712500000000001 0.23593750000000002 0.3125
v 0.7759375000000001 0.23984375000000002 0.3125
v 0.79 0.24062500000000003 0.3125
v 0.79 0.265625 0.3125
vt 0.09427968749999996 0.34375
vt 0.09427968749999996 0.03125
vt 0.09749843750000001 0.03125
vt 0.09749843750000001 0.34375
vt 0.09749843750000001 0.34375
vt 0.09749843750000001 0.03125
vt 0.12124843750000006 0.03125
vt 0.12124843750000006 0.34375
vt 0.12124843750000006 0.34375
vt 0.12124843750000006 0.03125
vt 0.12447031250000004 0.03125
vt 0.12447031250000004 0.34375
vt 0.59375 0.65625
vt 0.90625 0.65625
vt 0.90625 0.6875
vt 0.59375 0.6875
vt 0.59375 0.96875
vt 0.90625 0.96875
vt 0.90625 1
vt 0.59375 1
vt 0.59375 0.78125
vt 0.90625 0.78125
vt 0.90625 0.8125
vt 0.59375 0.8125
vt 0.4375 0.375
vt 0.75 0.375
vt 0.75 0.40625
vt 0.4375 0.40625
vt 0.09375 0.4375
vt 0.40625 0.4375
vt 0.40625 0.5
vt 0.09375 0.5
vt 0.5 0.330509375
vt 0.8125 0.330509375
vt 0.8125 0.34375
vt 0.5 0.34375
vt 0.5 0.31599062499999997
vt 0.8125 0.31599062499999997
vt 0.8125 0.330509375
vt 0.5 0.330509375
vt 0.59375 0.90625
vt 0.90625 0.90625
vt 0.90625 0.9375
vt 0.59375 0.9375
vt 0.0625 0.1875
vt 0.0625 0.5
vt 0 0.5
vt 0 0.1875
vt 0.40625 0.40625
vt 0.09375 0.40625
vt 0.09375 0.375
vt 0.40625 0.375
vt 0.46875 0.33050625
vt 0.15625 0.33050625
vt 0.15625 0.3159875
vt 0.46875 0.3159875
vt 0.46875 0.34375
vt 0.15625 0.34375
vt 0.15625 0.33050625
vt 0.46875 0.33050625
vt 0.75 0.5
vt 0.4375 0.5
vt 0.4375 0.4375
vt 0.75 0.4375
vt 0.90625 0.5625
vt 0.59375 0.5625
vt 0.59375 0.53125
vt 0.90625 0.53125
vt 0.90625 0.75
vt 0.59375 0.75
vt 0.59375 0.71875
vt 0.90625 0.71875
vt 0.90625 0.875
vt 0.59375 0.875
vt 0.59375 0.84375
vt 0.90625 0.84375
vt 0.90625 0.625
vt 0.59375 0.625
vt 0.59375 0.59375
vt 0.90625 0.59375
vn -0.24253562503632894 0.9701425001453331 0
vn 0 1 0
vn 0.24253562503632894 0.9701425001453331 0
vn -0.7808688094430336 0.6246950475544203 0
vn -1 0 0
vn -0.05547001962252379 -0.9984603532054125 0
vn -0.6401843996644835 -0.7682212795973729 0
vn -0.999042349216381 0.04375367952772429 0
vn -0.6047092401914661 0.7964463163497335 0
vn -0.33633639699815504 0.9417419115948379 0
vn -1 0 0
vn 0 -1 0
vn 1 0 0
vn 0.33633639699815504 0.9417419115948379 0
vn 0.6047092401914661 0.7964463163497335 0
vn 0.999042349216381 0.04375367952772429 0
vn 0.6401843996644835 -0.7682212795973729 0
vn 0.05547001962252379 -0.9984603532054125 0
vn 1 0 0
vn 0.7808688094430336 0.6246950475544203 0
usemtl m_74692fa5-4629-e888-f13f-f390aed0874e
f 49/109/28 57/110/28 58/111/28 39/112/28
f 39/113/29 58/114/29 59/115/29 37/116/29
f 37/117/30 59/118/30 60/119/30 50/120/30
f 42/121/31 61/122/31 57/123/31 49/124/31
f 44/125/32 62/126/32 61/127/32 42/128/32
f 51/129/33 64/130/33 62/131/33 44/132/33
f 45/133/34 63/134/34 64/135/34 51/136/34
f 47/137/35 65/138/35 63/139/35 45/140/35
f 55/141/36 66/142/36 65/143/36 47/144/36
f 40/145/37 67/146/37 66/147/37 55/148/37
f 53/149/38 68/150/38 67/151/38 40/152/38
f 54/153/39 69/154/39 68/155/39 53/156/39
f 38/157/40 70/158/40 69/159/40 54/160/40
f 56/161/41 71/162/41 70/163/41 38/164/41
f 48/165/42 72/166/42 71/167/42 56/168/42
f 46/169/43 73/170/43 72/171/43 48/172/43
f 52/173/44 74/174/44 73/175/44 46/176/44
f 43/177/45 75/178/45 74/179/45 52/180/45
f 41/181/46 76/182/46 75/183/46 43/184/46
f 50/185/47 60/186/47 76/187/47 41/188/47
o cuboid
v 0.714375 0.12366071428571429 0.03125
v 0.714375 0.12366071428571429 -0.03125
v 0.714375 0.0875 0.03125
v 0.714375 0.0875 -0.03125
v 0.651875 0.12366071428571429 0.03125
v 0.651875 0.12366071428571429 -0.03125
v 0.651875 0.0875 0.03125
v 0.651875 0.0875 -0.03125
v 0.69875 0.12366071428571429 0.015624999999999972
v 0.69875 0.12366071428571429 -0.015625
v 0.6675 0.12366071428571429 0.015624999999999972
v 0.6675 0.12366071428571429 -0.015625
v 0.7052220869120794 0.12366071428571429 -3.469446951953614e-17
v 0.683125 0.12366071428571429 -0.02209708691207951
v 0.683125 0.12366071428571429 0.02209708691207954
v 0.6610279130879204 0.12366071428571429 2.7755575615628914e-17
v 0.7052220869120794 0.14375 -3.469446951953614e-17
v 0.683125 0.14375 -0.02209708691207951
v 0.683125 0.14375 0.02209708691207954
v 0.6610279130879204 0.14375 2.7755575615628914e-17
vt 0.34375 0.28125
vt 0.3125 0.28125
vt 0.3125 0.25
vt 0.34375 0.25
vt 0.40625 0.25
vt 0.40625 0.28125
vt 0.375 0.28125
vt 0.375 0.25
vt 0.46875 0.25
vt 0.46875 0.28125
vt 0.4375 0.28125
vt 0.4375 0.25
vt 0.53125 0.28125
vt 0.5 0.28125
vt 0.5 0.25
vt 0.53125 0.25
vt 0.240625 0.16874999999999996
vt 0.228125 0.16874999999999996
vt 0.221875 0.16249999999999998
vt 0.246875 0.16249999999999998
vt 0.240625 0.18125000000000002
vt 0.240625 0.16874999999999996
vt 0.246875 0.16249999999999998
vt 0.246875 0.1875
vt 0.228125 0.18125000000000002
vt 0.240625 0.18125000000000002
vt 0.246875 0.1875
vt 0.221875 0.1875
vt 0.228125 0.16874999999999996
vt 0.228125 0.18125000000000002
vt 0.221875 0.1875
vt 0.221875 0.16249999999999998
vt 0.5625 0.25
vt 0.59375 0.25
vt 0.59375 0.28125
vt 0.5625 0.28125
vt 0.49191875 0.15625
vt 0.47683125 0.15000000000000002
vt 0.48308125 0.14741249999999995
vt 0.48933125 0.15000000000000002
vt 0.35495625 0.15625
vt 0.36120625 0.14116249999999997
vt 0.36379375 0.14741249999999995
vt 0.36120625 0.15366250000000004
vt 0.82058125 0.27241249999999995
vt 0.83566875 0.27866250000000004
vt 0.82941875 0.28125
vt 0.82316875 0.27866250000000004
vt 0.86379375 0.48491249999999997
vt 0.85754375 0.5
vt 0.85495625 0.49375
vt 0.85754375 0.48750000000000004
vt 0.65625 0.28125
vt 0.625 0.28125
vt 0.625 0.25
vt 0.65625 0.25
vt 0.71875 0.28125
vt 0.6875 0.28125
vt 0.6875 0.25
vt 0.71875 0.25
vt 0.78125 0.28125
vt 0.75 0.28125
vt 0.75 0.25
vt 0.78125 0.25
vt 0.34375 0.21875
vt 0.3125 0.21875
vt 0.3125 0.1875
vt 0.34375 0.1875
vn 1 0 0
vn -1 0 0
vn 0 0 1
vn 0 0 -1
vn 0 1 0
vn 0 1 0
vn 0 1 0
vn 0 1 0
vn 0 1 0
vn 0 1 0
vn 0 1 0
vn 0 1 0
vn 0 1 0
vn 0.7071067811865495 0 0.7071067811865457
vn 0.7071067811865483 0 -0.7071067811865468
vn -0.7071067811865478 0 -0.7071067811865474
vn -0.7071067811865478 0 0.7071067811865474
usemtl m_74692fa5-4629-e888-f13f-f390aed0874e
f 78/189/48 77/190/48 79/191/48 80/192/48
f 83/193/49 81/194/49 82/195/49 84/196/49
f 79/197/50 77/198/50 81/199/50 83/200/50
f 82/201/51 78/202/51 80/203/51 84/204/51
f 85/205/52 87/206/52 81/207/52 77/208/52
f 86/209/53 85/210/53 77/211/53 78/212/53
f 88/213/54 86/214/54 78/215/54 82/216/54
f 87/217/55 88/218/55 82/219/55 81/220/55
f 95/221/56 93/222/56 94/223/56 96/224/56
f 89/225/57 87/226/57 91/227/57 85/228/57
f 90/229/58 85/230/58 89/231/58 86/232/58
f 92/233/59 86/234/59 90/235/59 88/236/59
f 91/237/60 88/238/60 92/239/60 87/240/60
f 93/241/61 95/242/61 91/243/61 89/244/61
f 94/245/62 93/246/62 89/247/62 90/248/62
f 96/249/63 94/250/63 90/251/63 92/252/63
f 95/253/64 96/254/64 92/255/64 91/256/64
o cuboid
v -0.855 0.12366071428571429 0.03125
v -0.855 0.12366071428571429 -0.03125
v -0.855 0.0875 0.03125
v -0.855 0.0875 -0.03125
v -0.7925 0.12366071428571429 0.03125
v -0.7925 0.12366071428571429 -0.03125
v -0.7925 0.0875 0.03125
v -0.7925 0.0875 -0.03125
v -0.839375 0.12366071428571429 0.015624999999999972
v -0.839375 0.12366071428571429 -0.015625
v -0.808125 0.12366071428571429 0.015624999999999972
v -0.808125 0.12366071428571429 -0.015625
v -0.8458470869120794 0.12366071428571429 -3.469446951953614e-17
v -0.82375 0.12366071428571429 -0.02209708691207951
v -0.82375 0.12366071428571429 0.02209708691207954
v -0.8016529130879204 0.12366071428571429 2.7755575615628914e-17
v -0.8458470869120794 0.14375 -3.469446951953614e-17
v -0.82375 0.14375 -0.02209708691207951
v -0.82375 0.14375 0.02209708691207954
v -0.8016529130879204 0.14375 2.7755575615628914e-17
vt 0.3125 0.25
vt 0.3125 0.28125
vt 0.34375 0.28125
vt 0.34375 0.25
vt 0.375 0.28125
vt 0.40625 0.28125
vt 0.40625 0.25
vt 0.375 0.25
vt 0.4375 0.28125
vt 0.46875 0.28125
vt 0.46875 0.25
vt 0.4375 0.25
vt 0.5 0.25
vt 0.5 0.28125
vt 0.53125 0.28125
vt 0.53125 0.25
vt 0.221875 0.16249999999999998
vt 0.228125 0.16874999999999996
vt 0.240625 0.16874999999999996
vt 0.246875 0.16249999999999998
vt 0.246875 0.16249999999999998
vt 0.240625 0.16874999999999996
vt 0.240625 0.18125000000000002
vt 0.246875 0.1875
vt 0.246875 0.1875
vt 0.240625 0.18125000000000002
vt 0.228125 0.18125000000000002
vt 0.221875 0.1875
vt 0.221875 0.1875
vt 0.228125 0.18125000000000002
vt 0.228125 0.16874999999999996
vt 0.221875 0.16249999999999998
vt 0.59375 0.28125
vt 0.59375 0.25
vt 0.5625 0.25
vt 0.5625 0.28125
vt 0.48308125 0.14741249999999995
vt 0.47683125 0.15000000000000002
vt 0.49191875 0.15625
vt 0.48933125 0.15000000000000002
vt 0.36379375 0.14741249999999995
vt 0.36120625 0.14116249999999997
vt 0.35495625 0.15625
vt 0.36120625 0.15366250000000004
vt 0.82941875 0.28125
vt 0.83566875 0.27866250000000004
vt 0.82058125 0.27241249999999995
vt 0.82316875 0.27866250000000004
vt 0.85495625 0.49375
vt 0.85754375 0.5
vt 0.86379375 0.48491249999999997
vt 0.85754375 0.48750000000000004
vt 0.625 0.25
vt 0.625 0.28125
vt 0.65625 0.28125
vt 0.65625 0.25
vt 0.6875 0.25
vt 0.6875 0.28125
vt 0.71875 0.28125
vt 0.71875 0.25
vt 0.75 0.25
vt 0.75 0.28125
vt 0.78125 0.28125
vt 0.78125 0.25
vt 0.3125 0.1875
vt 0.3125 0.21875
vt 0.34375 0.21875
vt 0.34375 0.1875
vn -1 0 0
vn 1 0 0
vn 0 0 1
vn 0 0 -1
vn 0 1 0
vn 0 1 0
vn 0 1 0
vn 0 1 0
vn 0 1 0
vn 0 1 0
vn 0 1 0
vn 0 1 0
vn 0 1 0
vn -0.7071067811865495 0 0.7071067811865457
vn -0.7071067811865483 0 -0.7071067811865468
vn 0.7071067811865478 0 -0.7071067811865474
vn 0.7071067811865478 0 0.7071067811865474
usemtl m_74692fa5-4629-e888-f13f-f390aed0874e
f 99/257/65 97/258/65 98/259/65 100/260/65
f 102/261/66 101/262/66 103/263/66 104/264/66
f 101/265/67 97/266/67 99/267/67 103/268/67
f 100/269/68 98/270/68 102/271/68 104/272/68
f 101/273/69 107/274/69 105/275/69 97/276/69
f 97/277/70 105/278/70 106/279/70 98/280/70
f 98/281/71 106/282/71 108/283/71 102/284/71
f 102/285/72 108/286/72 107/287/72 101/288/72
f 114/289/73 113/290/73 115/291/73 116/292/73
f 111/293/74 107/294/74 109/295/74 105/296/74
f 109/297/75 105/298/75 110/299/75 106/300/75
f 110/301/76 106/302/76 112/303/76 108/304/76
f 112/305/77 108/306/77 111/307/77 107/308/77
f 111/309/78 115/310/78 113/311/78 109/312/78
f 109/313/79 113/314/79 114/315/79 110/316/79
f 110/317/80 114/318/80 116/319/80 112/320/80
f 112/321/81 116/322/81 115/323/81 111/324/81
o cuboid
v -0.714375 0.12366071428571429 0.03125
v -0.714375 0.12366071428571429 -0.03125
v -0.714375 0.0875 0.03125
v -0.714375 0.0875 -0.03125
v -0.651875 0.12366071428571429 0.03125
v -0.651875 0.12366071428571429 -0.03125
v -0.651875 0.0875 0.03125
v -0.651875 0.0875 -0.03125
v -0.69875 0.12366071428571429 0.015624999999999972
v -0.69875 0.12366071428571429 -0.015625
v -0.6675 0.12366071428571429 0.015624999999999972
v -0.6675 0.12366071428571429 -0.015625
v -0.7052220869120794 0.12366071428571429 -3.469446951953614e-17
v -0.683125 0.12366071428571429 -0.02209708691207951
v -0.683125 0.12366071428571429 0.02209708691207954
v -0.6610279130879204 0.12366071428571429 2.7755575615628914e-17
v -0.7052220869120794 0.14375 -3.469446951953614e-17
v -0.683125 0.14375 -0.02209708691207951
v -0.683125 0.14375 0.02209708691207954
v -0.6610279130879204 0.14375 2.7755575615628914e-17
vt 0.3125 0.25
vt 0.3125 0.28125
vt 0.34375 0.28125
vt 0.34375 0.25
vt 0.375 0.28125
vt 0.40625 0.28125
vt 0.40625 0.25
vt 0.375 0.25
vt 0.4375 0.28125
vt 0.46875 0.28125
vt 0.46875 0.25
vt 0.4375 0.25
vt 0.5 0.25
vt 0.5 0.28125
vt 0.53125 0.28125
vt 0.53125 0.25
vt 0.221875 0.16249999999999998
vt 0.228125 0.16874999999999996
vt 0.240625 0.16874999999999996
vt 0.246875 0.16249999999999998
vt 0.246875 0.16249999999999998
vt 0.240625 0.16874999999999996
vt 0.240625 0.18125000000000002
vt 0.246875 0.1875
vt 0.246875 0.1875
vt 0.240625 0.18125000000000002
vt 0.228125 0.18125000000000002
vt 0.221875 0.1875
vt 0.221875 0.1875
vt 0.228125 0.18125000000000002
vt 0.228125 0.16874999999999996
vt 0.221875 0.16249999999999998
vt 0.59375 0.28125
vt 0.59375 0.25
vt 0.5625 0.25
vt 0.5625 0.28125
vt 0.48308125 0.14741249999999995
vt 0.47683125 0.15000000000000002
vt 0.49191875 0.15625
vt 0.48933125 0.15000000000000002
vt 0.36379375 0.14741249999999995
vt 0.36120625 0.14116249999999997
vt 0.35495625 0.15625
vt 0.36120625 0.15366250000000004
vt 0.82941875 0.28125
vt 0.83566875 0.27866250000000004
vt 0.82058125 0.27241249999999995
vt 0.82316875 0.27866250000000004
vt 0.85495625 0.49375
vt 0.85754375 0.5
vt 0.86379375 0.48491249999999997
vt 0.85754375 0.48750000000000004
vt 0.625 0.25
vt 0.625 0.28125
vt 0.65625 0.28125
vt 0.65625 0.25
vt 0.6875 0.25
vt 0.6875 0.28125
vt 0.71875 0.28125
vt 0.71875 0.25
vt 0.75 0.25
vt 0.75 0.28125
vt 0.78125 0.28125
vt 0.78125 0.25
vt 0.3125 0.1875
vt 0.3125 0.21875
vt 0.34375 0.21875
vt 0.34375 0.1875
vn -1 0 0
vn 1 0 0
vn 0 0 1
vn 0 0 -1
vn 0 1 0
vn 0 1 0
vn 0 1 0
vn 0 1 0
vn 0 1 0
vn 0 1 0
vn 0 1 0
vn 0 1 0
vn 0 1 0
vn -0.7071067811865495 0 0.7071067811865457
vn -0.7071067811865483 0 -0.7071067811865468
vn 0.7071067811865478 0 -0.7071067811865474
vn 0.7071067811865478 0 0.7071067811865474
usemtl m_74692fa5-4629-e888-f13f-f390aed0874e
f 119/325/82 117/326/82 118/327/82 120/328/82
f 122/329/83 121/330/83 123/331/83 124/332/83
f 121/333/84 117/334/84 119/335/84 123/336/84
f 120/337/85 118/338/85 122/339/85 124/340/85
f 121/341/86 127/342/86 125/343/86 117/344/86
f 117/345/87 125/346/87 126/347/87 118/348/87
f 118/349/88 126/350/88 128/351/88 122/352/88
f 122/353/89 128/354/89 127/355/89 121/356/89
f 134/357/90 133/358/90 135/359/90 136/360/90
f 131/361/91 127/362/91 129/363/91 125/364/91
f 129/365/92 125/366/92 130/367/92 126/368/92
f 130/369/93 126/370/93 132/371/93 128/372/93
f 132/373/94 128/374/94 131/375/94 127/376/94
f 131/377/95 135/378/95 133/379/95 129/380/95
f 129/381/96 133/382/96 134/383/96 130/384/96
f 130/385/97 134/386/97 136/387/97 132/388/97
f 132/389/98 136/390/98 135/391/98 131/392/98
o rail
v -0.7775000000000001 0.275 -0.3125
v -0.8243750000000001 0.10312500000000002 -0.3125
v -0.73 0.275 -0.3125
v -0.683125 0.10312500000000002 -0.3125
v -0.79 0.265625 -0.3125
v -0.7175 0.265625 -0.3125
v -0.79 0.24062500000000003 -0.3125
v -0.7175 0.24062500000000003 -0.3125
v -0.73625 0.23593750000000002 -0.3125
v -0.7712500000000001 0.23593750000000002 -0.3125
v -0.7315625 0.12890625 -0.3125
v -0.7759375000000001 0.12890625 -0.3125
v -0.72375 0.27343750000000006 -0.3125
v -0.7837500000000001 0.27343750000000006 -0.3125
v -0.7315625 0.23984375000000002 -0.3125
v -0.7759375000000001 0.23984375000000002 -0.3125
v -0.683125 0.09375 -0.3125
v -0.8243750000000001 0.09375 -0.3125
v -0.7104687500000001 0.11289062500000002 -0.3125
v -0.79703125 0.11289062500000002 -0.3125
v -0.72375 0.27343750000000006 0.3125
v -0.73 0.275 0.3125
v -0.7775000000000001 0.275 0.3125
v -0.7837500000000001 0.27343750000000006 0.3125
v -0.7175 0.265625 0.3125
v -0.7175 0.24062500000000003 0.3125
v -0.73625 0.23593750000000002 0.3125
v -0.7315625 0.23984375000000002 0.3125
v -0.7315625 0.12890625 0.3125
v -0.7104687500000001 0.11289062500000002 0.3125
v -0.683125 0.10312500000000002 0.3125
v -0.683125 0.09375 0.3125
v -0.8243750000000001 0.09375 0.3125
v -0.8243750000000001 0.10312500000000002 0.3125
v -0.79703125 0.11289062500000002 0.3125
v -0.7759375000000001 0.12890625 0.3125
v -0.7712500000000001 0.23593750000000002 0.3125
v -0.7759375000000001 0.23984375000000002 0.3125
v -0.79 0.24062500000000003 0.3125
v -0.79 0.265625 0.3125
vt 0.09749843750000001 0.03125
vt 0.09427968749999996 0.03125
vt 0.09427968749999996 0.34375
vt 0.09749843750000001 0.34375
vt 0.12124843750000006 0.03125
vt 0.09749843750000001 0.03125
vt 0.09749843750000001 0.34375
vt 0.12124843750000006 0.34375
vt 0.12447031250000004 0.03125
vt 0.12124843750000006 0.03125
vt 0.12124843750000006 0.34375
vt 0.12447031250000004 0.34375
vt 0.90625 0.6875
vt 0.90625 0.65625
vt 0.59375 0.65625
vt 0.59375 0.6875
vt 0.90625 1
vt 0.90625 0.96875
vt 0.59375 0.96875
vt 0.59375 1
vt 0.90625 0.8125
vt 0.90625 0.78125
vt 0.59375 0.78125
vt 0.59375 0.8125
vt 0.75 0.40625
vt 0.75 0.375
vt 0.4375 0.375
vt 0.4375 0.40625
vt 0.40625 0.5
vt 0.40625 0.4375
vt 0.09375 0.4375
vt 0.09375 0.5
vt 0.8125 0.34375
vt 0.8125 0.330509375
vt 0.5 0.330509375
vt 0.5 0.34375
vt 0.8125 0.330509375
vt 0.8125 0.31599062499999997
vt 0.5 0.31599062499999997
vt 0.5 0.330509375
vt 0.90625 0.9375
vt 0.90625 0.90625
vt 0.59375 0.90625
vt 0.59375 0.9375
vt 0 0.5
vt 0.0625 0.5
vt 0.0625 0.1875
vt 0 0.1875
vt 0.09375 0.375
vt 0.09375 0.40625
vt 0.40625 0.40625
vt 0.40625 0.375
vt 0.15625 0.3159875
vt 0.15625 0.33050625
vt 0.46875 0.33050625
vt 0.46875 0.3159875
vt 0.15625 0.33050625
vt 0.15625 0.34375
vt 0.46875 0.34375
vt 0.46875 0.33050625
vt 0.4375 0.4375
vt 0.4375 0.5
vt 0.75 0.5
vt 0.75 0.4375
vt 0.59375 0.53125
vt 0.59375 0.5625
vt 0.90625 0.5625
vt 0.90625 0.53125
vt 0.59375 0.71875
vt 0.59375 0.75
vt 0.90625 0.75
vt 0.90625 0.71875
vt 0.59375 0.84375
vt 0.59375 0.875
vt 0.90625 0.875
vt 0.90625 0.84375
vt 0.59375 0.59375
vt 0.59375 0.625
vt 0.90625 0.625
vt 0.90625 0.59375
vn 0.24253562503632894 0.9701425001453331 0
vn 0 1 0
vn -0.24253562503632894 0.9701425001453331 0
vn 0.7808688094430336 0.6246950475544203 0
vn 1 0 0
vn 0.05547001962252379 -0.9984603532054125 0
vn 0.6401843996644835 -0.7682212795973729 0
vn 0.999042349216381 0.04375367952772429 0
vn 0.6047092401914661 0.7964463163497335 0
vn 0.33633639699815504 0.9417419115948379 0
vn 1 0 0
vn 0 -1 0
vn -1 0 0
vn -0.33633639699815504 0.9417419115948379 0
vn -0.6047092401914661 0.7964463163497335 0
vn -0.999042349216381 0.04375367952772429 0
vn -0.6401843996644835 -0.7682212795973729 0
vn -0.05547001962252379 -0.9984603532054125 0
vn -1 0 0
vn -0.7808688094430336 0.6246950475544203 0
usemtl m_74692fa5-4629-e888-f13f-f390aed0874e
f 158/393/99 157/394/99 149/395/99 139/396/99
f 159/397/100 158/398/100 139/399/100 137/400/100
f 160/401/101 159/402/101 137/403/101 150/404/101
f 157/405/102 161/406/102 142/407/102 149/408/102
f 161/409/103 162/410/103 144/411/103 142/412/103
f 162/413/104 164/414/104 151/415/104 144/416/104
f 164/417/105 163/418/105 145/419/105 151/420/105
f 163/421/106 165/422/106 147/423/106 145/424/106
f 165/425/107 166/426/107 155/427/107 147/428/107
f 166/429/108 167/430/108 140/431/108 155/432/108
f 167/433/109 168/434/109 153/435/109 140/436/109
f 168/437/110 169/438/110 154/439/110 153/440/110
f 169/441/111 170/442/111 138/443/111 154/444/111
f 170/445/112 171/446/112 156/447/112 138/448/112
f 171/449/113 172/450/113 148/451/113 156/452/113
f 172/453/114 173/454/114 146/455/114 148/456/114
f 173/457/115 174/458/115 152/459/115 146/460/115
f 174/461/116 175/462/116 143/463/116 152/464/116
f 175/465/117 176/466/117 141/467/117 143/468/117
f 176/469/118 160/470/118 150/471/118 141/472/118