# Made in Blockbench 4.9.3
mtllib drrc_rail_ballast.mtl

o cuboid
v 1.125 0 0.125
v 1.125 0 -0.125
v 0 0 0.125
v 0 0 -0.125
v 1.125 0.09375 0.125
v 1.125 0.09375 -0.125
v 0 0.09375 0.125
v 0 0.09375 -0.125
vt 0 0.875
vt 0.5625 0.875
vt 0.5625 1
vt 0 1
vt 0.28125 0.28125
vt 0.15625 0.28125
vt 0.15625 0.21875
vt 0.28125 0.21875
vt 0.5625 0.71875
vt 0.5625 0.84375
vt 0 0.84375
vt 0 0.71875
vt 0.5625 0.6875
vt 0 0.6875
vt 0 0.625
vt 0.5625 0.625
vt 0.5625 0.59375
vt 0 0.59375
vt 0 0.53125
vt 0.5625 0.53125
vn 0 1 0
vn 1 0 0
vn 0 -1 0
vn 0 0 -1
vn 0 0 1
usemtl m_74692fa5-4629-e888-f13f-f390aed0874e
f 7/1/1 5/2/1 6/3/1 8/4/1
f 6/5/2 5/6/2 1/7/2 2/8/2
f 2/9/3 1/10/3 3/11/3 4/12/3
f 8/13/4 6/14/4 2/15/4 4/16/4
f 5/17/5 7/18/5 3/19/5 1/20/5
o cuboid
v 0.84875 0.115625 0.024999999999999994
v 0.84875 0.115625 -0.025
v 0.84875 0.0875 0.024999999999999994
v 0.84875 0.0875 -0.025
v 0.79875 0.115625 0.024999999999999994
v 0.79875 0.115625 -0.025
v 0.79875 0.0875 0.024999999999999994
v 0.79875 0.0875 -0.025
v 0.8362499999999999 0.115625 0.012499999999999983
v 0.8362499999999999 0.115625 -0.012499999999999997
v 0.81125 0.115625 0.012499999999999983
v 0.81125 0.115625 -0.012499999999999997
v 0.8414276695296635 0.115625 -2.7755575615628914e-17
v 0.82375 0.115625 -0.01767766952966361
v 0.82375 0.115625 0.017677669529663625
v 0.8060723304703363 0.115625 2.7755575615628914e-17
v 0.8414276695296635 0.13125 -2.7755575615628914e-17
v 0.82375 0.13125 -0.01767766952966361
v 0.82375 0.13125 0.017677669529663625
v 0.8060723304703363 0.13125 2.7755575615628914e-17
vt 0.34375 0.28125
vt 0.3125 0.28125
vt 0.3125 0.25
vt 0.34375 0.25
vt 0.40625 0.25
vt 0.40625 0.28125
vt 0.375 0.28125
vt 0.375 0.25
vt 0.46875 0.25
vt 0.46875 0.28125
vt 0.4375 0.28125
vt 0.4375 0.25
vt 0.53125 0.28125
vt 0.5 0.28125
vt 0.5 0.25
vt 0.53125 0.25
vt 0.240625 0.16874999999999996
vt 0.228125 0.16874999999999996
vt 0.221875 0.16249999999999998
vt 0.246875 0.16249999999999998
vt 0.240625 0.18125000000000002
vt 0.240625 0.16874999999999996
vt 0.246875 0.16249999999999998
vt 0.246875 0.1875
vt 0.228125 0.18125000000000002
vt 0.240625 0.18125000000000002
vt 0.246875 0.1875
vt 0.221875 0.1875
vt 0.228125 0.16874999999999996
vt 0.228125 0.18125000000000002
vt 0.221875 0.1875
vt 0.221875 0.16249999999999998
vt 0.5625 0.25
vt 0.59375 0.25
vt 0.59375 0.28125
vt 0.5625 0.28125
vt 0.49191875 0.15625
vt 0.47683125 0.15000000000000002
vt 0.48308125 0.14741249999999995
vt 0.48933125 0.15000000000000002
vt 0.35495625 0.15625
vt 0.36120625 0.14116249999999997
vt 0.36379375 0.14741249999999995
vt 0.36120625 0.15366250000000004
vt 0.82058125 0.27241249999999995
vt 0.83566875 0.27866250000000004
vt 0.82941875 0.28125
vt 0.82316875 0.27866250000000004
vt 0.86379375 0.48491249999999997
vt 0.85754375 0.5
vt 0.85495625 0.49375
vt 0.85754375 0.48750000000000004
vt 0.65625 0.28125
vt 0.625 0.28125
vt 0.625 0.25
vt 0.65625 0.25
vt 0.71875 0.28125
vt 0.6875 0.28125
vt 0.6875 0.25
vt 0.71875 0.25
vt 0.78125 0.28125
vt 0.75 0.28125
vt 0.75 0.25
vt 0.78125 0.25
vt 0.34375 0.21875
vt 0.3125 0.21875
vt 0.3125 0.1875
vt 0.34375 0.1875
vn 1 0 0
vn -1 0 0
vn 0 0 1
vn 0 0 -1
vn 0 1 0
vn 0 1 0
vn 0 1 0
vn 0 1 0
vn 0 1 0
vn 0 1 0
vn 0 1 0
vn 0 1 0
vn 0 1 0
vn 0.7071067811865492 0 0.7071067811865459
vn 0.7071067811865483 0 -0.7071067811865467
vn -0.7071067811865478 0 -0.7071067811865472
vn -0.7071067811865476 0 0.7071067811865476
usemtl m_74692fa5-4629-e888-f13f-f390aed0874e
f 10/21/6 9/22/6 11/23/6 12/24/6
f 15/25/7 13/26/7 14/27/7 16/28/7
f 11/29/8 9/30/8 13/31/8 15/32/8
f 14/33/9 10/34/9 12/35/9 16/36/9
f 17/37/10 19/38/10 13/39/10 9/40/10
f 18/41/11 17/42/11 9/43/11 10/44/11
f 20/45/12 18/46/12 10/47/12 14/48/12
f 19/49/13 20/50/13 14/51/13 13/52/13
f 27/53/14 25/54/14 26/55/14 28/56/14
f 21/57/15 19/58/15 23/59/15 17/60/15
f 22/61/16 17/62/16 21/63/16 18/64/16
f 24/65/17 18/66/17 22/67/17 20/68/17
f 23/69/18 20/70/18 24/71/18 19/72/18
f 25/73/19 27/74/19 23/75/19 21/76/19
f 26/77/20 25/78/20 21/79/20 22/80/20
f 28/81/21 26/82/21 22/83/21 24/84/21
f 27/85/22 28/86/22 24/87/22 23/88/22
o cuboid
v 0.708125 0.115625 0.024999999999999994
v 0.708125 0.115625 -0.025
v 0.708125 0.0875 0.024999999999999994
v 0.708125 0.0875 -0.025
v 0.658125 0.115625 0.024999999999999994
v 0.658125 0.115625 -0.025
v 0.658125 0.0875 0.024999999999999994
v 0.658125 0.0875 -0.025
v 0.6956249999999999 0.115625 0.012499999999999983
v 0.6956249999999999 0.115625 -0.012499999999999997
v 0.670625 0.115625 0.012499999999999983
v 0.670625 0.115625 -0.012499999999999997
v 0.7008026695296635 0.115625 -2.7755575615628914e-17
v 0.683125 0.115625 -0.01767766952966361
v 0.683125 0.115625 0.017677669529663625
v 0.6654473304703363 0.115625 2.7755575615628914e-17
v 0.7008026695296635 0.13125 -2.7755575615628914e-17
v 0.683125 0.13125 -0.01767766952966361
v 0.683125 0.13125 0.017677669529663625
v 0.6654473304703363 0.13125 2.7755575615628914e-17
vt 0.40625 0.21875
vt 0.375 0.21875
vt 0.375 0.1875
vt 0.40625 0.1875
vt 0.46875 0.1875
vt 0.46875 0.21875
vt 0.4375 0.21875
vt 0.4375 0.1875
vt 0.53125 0.1875
vt 0.53125 0.21875
vt 0.5 0.21875
vt 0.5 0.1875
vt 0.8125 0.5
vt 0.78125 0.5
vt 0.78125 0.46875
vt 0.8125 0.46875
vt 0.178125 0.16874999999999996
vt 0.165625 0.16874999999999996
vt 0.159375 0.16249999999999998
vt 0.184375 0.16249999999999998
vt 0.178125 0.18125000000000002
vt 0.178125 0.16874999999999996
vt 0.184375 0.16249999999999998
vt 0.184375 0.1875
vt 0.165625 0.18125000000000002
vt 0.178125 0.18125000000000002
vt 0.184375 0.1875
vt 0.159375 0.1875
vt 0.165625 0.16874999999999996
vt 0.165625 0.18125000000000002
vt 0.159375 0.1875
vt 0.159375 0.16249999999999998
vt 0.5625 0.1875
vt 0.59375 0.1875
vt 0.59375 0.21875
vt 0.5625 0.21875
vt 0.42941875 0.15625
vt 0.41433125 0.15000000000000002
vt 0.42058125 0.14741249999999995
vt 0.42683125 0.15000000000000002
vt 0.011206250000000001 0.15625
vt 0.01745625 0.14116249999999997
vt 0.02004375 0.14741249999999995
vt 0.01745625 0.15366250000000004
vt 0.82058125 0.20991249999999995
vt 0.83566875 0.21616250000000004
vt 0.82941875 0.21875
vt 0.82316875 0.21616250000000004
vt 0.30129375 0.14116249999999997
vt 0.29504375 0.15625
vt 0.29245625 0.15000000000000002
vt 0.29504375 0.14375000000000004
vt 0.8125 0.4375
vt 0.78125 0.4375
vt 0.78125 0.40625
vt 0.8125 0.40625
vt 0.65625 0.21875
vt 0.625 0.21875
vt 0.625 0.1875
vt 0.65625 0.1875
vt 0.71875 0.21875
vt 0.6875 0.21875
vt 0.6875 0.1875
vt 0.71875 0.1875
vt 0.78125 0.21875
vt 0.75 0.21875
vt 0.75 0.1875
vt 0.78125 0.1875
vn 1 0 0
vn -1 0 0
vn 0 0 1
vn 0 0 -1
vn 0 1 0
vn 0 1 0
vn 0 1 0
vn 0 1 0
vn 0 1 0
vn 0 1 0
vn 0 1 0
vn 0 1 0
vn 0 1 0
vn 0.7071067811865492 0 0.7071067811865459
vn 0.7071067811865483 0 -0.7071067811865467
vn -0.7071067811865478 0 -0.7071067811865472
vn -0.7071067811865476 0 0.7071067811865476
usemtl m_74692fa5-4629-e888-f13f-f390aed0874e
f 30/89/23 29/90/23 31/91/23 32/92/23
f 35/93/24 33/94/24 34/95/24 36/96/24
f 31/97/25 29/98/25 33/99/25 35/100/25
f 34/101/26 30/102/26 32/103/26 36/104/26
f 37/105/27 39/106/27 33/107/27 29/108/27
f 38/109/28 37/110/28 29/111/28 30/112/28
f 40/113/29 38/114/29 30/115/29 34/116/29
f 39/117/30 40/118/30 34/119/30 33/120/30
f 47/121/31 45/122/31 46/123/31 48/124/31
f 41/125/32 39/126/32 43/127/32 37/128/32
f 42/129/33 37/130/33 41/131/33 38/132/33
f 44/133/34 38/134/34 42/135/34 40/136/34
f 43/137/35 40/138/35 44/139/35 39/140/35
f 45/141/36 47/142/36 43/143/36 41/144/36
f 46/145/37 45/146/37 41/147/37 42/148/37
f 48/149/38 46/150/38 42/151/38 44/152/38
f 47/153/39 48/154/39 44/155/39 43/156/39
o rail
v 0.7775000000000001 0.275 -0.3125
v 0.8243750000000001 0.10312500000000002 -0.3125
v 0.73 0.275 -0.3125
v 0.683125 0.10312500000000002 -0.3125
v 0.79 0.265625 -0.3125
v 0.7175 0.265625 -0.3125
v 0.79 0.24062500000000003 -0.3125
v 0.7175 0.24062500000000003 -0.3125
v 0.73625 0.23593750000000002 -0.3125
v 0.7712500000000001 0.23593750000000002 -0.3125
v 0.7315625 0.12890625 -0.3125
v 0.7759375000000001 0.12890625 -0.3125
v 0.72375 0.27343750000000006 -0.3125
v 0.7837500000000001 0.27343750000000006 -0.3125
v 0.7315625 0.23984375000000002 -0.3125
v 0.7759375000000001 0.23984375000000002 -0.3125
v 0.683125 0.09375 -0.3125
v 0.8243750000000001 0.09375 -0.3125
v 0.7104687500000001 0.11289062500000002 -0.3125
v 0.79703125 0.11289062500000002 -0.3125
v 0.72375 0.27343750000000006 0.3125
v 0.73 0.275 0.3125
v 0.7775000000000001 0.275 0.3125
v 0.7837500000000001 0.27343750000000006 0.3125
v 0.7175 0.265625 0.3125
v 0.7175 0.24062500000000003 0.3125
v 0.73625 0.23593750000000002 0.3125
v 0.7315625 0.23984375000000002 0.3125
v 0.7315625 0.12890625 0.3125
v 0.7104687500000001 0.11289062500000002 0.3125
v 0.683125 0.10312500000000002 0.3125
v 0.683125 0.09375 0.3125
v 0.8243750000000001 0.09375 0.3125
v 0.8243750000000001 0.10312500000000002 0.3125
v 0.79703125 0.11289062500000002 0.3125
v 0.7759375000000001 0.12890625 0.3125
v 0.7712500000000001 0.23593750000000002 0.3125
v 0.7759375000000001 0.23984375000000002 0.3125
v 0.79 0.24062500000000003 0.3125
v 0.79 0.265625 0.3125
vt 0.09427968749999996 0.34375
vt 0.09427968749999996 0.03125
vt 0.09749843750000001 0.03125
vt 0.09749843750000001 0.34375
vt 0.09749843750000001 0.34375
vt 0.09749843750000001 0.03125
vt 0.12124843750000006 0.03125
vt 0.12124843750000006 0.34375
vt 0.12124843750000006 0.34375
vt 0.12124843750000006 0.03125
vt 0.12447031250000004 0.03125
vt 0.12447031250000004 0.34375
vt 0.59375 0.65625
vt 0.90625 0.65625
vt 0.90625 0.6875
vt 0.59375 0.6875
vt 0.59375 0.96875
vt 0.90625 0.96875
vt 0.90625 1
vt 0.59375 1
vt 0.59375 0.78125
vt 0.90625 0.78125
vt 0.90625 0.8125
vt 0.59375 0.8125
vt 0.4375 0.375
vt 0.75 0.375
vt 0.75 0.40625
vt 0.4375 0.40625
vt 0.09375 0.4375
vt 0.40625 0.4375
vt 0.40625 0.5
vt 0.09375 0.5
vt 0.5 0.330509375
vt 0.8125 0.330509375
vt 0.8125 0.34375
vt 0.5 0.34375
vt 0.5 0.31599062499999997
vt 0.8125 0.31599062499999997
vt 0.8125 0.330509375
vt 0.5 0.330509375
vt 0.59375 0.90625
vt 0.90625 0.90625
vt 0.90625 0.9375
vt 0.59375 0.9375
vt 0.0625 0.1875
vt 0.0625 0.5
vt 0 0.5
vt 0 0.1875
vt 0.40625 0.40625
vt 0.09375 0.40625
vt 0.09375 0.375
vt 0.40625 0.375
vt 0.46875 0.33050625
vt 0.15625 0.33050625
vt 0.15625 0.3159875
vt 0.46875 0.3159875
vt 0.46875 0.34375
vt 0.15625 0.34375
vt 0.15625 0.33050625
vt 0.46875 0.33050625
vt 0.75 0.5
vt 0.4375 0.5
vt 0.4375 0.4375
vt 0.75 0.4375
vt 0.90625 0.5625
vt 0.59375 0.5625
vt 0.59375 0.53125
vt 0.90625 0.53125
vt 0.90625 0.75
vt 0.59375 0.75
vt 0.59375 0.71875
vt 0.90625 0.71875
vt 0.90625 0.875
vt 0.59375 0.875
vt 0.59375 0.84375
vt 0.90625 0.84375
vt 0.90625 0.625
vt 0.59375 0.625
vt 0.59375 0.59375
vt 0.90625 0.59375
vn -0.24253562503632894 0.9701425001453331 0
vn 0 1 0
vn 0.24253562503632894 0.9701425001453331 0
vn -0.7808688094430336 0.6246950475544203 0
vn -1 0 0
vn -0.05547001962252379 -0.9984603532054125 0
vn -0.6401843996644835 -0.7682212795973729 0
vn -0.999042349216381 0.04375367952772429 0
vn -0.6047092401914661 0.7964463163497335 0
vn -0.33633639699815504 0.9417419115948379 0
vn -1 0 0
vn 0 -1 0
vn 1 0 0
vn 0.33633639699815504 0.9417419115948379 0
vn 0.6047092401914661 0.7964463163497335 0
vn 0.999042349216381 0.04375367952772429 0
vn 0.6401843996644835 -0.7682212795973729 0
vn 0.05547001962252379 -0.9984603532054125 0
vn 1 0 0
vn 0.7808688094430336 0.6246950475544203 0
usemtl m_74692fa5-4629-e888-f13f-f390aed0874e
f 61/157/40 69/158/40 70/159/40 51/160/40
f 51/161/41 70/162/41 71/163/41 49/164/41
f 49/165/42 71/166/42 72/167/42 62/168/42
f 54/169/43 73/170/43 69/171/43 61/172/43
f 56/173/44 74/174/44 73/175/44 54/176/44
f 63/177/45 76/178/45 74/179/45 56/180/45
f 57/181/46 75/182/46 76/183/46 63/184/46
f 59/185/47 77/186/47 75/187/47 57/188/47
f 67/189/48 78/190/48 77/191/48 59/192/48
f 52/193/49 79/194/49 78/195/49 67/196/49
f 65/197/50 80/198/50 79/199/50 52/200/50
f 66/201/51 81/202/51 80/203/51 65/204/51
f 50/205/52 82/206/52 81/207/52 66/208/52
f 68/209/53 83/210/53 82/211/53 50/212/53
f 60/213/54 84/214/54 83/215/54 68/216/54
f 58/217/55 85/218/55 84/219/55 60/220/55
f 64/221/56 86/222/56 85/223/56 58/224/56
f 55/225/57 87/226/57 86/227/57 64/228/57
f 53/229/58 88/230/58 87/231/58 55/232/58
f 62/233/59 72/234/59 88/235/59 53/236/59
o cuboid
v -0.708125 0.115625 0.024999999999999994
v -0.708125 0.115625 -0.025
v -0.708125 0.0875 0.024999999999999994
v -0.708125 0.0875 -0.025
v -0.658125 0.115625 0.024999999999999994
v -0.658125 0.115625 -0.025
v -0.658125 0.0875 0.024999999999999994
v -0.658125 0.0875 -0.025
v -0.6956249999999999 0.115625 0.012499999999999983
v -0.6956249999999999 0.115625 -0.012499999999999997
v -0.670625 0.115625 0.012499999999999983
v -0.670625 0.115625 -0.012499999999999997
v -0.7008026695296635 0.115625 -2.7755575615628914e-17
v -0.683125 0.115625 -0.01767766952966361
v -0.683125 0.115625 0.017677669529663625
v -0.6654473304703363 0.115625 2.7755575615628914e-17
v -0.7008026695296635 0.13125 -2.7755575615628914e-17
v -0.683125 0.13125 -0.01767766952966361
v -0.683125 0.13125 0.017677669529663625
v -0.6654473304703363 0.13125 2.7755575615628914e-17
vt 0.375 0.1875
vt 0.375 0.21875
vt 0.40625 0.21875
vt 0.40625 0.1875
vt 0.4375 0.21875
vt 0.46875 0.21875
vt 0.46875 0.1875
vt 0.4375 0.1875
vt 0.5 0.21875
vt 0.53125 0.21875
vt 0.53125 0.1875
vt 0.5 0.1875
vt 0.78125 0.46875
vt 0.78125 0.5
vt 0.8125 0.5
vt 0.8125 0.46875
vt 0.159375 0.16249999999999998
vt 0.165625 0.16874999999999996
vt 0.178125 0.16874999999999996
vt 0.184375 0.16249999999999998
vt 0.184375 0.16249999999999998
vt 0.178125 0.16874999999999996
vt 0.178125 0.18125000000000002
vt 0.184375 0.1875
vt 0.184375 0.1875
vt 0.178125 0.18125000000000002
vt 0.165625 0.18125000000000002
vt 0.159375 0.1875
vt 0.159375 0.1875
vt 0.165625 0.18125000000000002
vt 0.165625 0.16874999999999996
vt 0.159375 0.16249999999999998
vt 0.59375 0.21875
vt 0.59375 0.1875
vt 0.5625 0.1875
vt 0.5625 0.21875
vt 0.42058125 0.14741249999999995
vt 0.41433125 0.15000000000000002
vt 0.42941875 0.15625
vt 0.42683125 0.15000000000000002
vt 0.02004375 0.14741249999999995
vt 0.01745625 0.14116249999999997
vt 0.011206250000000001 0.15625
vt 0.01745625 0.15366250000000004
vt 0.82941875 0.21875
vt 0.83566875 0.21616250000000004
vt 0.82058125 0.20991249999999995
vt 0.82316875 0.21616250000000004
vt 0.29245625 0.15000000000000002
vt 0.29504375 0.15625
vt 0.30129375 0.14116249999999997
vt 0.29504375 0.14375000000000004
vt 0.78125 0.40625
vt 0.78125 0.4375
vt 0.8125 0.4375
vt 0.8125 0.40625
vt 0.625 0.1875
vt 0.625 0.21875
vt 0.65625 0.21875
vt 0.65625 0.1875
vt 0.6875 0.1875
vt 0.6875 0.21875
vt 0.71875 0.21875
vt 0.71875 0.1875
vt 0.75 0.1875
vt 0.75 0.21875
vt 0.78125 0.21875
vt 0.78125 0.1875
vn -1 0 0
vn 1 0 0
vn 0 0 1
vn 0 0 -1
vn 0 1 0
vn 0 1 0
vn 0 1 0
vn 0 1 0
vn 0 1 0
vn 0 1 0
vn 0 1 0
vn 0 1 0
vn 0 1 0
vn -0.7071067811865492 0 0.7071067811865459
vn -0.7071067811865483 0 -0.7071067811865467
vn 0.7071067811865478 0 -0.7071067811865472
vn 0.7071067811865476 0 0.7071067811865476
usemtl m_74692fa5-4629-e888-f13f-f390aed0874e
f 91/237/60 89/238/60 90/239/60 92/240/60
f 94/241/61 93/242/61 95/243/61 96/244/61
f 93/245/62 89/246/62 91/247/62 95/248/62
f 92/249/63 90/250/63 94/251/63 96/252/63
f 93/253/64 99/254/64 97/255/64 89/256/64
f 89/257/65 97/258/65 98/259/65 90/260/65
f 90/261/66 98/262/66 100/263/66 94/264/66
f 94/265/67 100/266/67 99/267/67 93/268/67
f 106/269/68 105/270/68 107/271/68 108/272/68
f 103/273/69 99/274/69 101/275/69 97/276/69
f 101/277/70 97/278/70 102/279/70 98/280/70
f 102/281/71 98/282/71 104/283/71 100/284/71
f 104/285/72 100/286/72 103/287/72 99/288/72
f 103/289/73 107/290/73 105/291/73 101/292/73
f 101/293/74 105/294/74 106/295/74 102/296/74
f 102/297/75 106/298/75 108/299/75 104/300/75
f 104/301/76 108/302/76 107/303/76 103/304/76
o cuboid
v -1.125 0 0.125
v -1.125 0 -0.125
v 0 0 0.125
v 0 0 -0.125
v -1.125 0.09375 0.125
v -1.125 0.09375 -0.125
v 0 0.09375 0.125
v 0 0.09375 -0.125
vt 0.5625 1
vt 0.5625 0.875
vt 0 0.875
vt 0 1
vt 0.15625 0.21875
vt 0.15625 0.28125
vt 0.28125 0.28125
vt 0.28125 0.21875
vt 0 0.84375
vt 0.5625 0.84375
vt 0.5625 0.71875
vt 0 0.71875
vt 0 0.625
vt 0 0.6875
vt 0.5625 0.6875
vt 0.5625 0.625
vt 0 0.53125
vt 0 0.59375
vt 0.5625 0.59375
vt 0.5625 0.53125
vn 0 1 0
vn -1 0 0
vn 0 -1 0
vn 0 0 -1
vn 0 0 1
usemtl m_74692fa5-4629-e888-f13f-f390aed0874e
f 114/305/77 113/306/77 115/307/77 116/308/77
f 109/309/78 113/310/78 114/311/78 110/312/78
f 111/313/79 109/314/79 110/315/79 112/316/79
f 110/317/80 114/318/80 116/319/80 112/320/80
f 111/321/81 115/322/81 113/323/81 109/324/81
o cuboid
v -0.84875 0.115625 0.024999999999999994
v -0.84875 0.115625 -0.025
v -0.84875 0.0875 0.024999999999999994
v -0.84875 0.0875 -0.025
v -0.79875 0.115625 0.024999999999999994
v -0.79875 0.115625 -0.025
v -0.79875 0.0875 0.024999999999999994
v -0.79875 0.0875 -0.025
v -0.8362499999999999 0.115625 0.012499999999999983
v -0.8362499999999999 0.115625 -0.012499999999999997
v -0.81125 0.115625 0.012499999999999983
v -0.81125 0.115625 -0.012499999999999997
v -0.8414276695296635 0.115625 -2.7755575615628914e-17
v -0.82375 0.115625 -0.01767766952966361
v -0.82375 0.115625 0.017677669529663625
v -0.8060723304703363 0.115625 2.7755575615628914e-17
v -0.8414276695296635 0.13125 -2.7755575615628914e-17
v -0.82375 0.13125 -0.01767766952966361
v -0.82375 0.13125 0.017677669529663625
v -0.8060723304703363 0.13125 2.7755575615628914e-17
vt 0.3125 0.25
vt 0.3125 0.28125
vt 0.34375 0.28125
vt 0.34375 0.25
vt 0.375 0.28125
vt 0.40625 0.28125
vt 0.40625 0.25
vt 0.375 0.25
vt 0.4375 0.28125
vt 0.46875 0.28125
vt 0.46875 0.25
vt 0.4375 0.25
vt 0.5 0.25
vt 0.5 0.28125
vt 0.53125 0.28125
vt 0.53125 0.25
vt 0.221875 0.16249999999999998
vt 0.228125 0.16874999999999996
vt 0.240625 0.16874999999999996
vt 0.246875 0.16249999999999998
vt 0.246875 0.16249999999999998
vt 0.240625 0.16874999999999996
vt 0.240625 0.18125000000000002
vt 0.246875 0.1875
vt 0.246875 0.1875
vt 0.240625 0.18125000000000002
vt 0.228125 0.18125000000000002
vt 0.221875 0.1875
vt 0.221875 0.1875
vt 0.228125 0.18125000000000002
vt 0.228125 0.16874999999999996
vt 0.221875 0.16249999999999998
vt 0.59375 0.28125
vt 0.59375 0.25
vt 0.5625 0.25
vt 0.5625 0.28125
vt 0.48308125 0.14741249999999995
vt 0.47683125 0.15000000000000002
vt 0.49191875 0.15625
vt 0.48933125 0.15000000000000002
vt 0.36379375 0.14741249999999995
vt 0.36120625 0.14116249999999997
vt 0.35495625 0.15625
vt 0.36120625 0.15366250000000004
vt 0.82941875 0.28125
vt 0.83566875 0.27866250000000004
vt 0.82058125 0.27241249999999995
vt 0.82316875 0.27866250000000004
vt 0.85495625 0.49375
vt 0.85754375 0.5
vt 0.86379375 0.48491249999999997
vt 0.85754375 0.48750000000000004
vt 0.625 0.25
vt 0.625 0.28125
vt 0.65625 0.28125
vt 0.65625 0.25
vt 0.6875 0.25
vt 0.6875 0.28125
vt 0.71875 0.28125
vt 0.71875 0.25
vt 0.75 0.25
vt 0.75 0.28125
vt 0.78125 0.28125
vt 0.78125 0.25
vt 0.3125 0.1875
vt 0.3125 0.21875
vt 0.34375 0.21875
vt 0.34375 0.1875
vn -1 0 0
vn 1 0 0
vn 0 0 1
vn 0 0 -1
vn 0 1 0
vn 0 1 0
vn 0 1 0
vn 0 1 0
vn 0 1 0
vn 0 1 0
vn 0 1 0
vn 0 1 0
vn 0 1 0
vn -0.7071067811865492 0 0.7071067811865459
vn -0.7071067811865483 0 -0.7071067811865467
vn 0.7071067811865478 0 -0.7071067811865472
vn 0.7071067811865476 0 0.7071067811865476
usemtl m_74692fa5-4629-e888-f13f-f390aed0874e
f 119/325/82 117/326/82 118/327/82 120/328/82
f 122/329/83 121/330/83 123/331/83 124/332/83
f 121/333/84 117/334/84 119/335/84 123/336/84
f 120/337/85 118/338/85 122/339/85 124/340/85
f 121/341/86 127/342/86 125/343/86 117/344/86
f 117/345/87 125/346/87 126/347/87 118/348/87
f 118/349/88 126/350/88 128/351/88 122/352/88
f 122/353/89 128/354/89 127/355/89 121/356/89
f 134/357/90 133/358/90 135/359/90 136/360/90
f 131/361/91 127/362/91 129/363/91 125/364/91
f 129/365/92 125/366/92 130/367/92 126/368/92
f 130/369/93 126/370/93 132/371/93 128/372/93
f 132/373/94 128/374/94 131/375/94 127/376/94
f 131/377/95 135/378/95 133/379/95 129/380/95
f 129/381/96 133/382/96 134/383/96 130/384/96
f 130/385/97 134/386/97 136/387/97 132/388/97
f 132/389/98 136/390/98 135/391/98 131/392/98
o rail
v -0.7775000000000001 0.275 -0.3125
v -0.8243750000000001 0.10312500000000002 -0.3125
v -0.73 0.275 -0.3125
v -0.683125 0.10312500000000002 -0.3125
v -0.79 0.265625 -0.3125
v -0.7175 0.265625 -0.3125
v -0.79 0.24062500000000003 -0.3125
v -0.7175 0.24062500000000003 -0.3125
v -0.73625 0.23593750000000002 -0.3125
v -0.7712500000000001 0.23593750000000002 -0.3125
v -0.7315625 0.12890625 -0.3125
v -0.7759375000000001 0.12890625 -0.3125
v -0.72375 0.27343750000000006 -0.3125
v -0.7837500000000001 0.27343750000000006 -0.3125
v -0.7315625 0.23984375000000002 -0.3125
v -0.7759375000000001 0.23984375000000002 -0.3125
v -0.683125 0.09375 -0.3125
v -0.8243750000000001 0.09375 -0.3125
v -0.7104687500000001 0.11289062500000002 -0.3125
v -0.79703125 0.11289062500000002 -0.3125
v -0.72375 0.27343750000000006 0.3125
v -0.73 0.275 0.3125
v -0.7775000000000001 0.275 0.3125
v -0.7837500000000001 0.27343750000000006 0.3125
v -0.7175 0.265625 0.3125
v -0.7175 0.24062500000000003 0.3125
v -0.73625 0.23593750000000002 0.3125
v -0.7315625 0.23984375000000002 0.3125
v -0.7315625 0.12890625 0.3125
v -0.7104687500000001 0.11289062500000002 0.3125
v -0.683125 0.10312500000000002 0.3125
v -0.683125 0.09375 0.3125
v -0.8243750000000001 0.09375 0.3125
v -0.8243750000000001 0.10312500000000002 0.3125
v -0.79703125 0.11289062500000002 0.3125
v -0.7759375000000001 0.12890625 0.3125
v -0.7712500000000001 0.23593750000000002 0.3125
v -0.7759375000000001 0.23984375000000002 0.3125
v -0.79 0.24062500000000003 0.3125
v -0.79 0.265625 0.3125
vt 0.09749843750000001 0.03125
vt 0.09427968749999996 0.03125
vt 0.09427968749999996 0.34375
vt 0.09749843750000001 0.34375
vt 0.12124843750000006 0.03125
vt 0.09749843750000001 0.03125
vt 0.09749843750000001 0.34375
vt 0.12124843750000006 0.34375
vt 0.12447031250000004 0.03125
vt 0.12124843750000006 0.03125
vt 0.12124843750000006 0.34375
vt 0.12447031250000004 0.34375
vt 0.90625 0.6875
vt 0.90625 0.65625
vt 0.59375 0.65625
vt 0.59375 0.6875
vt 0.90625 1
vt 0.90625 0.96875
vt 0.59375 0.96875
vt 0.59375 1
vt 0.90625 0.8125
vt 0.90625 0.78125
vt 0.59375 0.78125
vt 0.59375 0.8125
vt 0.75 0.40625
vt 0.75 0.375
vt 0.4375 0.375
vt 0.4375 0.40625
vt 0.40625 0.5
vt 0.40625 0.4375
vt 0.09375 0.4375
vt 0.09375 0.5
vt 0.8125 0.34375
vt 0.8125 0.330509375
vt 0.5 0.330509375
vt 0.5 0.34375
vt 0.8125 0.330509375
vt 0.8125 0.31599062499999997
vt 0.5 0.31599062499999997
vt 0.5 0.330509375
vt 0.90625 0.9375
vt 0.90625 0.90625
vt 0.59375 0.90625
vt 0.59375 0.9375
vt 0 0.5
vt 0.0625 0.5
vt 0.0625 0.1875
vt 0 0.1875
vt 0.09375 0.375
vt 0.09375 0.40625
vt 0.40625 0.40625
vt 0.40625 0.375
vt 0.15625 0.3159875
vt 0.15625 0.33050625
vt 0.46875 0.33050625
vt 0.46875 0.3159875
vt 0.15625 0.33050625
vt 0.15625 0.34375
vt 0.46875 0.34375
vt 0.46875 0.33050625
vt 0.4375 0.4375
vt 0.4375 0.5
vt 0.75 0.5
vt 0.75 0.4375
vt 0.59375 0.53125
vt 0.59375 0.5625
vt 0.90625 0.5625
vt 0.90625 0.53125
vt 0.59375 0.71875
vt 0.59375 0.75
vt 0.90625 0.75
vt 0.90625 0.71875
vt 0.59375 0.84375
vt 0.59375 0.875
vt 0.90625 0.875
vt 0.90625 0.84375
vt 0.59375 0.59375
vt 0.59375 0.625
vt 0.90625 0.625
vt 0.90625 0.59375
vn 0.24253562503632894 0.9701425001453331 0
vn 0 1 0
vn -0.24253562503632894 0.9701425001453331 0
vn 0.7808688094430336 0.6246950475544203 0
vn 1 0 0
vn 0.05547001962252379 -0.9984603532054125 0
vn 0.6401843996644835 -0.7682212795973729 0
vn 0.999042349216381 0.04375367952772429 0
vn 0.6047092401914661 0.7964463163497335 0
vn 0.33633639699815504 0.9417419115948379 0
vn 1 0 0
vn 0 -1 0
vn -1 0 0
vn -0.33633639699815504 0.9417419115948379 0
vn -0.6047092401914661 0.7964463163497335 0
vn -0.999042349216381 0.04375367952772429 0
vn -0.6401843996644835 -0.7682212795973729 0
vn -0.05547001962252379 -0.9984603532054125 0
vn -1 0 0
vn -0.7808688094430336 0.6246950475544203 0
usemtl m_74692fa5-4629-e888-f13f-f390aed0874e
f 158/393/99 157/394/99 149/395/99 139/396/99
f 159/397/100 158/398/100 139/399/100 137/400/100
f 160/401/101 159/402/101 137/403/101 150/404/101
f 157/405/102 161/406/102 142/407/102 149/408/102
f 161/409/103 162/410/103 144/411/103 142/412/103
f 162/413/104 164/414/104 151/415/104 144/416/104
f 164/417/105 163/418/105 145/419/105 151/420/105
f 163/421/106 165/422/106 147/423/106 145/424/106
f 165/425/107 166/426/107 155/427/107 147/428/107
f 166/429/108 167/430/108 140/431/108 155/432/108
f 167/433/109 168/434/109 153/435/109 140/436/109
f 168/437/110 169/438/110 154/439/110 153/440/110
f 169/441/111 170/442/111 138/443/111 154/444/111
f 170/445/112 171/446/112 156/447/112 138/448/112
f 171/449/113 172/450/113 148/451/113 156/452/113
f 172/453/114 173/454/114 146/455/114 148/456/114
f 173/457/115 174/458/115 152/459/115 146/460/115
f 174/461/116 175/462/116 143/463/116 152/464/116
f 175/465/117 176/466/117 141/467/117 143/468/117
f 176/469/118 160/470/118 150/471/118 141/472/118
o cuboid
v 0.25 0.015625 0.3125
v 0.25 0.015625 -0.3125
v 0.25 -1 0.3125
v 0.25 -1 -0.3125
v 0 0 0.3125
v 0 0 -0.3125
v 0 -1 0.3125
v 0 -1 -0.3125
v 0.625 0.078125 0.3125
v 0.625 -1 0.3125
v 0.625 0.078125 -0.3125
v 0.625 -1 -0.3125
v 1.1875 0.078125 0.3125
v 1.1875 -1 0.3125
v 1.1875 0.078125 -0.3125
v 1.1875 -1 -0.3125
v 1.5 0 0.3125
v 2.5 -1 0.3125
v 1.5 0 -0.3125
v 2.5 -1 -0.3125
v 2.125 -0.375 -0.3125
v 2.125 -0.375 0.3125
v 1.1875 -0.4609375 0.3125
v 0.625 -0.4609375 0.3125
v 0.25 -0.4921875 0.3125
v 0 -0.5 0.3125
v 1.1875 -0.4609375 -0.3125
v 0.625 -0.4609375 -0.3125
v 0.25 -0.4921875 -0.3125
v 0 -0.5 -0.3125
vt 0.0234375 0.53125
vt 0.0234375 0.44014140625
vt 0.1015625 0.44014140625
vt 0.1015625 0.53125
vt 0.078125 0.6249390625
vt 0.078125 0.65625
vt 0 0.65625
vt 0 0.6249390625
vt 0 0.990234375
vt 0 0.927734375
vt 0.03125 0.9287109375
vt 0.03125 0.9921875
vt 0.3125 0.716796875
vt 0.3125 0.779296875
vt 0.28125 0.7802734375
vt 0.28125 0.716796875
vt 0.09375 0.6640625
vt 0.015625 0.6640625
vt 0.015625 0.61654140625
vt 0.09375 0.61654140625
vt 0.03125 0.9921875
vt 0.03125 0.9287109375
vt 0.078125 0.9326171875
vt 0.078125 1
vt 0.28125 0.716796875
vt 0.28125 0.7802734375
vt 0.234375 0.7841796875
vt 0.234375 0.716796875
vt 0.1484375 0.6015625
vt 0.1484375 0.6796875
vt 0.078125 0.6796875
vt 0.078125 0.6015625
vt 0.078125 1
vt 0.078125 0.9326171875
vt 0.1484375 0.9326171875
vt 0.1484375 1
vt 0.234375 0.716796875
vt 0.234375 0.7841796875
vt 0.1640625 0.7841796875
vt 0.1640625 0.716796875
vt 0 0.3046875
vt 0.0703125 0.3046875
vt 0.0703125 0.4296875
vt 0 0.4296875
vt 0.5546875 0.7734375
vt 0.5546875 0.8408203125
vt 0.484375 0.8408203125
vt 0.484375 0.7734375
vt 0.5625 0.8515625
vt 0.5625 0.7841796875
vt 0.6328125 0.7841796875
vt 0.6328125 0.8515625
vt 0.0234375 0.53004765625
vt 0.1015625 0.53004765625
vt 0.1015625 0.5703125
vt 0.0234375 0.5703125
vt 0.1484375 1
vt 0.1484375 0.9326171875
vt 0.265625 0.943359375
vt 0.1875 0.990234375
vt 0.125 0.841796875
vt 0.046875 0.794921875
vt 0.1640625 0.7841796875
vt 0.1640625 0.8515625
vt 0.6328125 0.4765625
vt 0.6328125 0.4375
vt 0.7578125 0.4375
vt 0.7578125 0.4765625
vt 0.484375 0.7734375
vt 0.484375 0.8408203125
vt 0.3671875 0.8515625
vt 0.3203125 0.7734375
vt 0.6328125 0.8515625
vt 0.6328125 0.7841796875
vt 0.75 0.794921875
vt 0.671875 0.841796875
vt 0.671875 0.68232890625
vt 0.671875 0.7734375
vt 0.59375 0.7734375
vt 0.59375 0.68232890625
vt 0.3125 0.865234375
vt 0.265625 0.943359375
vt 0.1484375 0.9326171875
vt 0.1484375 0.865234375
vt 0.1484375 0.865234375
vt 0.1484375 0.9326171875
vt 0.078125 0.9326171875
vt 0.078125 0.865234375
vt 0.078125 0.865234375
vt 0.078125 0.9326171875
vt 0.03125 0.9287109375
vt 0.03125 0.865234375
vt 0.03125 0.865234375
vt 0.03125 0.9287109375
vt 0 0.927734375
vt 0 0.865234375
vt 0.1640625 0.703125
vt 0.1640625 0.6328125
vt 0.234375 0.6328125
vt 0.234375 0.703125
vt 0.33666635954921736 0.3405426144678001
vt 0.282855508586496 0.4140625
vt 0.282855508586496 0.2963836796943258
vt 0.349956991413504 0.30253464895346827
vt 0.1640625 0.716796875
vt 0.1640625 0.7841796875
vt 0.046875 0.794921875
vt 0 0.716796875
vt 0.625 0.4296875
vt 0.578125 0.5078125
vt 0.4609375 0.4970703125
vt 0.4609375 0.4296875
vt 0.1640625 0.8515625
vt 0.1640625 0.7841796875
vt 0.234375 0.7841796875
vt 0.234375 0.8515625
vt 0.234375 0.8515625
vt 0.234375 0.7841796875
vt 0.28125 0.7802734375
vt 0.28125 0.84375
vt 0.28125 0.84375
vt 0.28125 0.7802734375
vt 0.3125 0.779296875
vt 0.3125 0.841796875
vt 0.6796875 0.484375
vt 0.6796875 0.5546875
vt 0.609375 0.5546875
vt 0.609375 0.484375
vn 0.5144957554275266 0.8574929257125442 0
vn -0.06237828615518055 0.9980525784828888 0
vn 0 0 1
vn 0 0 -1
vn -0.1643989873053573 0.9863939238321437 0
vn 0 0 1
vn 0 0 -1
vn 0 1 0
vn 0 0 1
vn 0 0 -1
vn 0 -1 0
vn 0 0 -1
vn 0 0 1
vn 0.24253562503633297 0.9701425001453319 0
vn 0 0 1
vn 0 0 -1
vn -0.24253562503633297 -0.9701425001453319 0
vn 0 0 -1
vn 0 0 1
vn 0.8574929257125442 0.5144957554275266 0
vn 0 0 1
vn 0 0 1
vn 0 0 1
vn 0 0 1
vn 0 0 -1
vn 0 0 -1
vn 0 0 -1
vn 0 0 1
vn 0 0 -1
vn 0 0 -1
vn 0 0 -1
vn 0 0 1
usemtl m_b1c10831-9078-742e-3a1e-6387857cf31d
f 193/473/119 198/474/119 197/475/119 195/476/119
f 181/477/120 177/478/120 178/479/120 182/480/120
f 181/481/121 202/482/121 201/483/121 177/484/121
f 184/485/122 206/486/122 205/487/122 180/488/122
f 185/489/123 187/490/123 178/491/123 177/492/123
f 177/493/124 201/494/124 200/495/124 185/496/124
f 180/497/125 205/498/125 204/499/125 188/500/125
f 189/501/126 191/502/126 187/503/126 185/504/126
f 185/505/127 200/506/127 199/507/127 189/508/127
f 188/509/128 204/510/128 203/511/128 192/512/128
f 187/513/129 191/514/129 189/515/129 185/516/129
f 186/517/130 200/518/130 199/519/130 190/520/130
f 187/521/131 204/522/131 203/523/131 191/524/131
f 193/525/132 195/526/132 191/527/132 189/528/132
f 189/529/133 199/530/133 198/531/133 193/532/133
f 195/533/134 197/534/134 203/535/134 191/536/134
f 191/537/135 195/538/135 193/539/135 189/540/135
f 190/541/136 199/542/136 198/543/136 194/544/136
f 191/545/137 203/546/137 197/547/137 195/548/137
f 196/549/138 197/550/138 198/551/138 194/552/138
f 194/553/139 198/554/139 199/555/139 190/556/139
f 190/557/140 199/558/140 200/559/140 186/560/140
f 186/561/141 200/562/141 201/563/141 179/564/141
f 179/565/142 201/566/142 202/567/142 183/568/142
f 189/569/143 199/570/143 200/571/143 185/572/143
f 193/573/144 198/574/144 199/575/144 189/576/144
f 192/577/145 203/578/145 197/579/145 196/580/145
f 196/581/146 197/582/146 203/583/146 192/584/146
f 191/585/147 203/586/147 204/587/147 187/588/147
f 187/589/148 204/590/148 205/591/148 178/592/148
f 178/593/149 205/594/149 206/595/149 182/596/149
f 192/597/150 203/598/150 204/599/150 188/600/150
o cuboid
v -0.25 0.015625 0.3125
v -0.25 0.015625 -0.3125
v -0.25 -1 0.3125
v -0.25 -1 -0.3125
v 0 0 0.3125
v 0 0 -0.3125
v 0 -1 0.3125
v 0 -1 -0.3125
v -0.625 0.078125 0.3125
v -0.625 -1 0.3125
v -0.625 0.078125 -0.3125
v -0.625 -1 -0.3125
v -1.1875 0.078125 0.3125
v -1.1875 -1 0.3125
v -1.1875 0.078125 -0.3125
v -1.1875 -1 -0.3125
v -1.5 0 0.3125
v -2.5 -1 0.3125
v -1.5 0 -0.3125
v -2.5 -1 -0.3125
v -2.125 -0.375 -0.3125
v -2.125 -0.375 0.3125
v -1.1875 -0.4609375 0.3125
v -0.625 -0.4609375 0.3125
v -0.25 -0.4921875 0.3125
v 0 -0.5 0.3125
v -1.1875 -0.4609375 -0.3125
v -0.625 -0.4609375 -0.3125
v -0.25 -0.4921875 -0.3125
v 0 -0.5 -0.3125
vt 0.3515625 0.37764140625
vt 0.4296875 0.37764140625
vt 0.4296875 0.46875
vt 0.3515625 0.46875
vt 0.3203125 0.53125
vt 0.2421875 0.53125
vt 0.2421875 0.4999390625
vt 0.3203125 0.4999390625
vt 0.53125 0.6708984375
vt 0.5625 0.669921875
vt 0.5625 0.732421875
vt 0.53125 0.734375
vt 0.3515625 0.9287109375
vt 0.3203125 0.927734375
vt 0.3203125 0.865234375
vt 0.3515625 0.865234375
vt 0.296875 0.50716640625
vt 0.296875 0.5546875
vt 0.21875 0.5546875
vt 0.21875 0.50716640625
vt 0.484375 0.6748046875
vt 0.53125 0.6708984375
vt 0.53125 0.734375
vt 0.484375 0.7421875
vt 0.3984375 0.9326171875
vt 0.3515625 0.9287109375
vt 0.3515625 0.865234375
vt 0.3984375 0.865234375
vt 0.234375 0.5703125
vt 0.1640625 0.5703125
vt 0.1640625 0.4921875
vt 0.234375 0.4921875
vt 0.4140625 0.6748046875
vt 0.484375 0.6748046875
vt 0.484375 0.7421875
vt 0.4140625 0.7421875
vt 0.46875 0.9326171875
vt 0.3984375 0.9326171875
vt 0.3984375 0.865234375
vt 0.46875 0.865234375
vt 0.59375 0.421875
vt 0.59375 0.296875
vt 0.6640625 0.296875
vt 0.6640625 0.421875
vt 0.3984375 0.5830078125
vt 0.328125 0.5830078125
vt 0.328125 0.515625
vt 0.3984375 0.515625
vt 0.6640625 0.5654296875
vt 0.734375 0.5654296875
vt 0.734375 0.6328125
vt 0.6640625 0.6328125
vt 0.3515625 0.5078125
vt 0.3515625 0.46754765625000005
vt 0.4296875 0.46754765625000005
vt 0.4296875 0.5078125
vt 0.296875 0.685546875
vt 0.4140625 0.6748046875
vt 0.4140625 0.7421875
vt 0.375 0.732421875
vt 0.46875 0.9326171875
vt 0.5859375 0.943359375
vt 0.5078125 0.990234375
vt 0.46875 1
vt 0.640625 0.8828125
vt 0.765625 0.8828125
vt 0.765625 0.921875
vt 0.640625 0.921875
vt 0.515625 0.59375
vt 0.3984375 0.5830078125
vt 0.3984375 0.515625
vt 0.5625 0.515625
vt 0.546875 0.576171875
vt 0.6640625 0.5654296875
vt 0.6640625 0.6328125
vt 0.625 0.623046875
vt 0.5625 0.421875
vt 0.484375 0.421875
vt 0.484375 0.33076640625
vt 0.5625 0.33076640625
vt 0.4140625 0.6748046875
vt 0.296875 0.685546875
vt 0.25 0.607421875
vt 0.4140625 0.607421875
vt 0.484375 0.6748046875
vt 0.4140625 0.6748046875
vt 0.4140625 0.607421875
vt 0.484375 0.607421875
vt 0.53125 0.6708984375
vt 0.484375 0.6748046875
vt 0.484375 0.607421875
vt 0.53125 0.607421875
vt 0.5625 0.669921875
vt 0.53125 0.6708984375
vt 0.53125 0.607421875
vt 0.5625 0.607421875
vt 0.078125 0.3046875
vt 0.1484375 0.3046875
vt 0.1484375 0.375
vt 0.078125 0.375
vt 0.6110824648471629 0.9296875
vt 0.7287612851528371 0.9296875
vt 0.6552413996206371 0.9867093681357134
vt 0.6172334341063053 1
vt 0.5859375 0.943359375
vt 0.46875 0.9326171875
vt 0.46875 0.865234375
vt 0.6328125 0.865234375
vt 0.2734375 0.4501953125
vt 0.15625 0.4609375
vt 0.109375 0.3828125
vt 0.2734375 0.3828125
vt 0.3984375 0.9326171875
vt 0.46875 0.9326171875
vt 0.46875 1
vt 0.3984375 1
vt 0.3515625 0.9287109375
vt 0.3984375 0.9326171875
vt 0.3984375 1
vt 0.3515625 0.9921875
vt 0.3203125 0.927734375
vt 0.3515625 0.9287109375
vt 0.3515625 0.9921875
vt 0.3203125 0.990234375
vt 0.2265625 0.375
vt 0.15625 0.375
vt 0.15625 0.3046875
vt 0.2265625 0.3046875
vn -0.5144957554275266 0.8574929257125442 0
vn 0.06237828615518055 0.9980525784828888 0
vn 0 0 1
vn 0 0 -1
vn 0.1643989873053573 0.9863939238321437 0
vn 0 0 1
vn 0 0 -1
vn 0 1 0
vn 0 0 1
vn 0 0 -1
vn 0 -1 0
vn 0 0 -1
vn 0 0 1
vn -0.24253562503633297 0.9701425001453319 0
vn 0 0 1
vn 0 0 -1
vn 0.24253562503633297 -0.9701425001453319 0
vn 0 0 -1
vn 0 0 1
vn -0.8574929257125442 0.5144957554275266 0
vn 0 0 1
vn 0 0 1
vn 0 0 1
vn 0 0 1
vn 0 0 -1
vn 0 0 -1
vn 0 0 -1
vn 0 0 1
vn 0 0 -1
vn 0 0 -1
vn 0 0 -1
vn 0 0 1
usemtl m_b1c10831-9078-742e-3a1e-6387857cf31d
f 227/601/151 228/602/151 223/603/151 225/604/151
f 208/605/152 207/606/152 211/607/152 212/608/152
f 231/609/153 232/610/153 211/611/153 207/612/153
f 235/613/154 236/614/154 214/615/154 210/616/154
f 208/617/155 217/618/155 215/619/155 207/620/155
f 230/621/156 231/622/156 207/623/156 215/624/156
f 234/625/157 235/626/157 210/627/157 218/628/157
f 217/629/158 221/630/158 219/631/158 215/632/158
f 229/633/159 230/634/159 215/635/159 219/636/159
f 233/637/160 234/638/160 218/639/160 222/640/160
f 219/641/161 221/642/161 217/643/161 215/644/161
f 229/645/162 230/646/162 216/647/162 220/648/162
f 233/649/163 234/650/163 217/651/163 221/652/163
f 221/653/164 225/654/164 223/655/164 219/656/164
f 228/657/165 229/658/165 219/659/165 223/660/165
f 233/661/166 227/662/166 225/663/166 221/664/166
f 223/665/167 225/666/167 221/667/167 219/668/167
f 228/669/168 229/670/168 220/671/168 224/672/168
f 227/673/169 233/674/169 221/675/169 225/676/169
f 228/677/170 227/678/170 226/679/170 224/680/170
f 229/681/171 228/682/171 224/683/171 220/684/171
f 230/685/172 229/686/172 220/687/172 216/688/172
f 231/689/173 230/690/173 216/691/173 209/692/173
f 232/693/174 231/694/174 209/695/174 213/696/174
f 230/697/175 229/698/175 219/699/175 215/700/175
f 229/701/176 228/702/176 223/703/176 219/704/176
f 227/705/177 233/706/177 222/707/177 226/708/177
f 233/709/178 227/710/178 226/711/178 222/712/178
f 234/713/179 233/714/179 221/715/179 217/716/179
f 235/717/180 234/718/180 217/719/180 208/720/180
f 236/721/181 235/722/181 208/723/181 212/724/181
f 234/725/182 233/726/182 222/727/182 218/728/182